<?xml version="1.0" encoding="UTF-8"?>
<svg version="1.1" xmlns="http://www.w3.org/2000/svg" width="1200" height="735">
<path d="M0 0 C5.83306419 1.27120727 10.96155709 4.76165529 16.07861328 7.73583984 C17.37043915 8.47000814 18.66317655 9.20257467 19.95678711 9.93359375 C22.57272897 11.41533608 25.18303945 12.90628425 27.78857422 14.40625 C32.1283922 16.90411827 36.4907655 19.36132586 40.85449219 21.81713867 C43.65232629 23.39442664 46.44370798 24.98270885 49.23486328 26.57177734 C52.73411039 28.55682818 56.25292493 30.49675055 59.79736328 32.39990234 C60.62727783 32.84865723 61.45719238 33.29741211 62.31225586 33.75976562 C63.84879788 34.58772569 65.38997754 35.40716721 66.93676758 36.21582031 C71.75458186 38.82087765 75.00519455 41.52650238 77.51611328 46.54833984 C77.61422939 48.39789939 77.64712394 50.25104162 77.65033436 52.10319901 C77.6547922 53.2913188 77.65925005 54.4794386 77.66384298 55.70356202 C77.66356643 57.67890447 77.66356643 57.67890447 77.6632843 59.69415283 C77.66658203 61.09816075 77.6703074 62.50216772 77.67442578 63.90617347 C77.6844643 67.77800919 77.68816554 71.64982941 77.69081509 75.5216763 C77.69471267 79.69221741 77.70429137 83.86274617 77.71302795 88.03327942 C77.73280787 98.11190646 77.74286051 108.19053452 77.75175574 118.26917613 C77.75613615 123.01229393 77.7615036 127.75541061 77.76674461 132.49852753 C77.78375842 148.26047153 77.79825337 164.02241483 77.80549335 179.78436661 C77.80740333 183.87642671 77.80932365 187.9684868 77.8112793 192.06054688 C77.81176304 193.07764165 77.81224678 194.09473642 77.81274518 195.14265224 C77.82104835 211.62491563 77.84638944 228.1071065 77.87885997 244.58933821 C77.91190598 261.50119756 77.92993989 278.41302002 77.9331376 295.32491183 C77.93530498 304.82441372 77.94408688 314.32380986 77.96959877 323.82328033 C77.99127222 331.9123077 77.99937277 340.00120367 77.98963199 348.09025678 C77.98507751 352.21860995 77.9870398 356.3466918 78.00639343 360.47500801 C78.02395649 364.25396111 78.02308373 368.0324436 78.00749614 371.81140122 C78.00397843 373.82700325 78.02019743 375.84260982 78.03710061 377.85814404 C77.95852556 388.83324785 77.95852556 388.83324785 73.51611328 393.54833984 C70.75830078 395.57568359 70.75830078 395.57568359 67.39111328 397.48583984 C66.75278564 397.85370605 66.11445801 398.22157227 65.45678711 398.60058594 C63.98818572 399.4452562 62.51599053 400.28369669 61.04101562 401.1171875 C58.23756271 402.70622646 55.44856125 404.31892057 52.66064453 405.93505859 C47.09443342 409.15979082 41.51999495 412.36999631 35.94335938 415.57666016 C30.46455531 418.72859217 24.99050216 421.88874781 19.51611328 425.04833984 C17.34947102 426.29838215 15.18280431 427.54838208 13.01611328 428.79833984 C11.94361328 429.41708984 10.87111328 430.03583984 9.76611328 430.67333984 C6.51611328 432.54833984 3.26611328 434.42333984 0.01611328 436.29833984 C-1.05783691 436.91821777 -2.13178711 437.5380957 -3.23828125 438.17675781 C-5.38928023 439.41713379 -7.5412878 440.65576249 -9.69433594 441.89257812 C-14.75579527 444.80293643 -19.80545721 447.72943878 -24.81988525 450.72003174 C-27.17742478 452.12459323 -29.54085157 453.51907557 -31.90478516 454.9128418 C-33.56197396 455.89552152 -35.21057844 456.89263285 -36.85888672 457.89013672 C-48.49452083 464.73680437 -48.49452083 464.73680437 -55.49072266 463.0703125 C-60.27777891 461.4359043 -64.56148241 458.92904162 -68.85888672 456.29833984 C-70.35681537 455.39992059 -71.85556882 454.50287562 -73.35498047 453.60693359 C-74.57870361 452.87385986 -74.57870361 452.87385986 -75.82714844 452.12597656 C-80.83002945 449.15514242 -85.87823064 446.26258734 -90.92138672 443.36083984 C-93.17009506 442.06528502 -95.41879284 440.76971187 -97.66748047 439.47412109 C-98.79653809 438.8239502 -99.9255957 438.1737793 -101.08886719 437.50390625 C-107.63437111 433.73362821 -114.17651578 429.9575234 -120.71850586 426.18115234 C-126.2075956 423.0131138 -131.69898562 419.84918943 -137.19482422 416.69287109 C-142.61094524 413.58130602 -148.01888133 410.45594219 -153.42138672 407.32080078 C-155.4445809 406.14985134 -157.47058247 404.98373771 -159.49951172 403.82275391 C-162.29352315 402.22310766 -165.07713653 400.60668801 -167.85888672 398.98583984 C-168.67921387 398.52153564 -169.49954102 398.05723145 -170.34472656 397.57885742 C-171.09963379 397.13437256 -171.85454102 396.6898877 -172.63232422 396.23193359 C-173.28378418 395.85609131 -173.93524414 395.48024902 -174.60644531 395.09301758 C-178.31329204 392.04318413 -180.22384585 389.51046064 -180.85693932 384.73349667 C-181.00585526 381.09550722 -181.02403575 377.47648152 -181.00146484 373.83544922 C-181.00688949 372.43544284 -181.01401408 371.03544218 -181.02270508 369.63545227 C-181.040901 365.84406023 -181.03388662 362.05310482 -181.02118874 358.2617054 C-181.01104159 354.28867567 -181.02045917 350.31568261 -181.0267334 346.34265137 C-181.03400483 339.67140002 -181.02443542 333.00032597 -181.00537109 326.32910156 C-180.9836032 318.62295813 -180.99065493 310.91723805 -181.01267672 303.21110487 C-181.03084517 296.58755359 -181.03338201 289.96412955 -181.02292204 283.34056139 C-181.01669501 279.38775222 -181.01582957 275.43514187 -181.02906799 271.48234558 C-181.04064707 267.76557343 -181.03256396 264.04934559 -181.00949097 260.33263206 C-181.00170349 258.32282122 -181.01354222 256.31296419 -181.02600098 254.30317688 C-180.92255751 243.2721777 -180.92255751 243.2721777 -176.48388672 238.54833984 C-174.02392578 236.71240234 -174.02392578 236.71240234 -171.24951172 235.17333984 C-170.21310547 234.58810547 -169.17669922 234.00287109 -168.10888672 233.39990234 C-166.43826172 232.48337891 -166.43826172 232.48337891 -164.73388672 231.54833984 C-163.56113508 230.89104735 -162.38927286 230.23216566 -161.21826172 229.57177734 C-158.81293984 228.21629209 -156.40442391 226.8667623 -153.99365234 225.52099609 C-148.78167191 222.60240111 -143.63481591 219.57294822 -138.48388672 216.54833984 C-126.95011115 209.8055611 -115.37833681 203.1295136 -103.80126953 196.46142578 C-99.30395833 193.86789248 -94.81175173 191.26557521 -90.31933594 188.66357422 C-87.05521504 186.77706429 -83.78575631 184.90011762 -80.51513672 183.02490234 C-76.72083912 180.84833782 -72.95158977 178.63794187 -69.20263672 176.38427734 C-67.62987262 175.45953865 -66.05696666 174.53504116 -64.48388672 173.61083984 C-63.47165039 172.98181763 -63.47165039 172.98181763 -62.43896484 172.34008789 C-57.16896636 169.28983277 -52.5128378 168.8014541 -46.48388672 169.54833984 C-43.83935547 170.43896484 -43.83935547 170.43896484 -41.67138672 171.79833984 C-40.77677734 172.33072266 -39.88216797 172.86310547 -38.96044922 173.41162109 C-38.43870117 173.73340332 -37.91695312 174.05518555 -37.37939453 174.38671875 C-34.08458106 176.40587414 -30.7544567 178.36377548 -27.41674805 180.31103516 C-25.5184292 181.41867038 -23.62743126 182.53895863 -21.74438477 183.67236328 C-20.86564697 184.18702148 -19.98690918 184.70167969 -19.08154297 185.23193359 C-18.29271729 185.70171631 -17.5038916 186.17149902 -16.69116211 186.65551758 C-14.53487045 187.71761053 -14.53487045 187.71761053 -12.2590332 187.38061523 C-11.67323486 187.10596436 -11.08743652 186.83131348 -10.48388672 186.54833984 C-9.32752166 183.07924468 -9.34026709 179.9818754 -9.34585571 176.37426758 C-9.34303443 175.63878158 -9.34021315 174.90329557 -9.33730638 174.14552212 C-9.32895514 171.67431534 -9.3276217 169.20315334 -9.32617188 166.73193359 C-9.32150416 164.96298089 -9.31636067 163.19402939 -9.31077576 161.42507935 C-9.29949162 157.61258049 -9.29105908 153.80008947 -9.28465652 149.98757935 C-9.27398755 143.96279985 -9.25374694 137.93807671 -9.23153687 131.91333008 C-9.16957133 114.7802996 -9.11555244 97.64727264 -9.08251953 80.51416016 C-9.06420042 71.05422753 -9.03530129 61.59438943 -8.99451482 52.13452625 C-8.97340408 47.12602679 -8.95798177 42.11764665 -8.95570755 37.10910034 C-8.95356716 32.40097296 -8.93776057 27.69309428 -8.91131783 22.98504257 C-8.90410079 21.25442754 -8.90203543 19.52378244 -8.9054203 17.79315567 C-8.90929524 15.43594367 -8.89492586 13.07953382 -8.87588501 10.72241211 C-8.88141471 10.0328263 -8.8869444 9.34324049 -8.89264166 8.63275814 C-8.85355491 5.84209848 -8.77599298 3.97205667 -7.16812706 1.63975525 C-4.84152879 0.13208136 -2.73812206 -0.11286725 0 0 Z M-58.49951172 270.29443359 C-59.49708496 270.88063477 -60.4946582 271.46683594 -61.52246094 272.07080078 C-62.58223145 272.70276367 -63.64200195 273.33472656 -64.73388672 273.98583984 C-65.81041504 274.62166992 -66.88694336 275.2575 -67.99609375 275.91259766 C-71.16232664 277.78512646 -74.3232341 279.6664128 -77.48388672 281.54833984 C-79.10072766 282.50335389 -80.71787353 283.45785207 -82.33544922 284.41162109 C-83.67696744 285.20656592 -85.01814621 286.00208404 -86.35888672 286.79833984 C-86.9637793 287.15597412 -87.56867188 287.5136084 -88.19189453 287.88208008 C-90.55040038 289.29558719 -92.53012158 290.5945747 -94.48388672 292.54833984 C-94.80987194 294.61971229 -94.80987194 294.61971229 -94.7902832 297.02636719 C-94.8062706 297.9542807 -94.822258 298.88219421 -94.83872986 299.83822632 C-94.84409256 300.84342316 -94.84945526 301.84862 -94.85498047 302.88427734 C-94.86400894 303.91517487 -94.87303741 304.94607239 -94.88233948 306.00820923 C-94.89686618 308.19212936 -94.9057347 310.37609326 -94.90942383 312.56005859 C-94.92131527 315.90325253 -94.97047451 319.24459855 -95.02099609 322.58740234 C-95.03046039 324.70718498 -95.03769539 326.82697898 -95.04248047 328.94677734 C-95.06201279 329.94792572 -95.0815451 330.9490741 -95.10166931 331.9805603 C-95.16567289 337.49556628 -95.16567289 337.49556628 -92.31298828 341.99462891 C-91.37938477 342.50735352 -90.44578125 343.02007812 -89.48388672 343.54833984 C-88.5613208 344.12116699 -87.63875488 344.69399414 -86.68823242 345.28417969 C-85.68880615 345.85346191 -84.68937988 346.42274414 -83.65966797 347.00927734 C-81.99194336 347.96447266 -81.99194336 347.96447266 -80.29052734 348.93896484 C-79.12592972 349.60062725 -77.96121562 350.26208468 -76.79638672 350.92333984 C-74.52117086 352.22198494 -72.24642458 353.5214531 -69.97216797 354.82177734 C-68.87469238 355.44407227 -67.7772168 356.06636719 -66.64648438 356.70751953 C-62.91212101 358.88114156 -59.28729684 361.20600989 -55.69165039 363.6015625 C-52.76851254 364.8551209 -51.49021492 364.54304149 -48.48388672 363.54833984 C-46.37265407 362.50020276 -44.29961068 361.37362085 -42.25732422 360.19677734 C-41.37483505 359.69109726 -41.37483505 359.69109726 -40.47451782 359.17520142 C-39.2304676 358.46058153 -37.98834233 357.74260137 -36.74804688 357.02148438 C-34.28060231 355.58719055 -31.80326915 354.17038696 -29.32589722 352.75332642 C-28.11138488 352.04772269 -26.90450419 351.32882014 -25.70559692 350.59701538 C-22.90834784 348.89217058 -20.26586715 347.46704715 -17.19042969 346.3203125 C-13.56454705 344.78472085 -11.8400754 343.73855783 -9.48388672 340.54833984 C-7.56987871 333.73630129 -7.73563847 326.59858842 -7.83007812 319.57958984 C-7.85880507 316.18299415 -7.74918083 312.80970299 -7.62841797 309.41552734 C-7.18569851 299.077152 -7.18569851 299.077152 -10.81860352 289.73574829 C-14.25002352 286.69881869 -18.19945835 285.01568428 -22.44049072 283.38623047 C-25.67694503 282.05912856 -28.56184141 280.22151871 -31.53076172 278.38818359 C-33.76437998 277.08610334 -35.99874814 275.78530859 -38.23388672 274.48583984 C-38.8078418 274.14818604 -39.38179687 273.81053223 -39.97314453 273.46264648 C-41.65538993 272.47329896 -43.34299445 271.49308142 -45.03076172 270.51318359 C-46.00883789 269.94204834 -46.98691406 269.37091309 -47.99462891 268.7824707 C-52.41323091 266.59180445 -54.51360586 267.93556732 -58.49951172 270.29443359 Z " fill="#323232" transform="translate(808.48388671875,-0.54833984375)"/>
<path d="M0 0 C2.13619821 1.2769129 4.2729356 2.55292414 6.41015625 3.828125 C7.50730957 4.48748047 8.60446289 5.14683594 9.73486328 5.82617188 C15.10036202 9.02893767 20.51913166 12.13780855 25.9375 15.25 C28.12253578 16.50887171 30.30743094 17.76798753 32.4921875 19.02734375 C33.57725586 19.65237793 34.66232422 20.27741211 35.78027344 20.92138672 C42.28326271 24.66819979 48.78357578 28.4196563 55.28344727 32.171875 C60.85885218 35.38986564 66.43690438 38.6031489 72.01953125 41.80859375 C77.46532734 44.93689892 82.9046713 48.07602529 88.3359375 51.22949219 C90.01423713 52.20389179 91.69367757 53.17633336 93.375 54.14550781 C95.21570622 55.21010858 97.04714032 56.2885405 98.875 57.375 C99.78894531 57.91253906 100.70289063 58.45007813 101.64453125 59.00390625 C105.8295346 62.13420763 108.65638866 64.34539216 109.52568245 69.62631226 C109.70797471 73.26778298 109.72624092 76.87940487 109.69360352 80.52539062 C109.69874585 81.92539882 109.70602951 83.32540054 109.71528625 84.72538757 C109.73376908 88.51688138 109.72088209 92.30767016 109.70119596 96.09913445 C109.684782 100.07216047 109.69362616 104.0451428 109.69871521 108.01818848 C109.70323312 114.68948599 109.68738529 121.36050284 109.65942383 128.03173828 C109.62737311 135.7378939 109.62738854 143.44354342 109.6446386 151.14973497 C109.66051811 158.57150125 109.65376102 165.99308248 109.63670158 173.4148407 C109.62983999 176.56944218 109.63085431 179.72389493 109.63824654 182.87849426 C109.64592392 186.59528936 109.63373674 190.31151047 109.60639763 194.02820778 C109.59625807 196.038003 109.60568123 198.04786725 109.61572266 200.05766296 C109.4985142 211.13699258 109.4985142 211.13699258 105.0625 215.8125 C102.69074167 217.47968953 100.46459245 218.87330711 97.9375 220.25 C96.40229576 221.11970697 94.86714288 221.98950458 93.33203125 222.859375 C92.4910791 223.32923828 91.65012695 223.79910156 90.78369141 224.28320312 C86.80069928 226.52162612 82.85062147 228.81597483 78.89697266 231.10571289 C75.56032318 233.03744422 72.22013933 234.96292754 68.87890625 236.88671875 C61.1910742 241.31377773 53.50701606 245.74736399 45.82348633 250.18188477 C40.35828707 253.33569079 34.89158972 256.48684329 29.421875 259.6328125 C27.2186336 260.90083944 25.01550765 262.16906699 22.8125 263.4375 C21.21329712 264.35813232 21.21329712 264.35813232 19.58178711 265.29736328 C11.28727062 270.08253937 3.03858291 274.94256026 -5.17480469 279.86572266 C-6.02333008 280.37151855 -6.87185547 280.87731445 -7.74609375 281.3984375 C-8.48657959 281.8423584 -9.22706543 282.2862793 -9.98999023 282.74365234 C-14.1754887 285.04077059 -18.26755713 285.51601219 -22.9375 284.8125 C-30.24403374 281.84733346 -37.04300852 277.50764888 -43.8125 273.5 C-52.81809117 268.20624911 -61.85984397 262.98124319 -70.9375 257.8125 C-80.64696649 252.28046254 -90.3242596 246.69654611 -99.96704102 241.04882812 C-105.26337571 237.94870748 -110.5702407 234.8682666 -115.89453125 231.81640625 C-116.47853699 231.48124496 -117.06254272 231.14608368 -117.66424561 230.80076599 C-120.48194335 229.18375006 -123.30117516 227.56956158 -126.12353516 225.96069336 C-145.66836856 214.74965837 -145.66836856 214.74965837 -147.51059246 209.03462601 C-148.02093672 206.37819773 -148.07306191 203.89050867 -148.08467102 201.18426514 C-148.09182632 200.03758865 -148.09898163 198.89091217 -148.10635376 197.70948792 C-148.10904266 196.4553862 -148.11173157 195.20128448 -148.11450195 193.90917969 C-148.12077018 192.57183151 -148.1274173 191.23448506 -148.13441467 189.8971405 C-148.15541456 185.50956424 -148.16581316 181.1219878 -148.17578125 176.734375 C-148.17983031 175.22143791 -148.18394728 173.708501 -148.18813133 172.19556427 C-148.20717397 165.08674129 -148.22140701 157.97792864 -148.2297433 150.86908507 C-148.23951298 142.67416985 -148.26582916 134.47952493 -148.30624419 126.28470492 C-148.33644187 119.94314816 -148.35121562 113.60166872 -148.35452431 107.26004148 C-148.35687061 103.47587911 -148.36577581 99.69200582 -148.39098549 95.90792084 C-148.41433561 92.34553539 -148.41847201 88.78362794 -148.40822411 85.22118568 C-148.40749593 83.29995748 -148.42653814 81.37875316 -148.44628906 79.45762634 C-148.40415458 72.43125032 -147.75516298 67.77266466 -143.9375 61.8125 C-141.87646484 59.94897461 -141.87646484 59.94897461 -139.6484375 58.71484375 C-138.80313477 58.23160645 -137.95783203 57.74836914 -137.08691406 57.25048828 C-136.17135742 56.75532715 -135.25580078 56.26016602 -134.3125 55.75 C-133.34538086 55.20327637 -132.37826172 54.65655273 -131.38183594 54.09326172 C-129.30898685 52.92195322 -127.23134177 51.75909869 -125.14941406 50.60400391 C-120.8781857 48.22164804 -116.65029939 45.76752711 -112.42041016 43.31274414 C-109.14379536 41.41214919 -105.8618317 39.52112507 -102.578125 37.6328125 C-96.02781111 33.86532427 -89.48222446 30.08968742 -82.9375 26.3125 C-80.77997234 25.067666 -78.62242022 23.8228744 -76.46484375 22.578125 C-75.39347168 21.96001953 -74.32209961 21.34191406 -73.21826172 20.70507812 C-69.87612144 18.77709245 -66.53378515 16.84944696 -63.19140625 14.921875 C-62.08112061 14.28137207 -60.97083496 13.64086914 -59.8269043 12.98095703 C-57.63226637 11.71542061 -55.43712725 10.4507529 -53.24145508 9.18701172 C-48.23252228 6.30206904 -43.23285681 3.40399535 -38.2578125 0.4609375 C-37.38568115 -0.05243164 -36.5135498 -0.56580078 -35.61499023 -1.09472656 C-34.00937868 -2.04118569 -32.40705334 -2.99325286 -30.80883789 -3.95214844 C-19.0952974 -10.83948049 -10.96793534 -6.7133687 0 0 Z " fill="#67A557" transform="translate(461.9375,175.1875)"/>
<path d="M0 0 C1.00160156 0.52335938 2.00320312 1.04671875 3.03515625 1.5859375 C3.61958496 1.89023682 4.20401367 2.19453613 4.80615234 2.50805664 C12.84356342 6.77204005 20.65022413 11.47025294 28.48828125 16.0859375 C35.28295738 20.082328 42.12333133 23.99682892 48.97265625 27.8984375 C51.34529139 29.25088271 53.71766829 30.60377993 56.08984375 31.95703125 C56.96825424 32.4581266 56.96825424 32.4581266 57.8644104 32.96934509 C65.01309574 37.05026998 72.14161435 41.16624395 79.26196289 45.29638672 C84.42692031 48.28764429 89.6032 51.25413612 94.81814575 54.15725708 C97.39450618 55.59194616 99.96615597 57.03498003 102.5378418 58.47802734 C103.77039747 59.16622703 105.00537663 59.850107 106.24291992 60.52929688 C119.52850154 67.82262808 119.52850154 67.82262808 123.09765625 74.9609375 C123.20385187 77.38019385 123.24986129 79.77121462 123.2515564 82.19111633 C123.25593865 82.94475454 123.2603209 83.69839275 123.26483595 84.47486848 C123.27824718 87.01360294 123.28440799 89.55230267 123.29052734 92.09106445 C123.29842642 93.9058854 123.30669525 95.72070476 123.31530762 97.53552246 C123.34154812 103.50673925 123.35683631 109.47796313 123.37109375 115.44921875 C123.37645241 117.50270276 123.38182992 119.55618673 123.3872261 121.60967064 C123.40885694 130.14949212 123.42759494 138.68931168 123.4388485 147.22915363 C123.45509603 159.47922825 123.48829105 171.72898609 123.54524934 183.97894126 C123.58390988 192.58620727 123.60347652 201.19338841 123.60876906 209.80073899 C123.61242758 214.94469382 123.62450203 220.08831095 123.6568718 225.23217201 C123.68688439 230.07084431 123.69328865 234.90897336 123.68148804 239.74771881 C123.68126674 241.52429158 123.68961836 243.30088906 123.70714188 245.07737541 C123.72975981 247.50217729 123.7215747 249.9249969 123.70565796 252.34980774 C123.71954005 253.05370473 123.73342213 253.75760172 123.74772489 254.48282892 C123.68581738 258.30756554 123.16384475 259.87813055 120.74404335 262.90548992 C118.09765625 264.9609375 118.09765625 264.9609375 115.14746094 265.45922852 C111.62867641 264.88431343 109.37159975 263.79665778 106.30078125 261.98828125 C105.19001221 261.3432666 104.07924316 260.69825195 102.93481445 260.03369141 C101.73897715 259.32213822 100.54326075 258.61038179 99.34765625 257.8984375 C98.10254811 257.1697927 96.85668621 256.44243453 95.61010742 255.71630859 C93.03834976 254.21623502 90.47062417 252.70958517 87.90576172 251.19775391 C83.19073501 248.42226296 78.44600893 245.69967164 73.70068359 242.97631836 C70.46801615 241.11917754 67.24107553 239.25245417 64.015625 237.3828125 C60.29918064 235.22901171 56.57384474 233.09287236 52.8359375 230.9765625 C51.29809668 230.09649464 49.76033024 229.2162968 48.22265625 228.3359375 C47.20619019 227.76963623 47.20619019 227.76963623 46.16918945 227.19189453 C41.20932921 224.33021329 37.92998721 221.45793037 36.09765625 215.9609375 C35.99257056 213.08175696 35.94354776 210.225785 35.93994141 207.34619141 C35.93486069 206.46620987 35.92977997 205.58622833 35.92454529 204.67958069 C35.91384177 202.76764548 35.90522152 200.85569775 35.89842606 198.94374466 C35.88664133 195.91761975 35.86718985 192.89163783 35.8453064 189.86557007 C35.78367344 181.26133984 35.72962755 172.65712443 35.69628906 164.05273438 C35.675351 158.79070985 35.64005521 153.52894626 35.59553146 148.26707077 C35.5813651 146.26165207 35.5726476 144.25618721 35.56947708 142.25072098 C35.56457167 139.44502683 35.54142338 136.64002605 35.51416016 133.83447266 C35.51716629 133.00624496 35.52017242 132.17801727 35.52326965 131.32469177 C35.45673166 126.71671707 35.06830795 123.7085084 32.09765625 119.9609375 C29.51572205 118.01169541 29.51572205 118.01169541 26.46875 116.3671875 C25.35048828 115.72910156 24.23222656 115.09101563 23.08007812 114.43359375 C21.89847723 113.77597027 20.7168364 113.11841855 19.53515625 112.4609375 C18.39240234 111.80996094 17.24964844 111.15898437 16.07226562 110.48828125 C12.76336275 108.61531736 9.43292519 106.7864076 6.09765625 104.9609375 C5.17742676 104.42726563 4.25719727 103.89359375 3.30908203 103.34375 C-1.02651677 100.94070806 -4.6204727 99.05389584 -9.72705078 100.14697266 C-14.75674256 102.02901445 -19.27023949 104.86237051 -23.83984375 107.6484375 C-24.87302734 108.26138672 -25.90621094 108.87433594 -26.97070312 109.50585938 C-29.96674074 111.29513326 -32.93461241 113.12522215 -35.90234375 114.9609375 C-36.77777832 115.47221191 -37.65321289 115.98348633 -38.55517578 116.51025391 C-39.35165527 116.9954248 -40.14813477 117.4805957 -40.96875 117.98046875 C-42.0062439 118.59498901 -42.0062439 118.59498901 -43.06469727 119.22192383 C-46.75632868 122.71541268 -48.04849876 127.23903919 -48.28088379 132.18582153 C-48.2979869 133.76978614 -48.2991543 135.35397713 -48.28710938 136.93798828 C-48.29248215 137.80880035 -48.29785492 138.67961243 -48.3033905 139.57681274 C-48.31313079 141.45647089 -48.31612405 143.3361738 -48.31303406 145.21585464 C-48.3085397 148.19204294 -48.32260054 151.16764183 -48.34143066 154.14376831 C-48.38436038 161.53083385 -48.39546838 168.9178853 -48.40765381 176.30505371 C-48.41918224 182.55774366 -48.44273539 188.81016332 -48.48234558 195.06274033 C-48.49591492 197.99263619 -48.49174606 200.92216635 -48.48693848 203.8520813 C-48.49627836 205.64895088 -48.50644699 207.44581641 -48.51757812 209.24267578 C-48.5114299 210.05526855 -48.50528168 210.86786133 -48.49894714 211.70507812 C-48.54898597 216.304903 -49.03960546 219.30655385 -51.90234375 222.9609375 C-54.16015625 224.70703125 -54.16015625 224.70703125 -57.02734375 226.3984375 C-57.57737061 226.72569824 -58.12739746 227.05295898 -58.6940918 227.39013672 C-65.70542712 231.51619069 -72.84300828 235.43248451 -79.95214844 239.38647461 C-88.59339269 244.19892178 -97.15022109 249.14438651 -105.67114258 254.16650391 C-108.40838601 255.77608269 -111.15455664 257.36944121 -113.90234375 258.9609375 C-114.86817383 259.53457031 -115.83400391 260.10820312 -116.82910156 260.69921875 C-117.78397461 261.24964844 -118.73884766 261.80007813 -119.72265625 262.3671875 C-120.99906982 263.11452148 -120.99906982 263.11452148 -122.30126953 263.87695312 C-125.46159237 265.1940015 -127.50997496 265.43868808 -130.90234375 264.9609375 C-133.05391026 263.40684414 -133.05391026 263.40684414 -134.90234375 260.9609375 C-135.29333018 258.30630035 -135.4393015 256.06659894 -135.40354919 253.4143219 C-135.40908359 252.65080774 -135.41461799 251.88729358 -135.42032009 251.10064262 C-135.43394217 248.54015344 -135.41894948 245.98063641 -135.40405273 243.42016602 C-135.40783539 241.58534328 -135.41333499 239.75052339 -135.42042542 237.91571045 C-135.43440529 232.93011234 -135.42319203 227.94485836 -135.4067142 222.9592793 C-135.39287818 217.74457344 -135.39932221 212.52988787 -135.40284729 207.31517029 C-135.4055508 198.55632981 -135.39206252 189.79762626 -135.36889648 181.03881836 C-135.34229419 170.91066183 -135.34053651 160.78273439 -135.35228485 150.6545549 C-135.36306288 140.91554174 -135.35687481 131.17661149 -135.34272957 121.4376049 C-135.33696916 117.29137145 -135.33705291 113.14519866 -135.34179497 108.99896431 C-135.34656603 104.11600076 -135.33645763 99.23328813 -135.31484032 94.35037231 C-135.30927374 92.55770145 -135.30880597 90.76500647 -135.31379318 88.97233391 C-135.31974524 86.52612269 -135.30724278 84.08067883 -135.2900238 81.63453674 C-135.29603385 80.9242221 -135.30204389 80.21390745 -135.30823606 79.48206812 C-135.25260913 75.13942339 -134.5240798 72.43563739 -131.90234375 68.9609375 C-129.98657227 67.45385742 -129.98657227 67.45385742 -127.78125 66.19140625 C-126.94287598 65.70357666 -126.10450195 65.21574707 -125.24072266 64.71313477 C-124.32468262 64.19678467 -123.40864258 63.68043457 -122.46484375 63.1484375 C-121.49981934 62.59148193 -120.53479492 62.03452637 -119.54052734 61.46069336 C-116.33482393 59.61488522 -113.11911784 57.78737496 -109.90234375 55.9609375 C-107.62195802 54.65701537 -105.34201758 53.35231423 -103.0625 52.046875 C-99.52084331 50.01971745 -95.9780869 47.99453911 -92.43188477 45.9753418 C-84.89501985 41.6829351 -77.38664781 37.34448493 -69.90234375 32.9609375 C-60.52676915 27.47012589 -51.10644595 22.06207613 -41.66482544 16.68600464 C-33.6607444 12.12800494 -25.68274731 7.53126267 -17.78540039 2.79003906 C-11.80692217 -0.77455287 -6.83916762 -2.44847724 0 0 Z " fill="#323232" transform="translate(134.90234375,166.0390625)"/>
<path d="M0 0 C3.06441273 1.58122244 6.01034597 3.28926937 8.96289062 5.07055664 C10.59979858 6.02297241 10.59979858 6.02297241 12.26977539 6.99462891 C15.59684455 8.93676545 18.90571686 10.90727732 22.21289062 12.88305664 C24.08048259 13.98353972 25.94892144 15.08258732 27.81835938 16.17993164 C31.40522628 18.28954561 34.98480211 20.41090239 38.56054688 22.53930664 C44.70517406 26.1873067 50.89416042 29.75674574 57.08789062 33.32055664 C67.52568237 39.32897877 77.94951216 45.35983572 88.33789062 51.45336914 C92.36258059 53.81234459 96.40588946 56.13481424 100.46289062 58.43774414 C102.46291328 59.58614218 104.46291411 60.73457825 106.46289062 61.88305664 C107.38618164 62.39884277 108.30947266 62.91462891 109.26074219 63.44604492 C110.11635742 63.94088379 110.97197266 64.43572266 111.85351562 64.94555664 C112.9754834 65.58170898 112.9754834 65.58170898 114.12011719 66.23071289 C117.50294475 68.90161547 119.83645148 71.68074093 120.58087158 76.03588867 C120.74124081 78.58766337 120.76738022 81.10760399 120.74414062 83.66430664 C120.74796753 84.59601685 120.75179443 85.52772705 120.7557373 86.4876709 C120.75845059 88.45102015 120.75113038 90.41440591 120.734375 92.37768555 C120.71295687 95.37378945 120.73419636 98.3674956 120.75976562 101.36352539 C120.75712225 103.27629107 120.75199706 105.18905527 120.74414062 107.10180664 C120.75223755 107.99258911 120.76033447 108.88337158 120.76867676 109.80114746 C120.68624298 115.29998079 119.97254169 118.58903686 116.21289062 122.88305664 C113.96826172 124.61132812 113.96826172 124.61132812 111.48632812 126.00415039 C110.55030762 126.53919189 109.61428711 127.0742334 108.64990234 127.62548828 C107.63943848 128.18486084 106.62897461 128.7442334 105.58789062 129.32055664 C104.52973145 129.92182373 103.47157227 130.52309082 102.38134766 131.14257812 C100.1367899 132.41781262 97.88914508 133.68762664 95.63867188 134.95239258 C91.19067143 137.45914768 86.76792243 140.00832521 82.34716797 142.56274414 C80.17754603 143.81608679 78.00599712 145.06609973 75.83251953 146.31274414 C70.48025401 149.38732961 65.16166498 152.50365177 59.89257812 155.71899414 C58.89242676 156.32541748 57.89227539 156.93184082 56.86181641 157.55664062 C54.98088926 158.70113268 53.10640259 159.85630319 51.23974609 161.02392578 C42.96647541 166.04397547 42.96647541 166.04397547 38.21289062 164.88305664 C35.56835938 162.87866211 35.56835938 162.87866211 33.21289062 159.88305664 C32.81395773 156.82450827 32.69809964 154.32950659 32.82226562 151.29321289 C32.83504511 149.60506955 32.84673017 147.91691762 32.85742188 146.22875977 C32.90311377 143.58378838 32.96304604 140.94050766 33.04443359 138.29638672 C33.74275584 128.5103034 33.74275584 128.5103034 30.62817383 119.62768555 C28.23988016 118.00008736 25.88694301 116.97863341 23.21289062 115.88305664 C21.05755655 114.64040089 18.91637294 113.37299745 16.78710938 112.08618164 C15.07407005 111.0997377 13.36100437 110.11332966 11.64526367 109.1315918 C9.88398412 108.12366772 8.12540273 107.11115873 6.3671875 106.09790039 C-2.06364523 100.40644546 -2.06364523 100.40644546 -11.63232422 99.17456055 C-16.65636473 100.82647144 -21.10391976 103.83973837 -25.59960938 106.57055664 C-27.14358398 107.48998047 -27.14358398 107.48998047 -28.71875 108.42797852 C-32.72982945 110.8204187 -36.72824706 113.23187137 -40.70654297 115.6784668 C-41.60324707 116.22680176 -42.49995117 116.77513672 -43.42382812 117.34008789 C-44.21877686 117.830979 -45.01372559 118.32187012 -45.83276367 118.82763672 C-47.78710938 119.88305664 -47.78710938 119.88305664 -49.78710938 119.88305664 C-51.02913086 124.71424144 -50.94881806 129.46593187 -50.95507812 134.41821289 C-50.95840652 135.33388535 -50.96173492 136.2495578 -50.96516418 137.19297791 C-50.97021475 139.12360127 -50.97257309 141.05423332 -50.97241211 142.98486328 C-50.97460429 145.93870327 -50.99279533 148.892173 -51.01171875 151.84594727 C-51.01465191 153.7242012 -51.01663722 155.6024569 -51.01757812 157.48071289 C-51.0283564 158.80426537 -51.0283564 158.80426537 -51.03935242 160.15455627 C-51.03473747 161.39120277 -51.03473747 161.39120277 -51.0300293 162.65283203 C-51.03145432 163.37499405 -51.03287933 164.09715607 -51.03434753 164.84120178 C-50.74257892 167.25081832 -50.05702983 168.82124954 -48.78710938 170.88305664 C-46.3572663 172.66394686 -46.3572663 172.66394686 -43.38085938 174.24633789 C-42.25808594 174.87797852 -41.1353125 175.50961914 -39.97851562 176.16040039 C-38.7480776 176.83884153 -37.517608 177.51722541 -36.28710938 178.19555664 C-35.01429508 178.90788662 -33.74216856 179.62144681 -32.47070312 180.33618164 C-29.85305142 181.80700677 -27.23297497 183.27336988 -24.61132812 184.73706055 C-18.96976311 187.8942488 -13.37970164 191.1401659 -7.78710938 194.38305664 C1.19749306 199.57685218 10.19942856 204.73958451 19.21289062 209.88305664 C28.59839197 215.23989585 37.97500791 220.61176833 47.33789062 226.00805664 C48.38589844 226.61133789 49.43390625 227.21461914 50.51367188 227.83618164 C53.41746583 229.51159187 56.31545992 231.19667325 59.21289062 232.88305664 C60.6432666 233.70241699 60.6432666 233.70241699 62.10253906 234.53833008 C63.00262695 235.06201172 63.90271484 235.58569336 64.83007812 236.12524414 C65.62784668 236.58527832 66.42561523 237.0453125 67.24755859 237.51928711 C69.21289062 238.88305664 69.21289062 238.88305664 71.21289062 241.88305664 C71.65039062 244.75805664 71.65039062 244.75805664 71.21289062 247.88305664 C66.8431793 253.48623134 60.53542126 256.16720384 54.33789062 259.38305664 C51.98262115 260.62712965 49.62836824 261.8729531 47.27539062 263.12133789 C46.38401901 263.59274956 46.38401901 263.59274956 45.47463989 264.07368469 C39.70187698 267.13425835 34.01443006 270.33601125 28.33789062 273.57055664 C26.46555458 274.63186004 24.59315939 275.69305911 22.72070312 276.75415039 C19.9403445 278.33172528 17.16185529 279.91227891 14.38769531 281.50073242 C11.66847701 283.05517948 8.94159583 284.59534027 6.21289062 286.13305664 C5.00270264 286.83241333 5.00270264 286.83241333 3.76806641 287.54589844 C-1.89004142 290.71292872 -6.44167508 292.44464034 -13.04492188 291.33618164 C-18.29416981 289.58157461 -22.94980957 286.47571302 -27.66210938 283.63305664 C-29.81070722 282.35769369 -31.96048454 281.08431608 -34.11132812 279.81274414 C-35.21395996 279.16015625 -36.3165918 278.50756836 -37.45263672 277.83520508 C-42.75093019 274.73334869 -48.10982595 271.74298628 -53.47460938 268.75805664 C-63.64748848 263.08756769 -73.77456555 257.34317924 -83.87744141 251.54907227 C-87.15611015 249.67177444 -90.43811571 247.8003647 -93.72070312 245.92993164 C-99.68233157 242.53296568 -105.6374725 239.12482842 -111.58984375 235.71166992 C-114.45805158 234.07125479 -117.33247065 232.44243507 -120.20898438 230.81665039 C-121.73534384 229.9435078 -123.26141362 229.06985846 -124.78710938 228.19555664 C-125.45645508 227.82221191 -126.12580078 227.44886719 -126.81542969 227.06420898 C-131.34266215 224.44626678 -134.43773199 221.58181142 -136.78710938 216.88305664 C-136.88925861 215.00887469 -136.92660393 213.13103728 -136.9342804 211.25408936 C-136.9414357 210.05678696 -136.948591 208.85948456 -136.95596313 207.62590027 C-136.95880353 206.29202296 -136.96151524 204.95814538 -136.96411133 203.62426758 C-136.97037521 202.22485688 -136.97702194 200.82544785 -136.98402405 199.42604065 C-137.00144199 195.61803222 -137.01198822 191.81003635 -137.02022958 188.00199795 C-137.02537865 185.62296518 -137.03145446 183.24393632 -137.03774071 180.86490631 C-137.05679604 173.42183653 -137.07102577 165.97877669 -137.07935268 158.53568721 C-137.08912375 149.94341399 -137.11543827 141.35139848 -137.15585357 132.75921607 C-137.18601641 126.118795 -137.20082175 119.47844778 -137.20413369 112.83795953 C-137.20648423 108.87163127 -137.21544462 104.90557821 -137.24059486 100.93932343 C-137.26388345 97.20625561 -137.26810595 93.47364402 -137.25783348 89.74052238 C-137.2571024 87.72108428 -137.2761887 85.70166932 -137.29589844 83.68232727 C-137.23214153 72.58534335 -137.23214153 72.58534335 -132.78710938 67.88305664 C-130.14355469 65.95532227 -130.14355469 65.95532227 -127.11523438 64.28930664 C-125.98843262 63.65887451 -124.86163086 63.02844238 -123.70068359 62.37890625 C-122.47952144 61.71356935 -121.25832928 61.04828754 -120.03710938 60.38305664 C-118.76943604 59.67839062 -117.50268283 58.97206698 -116.23681641 58.26416016 C-113.65818495 56.82267736 -111.07661881 55.38667504 -108.49316406 53.95385742 C-103.16885973 50.99054983 -97.91529907 47.90767847 -92.66210938 44.82055664 C-81.17460496 38.09707214 -69.6471852 31.44402461 -58.11328125 24.80053711 C-53.58001554 22.18718796 -49.05035728 19.56761895 -44.52099609 16.94750977 C-41.2460486 15.05652395 -37.96598691 13.17464913 -34.68554688 11.29321289 C-31.07819001 9.22056993 -27.49961704 7.11347888 -23.95117188 4.94165039 C-23.23525879 4.51287598 -22.5193457 4.08410156 -21.78173828 3.64233398 C-20.52060228 2.88565239 -19.26874165 2.11309227 -18.03076172 1.3190918 C-12.15444894 -2.1575417 -6.28583181 -2.51906802 0 0 Z " fill="#323232" transform="translate(1079.787109375,168.116943359375)"/>
<path d="M0 0 C1.02222656 -0.0515625 2.04445313 -0.103125 3.09765625 -0.15625 C12.79631455 1.501303 21.69196191 7.97477275 30.0625 12.9375 C32.17152286 14.17768236 34.28091061 15.41724438 36.390625 16.65625 C38.00807617 17.60757812 38.00807617 17.60757812 39.65820312 18.578125 C45.02744733 21.72484108 50.41958191 24.83158619 55.8125 27.9375 C57.43115967 28.87033813 57.43115967 28.87033813 59.08251953 29.82202148 C61.27332951 31.08449731 63.4642476 32.34678556 65.65527344 33.60888672 C68.91924327 35.48948106 72.18244189 37.37140546 75.4453125 39.25390625 C76.51837646 39.87297852 77.59144043 40.49205078 78.69702148 41.12988281 C80.84524277 42.36964587 82.99319518 43.60987497 85.14086914 44.85058594 C90.20515952 47.77523575 95.27235133 50.69444762 100.3508606 53.59432983 C102.74287117 54.96063872 105.13309708 56.33005286 107.52319336 57.69970703 C109.20578963 58.66221014 110.89094836 59.62022931 112.57617188 60.578125 C113.59904297 61.16464844 114.62191406 61.75117188 115.67578125 62.35546875 C116.57337158 62.86746826 117.47096191 63.37946777 118.39575195 63.90698242 C124.97154518 68.0283013 129.46941662 72.60325774 131.53777122 80.26987076 C132.42411955 85.21490209 132.22253972 90.26148171 132.2121582 95.26904297 C132.2198246 97.18009827 132.2198246 97.18009827 132.22764587 99.12976074 C132.24098355 102.60920785 132.24162036 106.08854599 132.23908257 109.56801367 C132.2380092 112.48033009 132.24290564 115.39262479 132.247688 118.30493653 C132.25876531 125.18003296 132.25923075 132.05507475 132.25317383 138.93017578 C132.24713633 146.00512413 132.25944333 153.07987349 132.2807439 160.1547879 C132.29840071 166.24505336 132.3043548 172.33525572 132.30110615 178.42554581 C132.29929948 182.05592714 132.30186747 185.68616653 132.31582069 189.31652451 C132.33081312 193.36853558 132.32139339 197.42014567 132.30981445 201.47216797 C132.31745819 202.66311066 132.32510193 203.85405334 132.33297729 205.08108521 C132.27743515 213.89366634 131.40914479 221.98094389 124.9375 228.5 C122.6171875 230.2109375 122.6171875 230.2109375 119.8125 231.875 C119.26811279 232.20040771 118.72372559 232.52581543 118.1628418 232.86108398 C116.09566003 234.08805463 114.01751534 235.29490828 111.9375 236.5 C111.03628418 237.02384277 110.13506836 237.54768555 109.20654297 238.08740234 C103.19554179 241.57705979 97.17338439 245.04704914 91.14581299 248.50799561 C85.07109663 251.99619259 79.00418029 255.49785211 72.9375 259 C66.41524118 262.76376716 59.89236227 266.52644628 53.3671875 270.28515625 C51.18225832 271.54421297 48.99736229 272.80332722 46.8125 274.0625 C45.751521 274.67367676 44.69054199 275.28485352 43.59741211 275.91455078 C38.07851822 279.0974116 32.56962098 282.29625898 27.07421875 285.51953125 C25.97029785 286.16656006 24.86637695 286.81358887 23.72900391 287.48022461 C21.6217163 288.7167783 19.51585303 289.95576341 17.41162109 291.19750977 C16.4727002 291.74850342 15.5337793 292.29949707 14.56640625 292.8671875 C13.74213135 293.35300293 12.91785645 293.83881836 12.06860352 294.33935547 C6.07331231 297.60451922 -0.44526792 297.37484281 -7.0625 296.5 C-11.66321324 294.73555064 -15.72509159 292.41228668 -19.90820312 289.82714844 C-22.300025 288.3536734 -24.71768275 286.9295015 -27.140625 285.5078125 C-32.1459006 282.55445179 -37.12902497 279.5720159 -42.0625 276.5 C-42.92133789 275.9730957 -43.78017578 275.44619141 -44.66503906 274.90332031 C-45.4897168 274.38092773 -46.31439453 273.85853516 -47.1640625 273.3203125 C-48.28675537 272.61672607 -48.28675537 272.61672607 -49.43212891 271.89892578 C-49.97015137 271.43728027 -50.50817383 270.97563477 -51.0625 270.5 C-51.0625 269.51 -51.0625 268.52 -51.0625 267.5 C-49.34740234 266.75943359 -49.34740234 266.75943359 -47.59765625 266.00390625 C-46.106717 265.35689488 -44.6158345 264.7097527 -43.125 264.0625 C-41.99288086 263.57426758 -41.99288086 263.57426758 -40.83789062 263.07617188 C-37.19221311 261.69897394 -37.19221311 261.69897394 -34.0625 259.5 C-28.84959223 258.94229132 -26.12768042 260.27363391 -21.78125 263.0703125 C-20.59787309 263.80894126 -19.41427254 264.54721183 -18.23046875 265.28515625 C-16.38950377 266.45488995 -14.55310067 267.6310743 -12.72119141 268.81494141 C-10.93927648 269.95953953 -9.14300632 271.0782412 -7.34375 272.1953125 C-6.28220703 272.87609863 -5.22066406 273.55688477 -4.12695312 274.25830078 C-1.12137181 275.80280387 -1.12137181 275.80280387 1.99511719 274.89086914 C4.84422907 273.54408932 7.57724504 272.14312508 10.296875 270.55078125 C11.31652344 269.9578125 12.33617187 269.36484375 13.38671875 268.75390625 C14.47597656 268.11324219 15.56523438 267.47257812 16.6875 266.8125 C17.84470972 266.13743361 19.00226857 265.46296538 20.16015625 264.7890625 C22.56320582 263.38984195 24.9647392 261.98807065 27.36523438 260.58447266 C32.87536812 257.36550635 38.40757617 254.18480155 43.9375 251 C46.10426979 249.75017876 48.27093615 248.5001782 50.4375 247.25 C63.4375 239.75 63.4375 239.75 66.69360352 237.87158203 C68.84004459 236.63318229 70.98636804 235.39457865 73.13256836 234.15576172 C78.23752006 231.20944644 83.34370967 228.26533542 88.45401001 225.32830811 C90.88410552 223.93150193 93.31353935 222.53354722 95.74291992 221.13549805 C97.47054415 220.14194008 99.1991312 219.15005691 100.92773438 218.15820312 C101.96349609 217.56201172 102.99925781 216.96582031 104.06640625 216.3515625 C104.98494385 215.82385254 105.90348145 215.29614258 106.84985352 214.75244141 C108.85270859 213.6656533 108.85270859 213.6656533 109.9375 212.5 C110.0814038 210.87318485 110.15705313 209.24028903 110.20579529 207.60784912 C110.23896347 206.54824982 110.27213165 205.48865051 110.30630493 204.39694214 C110.33727264 203.22406647 110.36824036 202.0511908 110.40014648 200.84277344 C110.45337318 199.00119156 110.45337318 199.00119156 110.50767517 197.12240601 C110.8192682 185.75802417 111.01099528 174.39163553 111.15949917 163.02404404 C111.26168345 155.38427832 111.40495654 147.7498542 111.65209961 140.11328125 C111.86775703 133.44831058 112.00442534 126.78709567 112.04811722 120.11869836 C112.07380804 116.59098528 112.13672813 113.07350194 112.29412651 109.5490036 C113.41369707 94.90076216 113.41369707 94.90076216 107.78315353 82.06039047 C102.51818137 77.85406799 96.74947857 75.07614507 90.52454567 72.57310104 C87.13108555 71.165501 84.14079697 69.4012009 81.015625 67.4765625 C79.07361511 66.35816133 77.13091594 65.24095612 75.1875 64.125 C72.98435608 62.85680371 70.78123165 61.58857355 68.578125 60.3203125 C67.48048828 59.68899414 66.38285156 59.05767578 65.25195312 58.40722656 C59.81099425 55.2763507 54.37448109 52.13777655 48.9375 49 C46.79297672 47.76300702 44.64844544 46.5260279 42.50390625 45.2890625 C38.54415788 43.00470699 34.58520173 40.71899094 30.62728882 38.43145752 C28.85387392 37.40654597 27.08028354 36.38193877 25.30664062 35.35742188 C23.08754227 34.07547262 20.86876984 32.79295893 18.65039062 31.50976562 C16.66243897 30.3616506 14.67091956 29.21968311 12.67529297 28.08496094 C10.89803756 27.05607364 9.1399228 25.99310838 7.40673828 24.89160156 C3.04612167 22.10137289 3.04612167 22.10137289 -1.953125 21.80078125 C-6.62345977 24.35303706 -11.2414914 26.96038099 -15.8125 29.6875 C-17.97617549 30.96419778 -20.14025166 32.24021671 -22.3046875 33.515625 C-23.42069336 34.17498047 -24.53669922 34.83433594 -25.68652344 35.51367188 C-31.0837633 38.68925356 -36.51014 41.8137656 -41.9375 44.9375 C-44.12241376 46.19658348 -46.30730949 47.45569823 -48.4921875 48.71484375 C-49.57725586 49.33987793 -50.66232422 49.96491211 -51.78027344 50.60888672 C-58.27586316 54.35143641 -64.76856042 58.09900243 -71.26147461 61.84619141 C-76.34875032 64.78182759 -81.43676104 67.71616612 -86.5274353 70.64590454 C-88.93793748 72.03328095 -91.34801376 73.42139624 -93.75805664 74.80957031 C-95.46393968 75.79173815 -97.17043986 76.77283385 -98.87695312 77.75390625 C-100.42092773 78.64335938 -100.42092773 78.64335938 -101.99609375 79.55078125 C-103.3581897 80.33449097 -103.3581897 80.33449097 -104.74780273 81.1340332 C-106.55376201 82.19977966 -108.31771129 83.33680752 -110.0625 84.5 C-110.50995077 86.83540243 -110.50995077 86.83540243 -110.42326355 89.59988403 C-110.42944954 91.2195256 -110.42944954 91.2195256 -110.4357605 92.87188721 C-110.42497467 94.06159119 -110.41418884 95.25129517 -110.40307617 96.47705078 C-110.40351425 97.72579987 -110.40395233 98.97454895 -110.40440369 100.26113892 C-110.40266847 103.69087425 -110.38759618 107.12007164 -110.36668181 110.5497117 C-110.34796141 114.13182913 -110.34616825 117.71395327 -110.34260559 121.29611206 C-110.33327144 128.08181421 -110.30863925 134.86737182 -110.27855712 141.65301025 C-110.24505561 149.37719398 -110.22853782 157.10138453 -110.21347082 164.8256228 C-110.18209079 180.71716565 -110.12930383 196.60856421 -110.0625 212.5 C-106.50795892 214.5660578 -102.95157638 216.62890661 -99.39355469 218.68896484 C-98.18668043 219.38830825 -96.98028814 220.08848417 -95.77441406 220.78955078 C-81.40509658 230.02724067 -81.40509658 230.02724067 -65.0625 232.5 C-60.24644118 230.77348835 -58.31680424 229.03599278 -56.0625 224.5 C-55.61340538 221.84585374 -55.61340538 221.84585374 -55.67050171 219.0148468 C-55.65386223 217.38073349 -55.65386223 217.38073349 -55.6368866 215.71360779 C-55.6413958 213.93591759 -55.6413958 213.93591759 -55.64599609 212.12231445 C-55.63741074 210.8665863 -55.62882538 209.61085815 -55.61997986 208.31707764 C-55.59669582 204.88136139 -55.59150977 201.44582591 -55.58932066 198.01004052 C-55.58365371 194.41411822 -55.56037763 190.81831318 -55.53872681 187.22245789 C-55.50022771 180.41453236 -55.47599248 173.60664047 -55.45760214 166.79863375 C-55.42417103 154.59570769 -55.36651482 142.3928823 -55.30361044 130.19007653 C-55.2820945 125.90632379 -55.26683902 121.62260603 -55.25677085 117.33881152 C-55.2481232 114.05569498 -55.23355422 110.77260229 -55.22021484 107.48950195 C-55.21917252 106.29830246 -55.21813019 105.10710297 -55.21705627 103.87980652 C-55.21160294 102.79885712 -55.2061496 101.71790771 -55.20053101 100.60420227 C-55.19797491 99.66124959 -55.19541882 98.71829691 -55.19278526 97.74676991 C-55.0625 95.5 -55.0625 95.5 -54.0625 93.5 C-50.91668577 93.47111486 -47.77090531 93.45324077 -44.625 93.4375 C-43.27825195 93.42493164 -43.27825195 93.42493164 -41.90429688 93.41210938 C-41.05029297 93.40888672 -40.19628906 93.40566406 -39.31640625 93.40234375 C-38.52564697 93.39710693 -37.7348877 93.39187012 -36.92016602 93.38647461 C-35.0625 93.5 -35.0625 93.5 -34.0625 94.5 C-33.95751694 96.22128477 -33.92284634 97.94688927 -33.91532898 99.6713562 C-33.90817368 100.7927449 -33.90101837 101.91413361 -33.89364624 103.06950378 C-33.89095734 104.31097672 -33.88826843 105.55244965 -33.88549805 106.83154297 C-33.87892685 108.1307518 -33.87235565 109.42996063 -33.86558533 110.76853943 C-33.84449705 115.09307612 -33.83417113 119.41761333 -33.82421875 123.7421875 C-33.82017145 125.23183333 -33.81605454 126.72147897 -33.81186867 128.21112442 C-33.79279802 135.21691417 -33.77857705 142.22269333 -33.7702567 149.22850406 C-33.76050937 157.30230074 -33.7342638 165.37582141 -33.69375581 173.44952095 C-33.66350255 179.69509888 -33.6487787 185.94059821 -33.64547569 192.18624794 C-33.6431335 195.91298469 -33.63428417 199.63942727 -33.60901451 203.36608505 C-33.58120199 207.53573385 -33.58559289 211.70477579 -33.5925293 215.87451172 C-33.57971924 217.09574234 -33.56690918 218.31697296 -33.55371094 219.57521057 C-33.61638716 229.95160274 -35.66993512 239.08393514 -43 246.77734375 C-52.1837738 254.4478821 -62.52302993 255.29832812 -74.0625 254.5 C-85.24720009 252.66875187 -94.96756135 246.51141764 -104.62939453 240.90625 C-106.88557095 239.60225881 -109.1561521 238.3288519 -111.43359375 237.0625 C-119.6422966 232.42370455 -127.2897941 227.54460934 -131.0625 218.5 C-131.82525014 214.61543422 -132.18907093 210.92770633 -132.19621277 206.97293091 C-132.20047775 205.89923248 -132.20474274 204.82553406 -132.20913696 203.71929932 C-132.20868378 202.5565448 -132.20823059 201.39379028 -132.20776367 200.19580078 C-132.21112228 198.95931793 -132.2144809 197.72283508 -132.21794128 196.44888306 C-132.22579772 193.06862487 -132.22911792 189.68842813 -132.22975707 186.30816507 C-132.2304695 184.19309001 -132.23260746 182.07802132 -132.23525429 179.96294785 C-132.24449591 172.57506656 -132.24859062 165.18720328 -132.24780273 157.79931641 C-132.24720212 150.92720316 -132.25775372 144.05516845 -132.2735464 137.18307507 C-132.28664718 131.27034772 -132.29198557 125.35764596 -132.29134732 119.44490421 C-132.2910931 115.91908367 -132.29390238 112.393333 -132.30452538 108.86752701 C-132.31605815 104.9326499 -132.311444 100.99787951 -132.30541992 97.06298828 C-132.31384918 95.3249292 -132.31384918 95.3249292 -132.32244873 93.55175781 C-132.28646567 84.29249067 -131.45931398 75.66239231 -125.0625 68.5 C-123.15476819 67.17051581 -121.19122951 65.91957723 -119.1953125 64.7265625 C-118.62275223 64.38243317 -118.05019196 64.03830383 -117.46028137 63.68374634 C-111.27792537 59.98712771 -105.01785118 56.42405047 -98.75 52.875 C-96.27379555 51.46780165 -93.7988197 50.05845344 -91.32421875 48.6484375 C-90.70819794 48.29755066 -90.09217712 47.94666382 -89.45748901 47.58514404 C-83.63509509 44.26448091 -77.8457785 40.88828182 -72.0625 37.5 C-61.02905441 31.04085633 -49.93670962 24.68796574 -38.828125 18.359375 C-34.47786291 15.88093883 -30.1338685 13.39220506 -25.796875 10.890625 C-24.83418701 10.33648926 -23.87149902 9.78235352 -22.87963867 9.21142578 C-21.09967387 8.18632507 -19.32108964 7.15882173 -17.54418945 6.12841797 C-11.66913417 2.75078762 -6.91514405 0.20565484 0 0 Z " fill="#679F62" transform="translate(593.0625,438.5)"/>
<path d="M0 0 C9.23994501 7.70315582 14.16930699 15.82111545 15.4375 27.9375 C15.53580229 29.37405399 15.62508958 30.81143974 15.6875 32.25 C11.95828729 34.73614181 9.00378318 34.58170055 4.6875 34.5625 C3.96304688 34.57861328 3.23859375 34.59472656 2.4921875 34.61132812 C-2.74448411 34.616159 -2.74448411 34.616159 -5.203125 33.03125 C-6.53240042 30.89692044 -7.28391133 28.82835483 -8.0625 26.4375 C-10.06360231 21.22550348 -12.52452896 18.13492969 -17.3125 15.25 C-29.34962046 10.5688976 -46.55276774 10.40731796 -58.5546875 15.1328125 C-61.02029233 16.43211463 -62.97681988 17.84134594 -64.75 20 C-65.64447927 23.57791706 -65.60612016 26.55038595 -65.3125 30.25 C-61.50697084 35.80028736 -51.38911752 36.48574656 -45.09765625 37.66522217 C-38.89246324 38.73275496 -32.66058824 39.63625328 -26.42822266 40.52905273 C-11.08124575 42.74962066 3.638626 45.201126 15 56.5625 C20.3269915 65.04622721 20.80017169 74.22312743 19.25390625 83.98828125 C17.05108456 92.78588589 11.97333391 98.9851065 4.5625 104.0625 C-14.11837987 115.167961 -40.4333106 114.91150683 -61.10546875 110.15625 C-72.89701007 106.82417011 -83.0865981 101.2650572 -89.3125 90.25 C-92.35799384 83.3284231 -92.69629075 76.72681231 -92.3125 69.25 C-89.02896451 67.60823226 -85.41730362 68.06545961 -81.8125 68.0625 C-81.02746094 68.05025391 -80.24242187 68.03800781 -79.43359375 68.02539062 C-77.39186274 68.02013746 -75.35057749 68.1277982 -73.3125 68.25 C-70.99268438 70.56981562 -70.77498785 71.86201239 -70 75 C-68.59201275 79.78991741 -67.11887081 82.84856226 -63.3125 86.25 C-54.20550187 90.91602376 -45.75642993 91.45479717 -35.6875 91.5 C-34.56214844 91.520625 -33.43679688 91.54125 -32.27734375 91.5625 C-23.90905194 91.6011973 -12.863366 91.18672231 -6.3125 85.25 C-3.90937708 81.22042886 -3.20422854 78.17804107 -3.75 73.5 C-5.63255373 69.58428825 -7.36496049 67.8383174 -11.3125 66.25 C-22.02215454 63.18245111 -33.07311805 61.92153487 -44.09228516 60.52319336 C-58.53105375 58.67449701 -73.06474659 56.71479956 -83.6875 45.8125 C-88.9577786 37.50167605 -90.42950947 28.26857551 -88.75 18.5 C-86.26621977 9.47559851 -79.89384883 2.58739939 -72.01953125 -2.12109375 C-52.03879554 -12.30794388 -18.59445846 -13.108737 0 0 Z " fill="#679F62" transform="translate(661.3125,536.75)"/>
<path d="M0 0 C0.66 0 1.32 0 2 0 C2.38631592 0.72775635 2.77263184 1.4555127 3.1706543 2.20532227 C9.81766172 14.71127467 16.47546918 27.20073918 23.5 39.5 C28.64836854 48.51579948 33.58330208 57.63572956 38.45800781 66.80126953 C42.69627939 74.76480434 47.02657745 82.66582661 51.5 90.5 C57.04051846 100.20468615 62.34145449 110.0267899 67.59204102 119.88989258 C71.71158513 127.62153597 75.89971931 135.30847376 80.20776367 142.93676758 C83 147.90040874 83 147.90040874 83 149 C74.57782859 148.80719275 69.16089187 145.7045461 62.0625 141.375 C60.33302104 140.34833719 58.60352726 139.32169835 56.87313843 138.29656982 C55.08719657 137.23597595 53.3053368 136.16876908 51.52392578 135.10058594 C46.05646365 131.83058438 40.52487048 128.67164603 35 125.5 C32.8356527 124.25179579 30.67159097 123.00309627 28.5078125 121.75390625 C24.14934612 119.23930564 19.78987809 116.72645339 15.4296875 114.21484375 C1.80861272 106.36685256 -11.79903684 98.4969197 -25.35742188 90.54101562 C-27.82853293 89.09999077 -30.31025536 87.67966734 -32.796875 86.265625 C-34.17719475 85.46894301 -35.55741197 84.67208334 -36.9375 83.875 C-37.55262451 83.53291504 -38.16774902 83.19083008 -38.80151367 82.83837891 C-42.75523568 80.52986486 -42.75523568 80.52986486 -43.82666016 78.21044922 C-44.07478908 75.04628127 -42.92195797 73.47819654 -41.30859375 70.765625 C-40.70072021 69.72905762 -40.09284668 68.69249023 -39.46655273 67.62451172 C-38.79696533 66.51092285 -38.12737793 65.39733398 -37.4375 64.25 C-36.7462675 63.08030388 -36.05626099 61.90988246 -35.36743164 60.73876953 C-33.94759073 58.32840366 -32.52138973 55.92198651 -31.08984375 53.51855469 C-28.579063 49.29904815 -26.11084637 45.05510838 -23.64355469 40.81005859 C-21.93822156 37.87624136 -20.2278137 34.94544591 -18.515625 32.015625 C-17.94650391 31.04173828 -17.37738281 30.06785156 -16.79101562 29.06445312 C-16.19998047 28.05318359 -15.60894531 27.04191406 -15 26 C-12.39502613 21.54213762 -9.79102903 17.08370633 -7.1875 12.625 C-6.58220459 11.58972168 -5.97690918 10.55444336 -5.35327148 9.48779297 C-4.79712158 8.53533691 -4.24097168 7.58288086 -3.66796875 6.6015625 C-3.17578857 5.75932129 -2.6836084 4.91708008 -2.17651367 4.04931641 C-1.41355634 2.72035524 -0.68530893 1.37061787 0 0 Z " fill="#3E863D" transform="translate(362,311)"/>
<path d="M0 0 C2.71656346 2.42339826 4.23567083 5.0012576 5.93359375 8.20703125 C6.49401367 9.25761719 7.05443359 10.30820313 7.63183594 11.390625 C8.22770508 12.51984375 8.82357422 13.6490625 9.4375 14.8125 C10.38183989 16.58442503 11.32618848 18.35634562 12.27145386 20.1277771 C12.91299827 21.33057335 13.55388347 22.53372144 14.19412231 23.73721313 C17.17725848 29.34429754 20.2049943 34.9263287 23.25 40.5 C23.7351709 41.38848633 24.2203418 42.27697266 24.72021484 43.19238281 C27.98304876 49.1590221 31.26423745 55.11537375 34.5625 61.0625 C35.17109863 62.16078125 35.17109863 62.16078125 35.79199219 63.28125 C36.17129883 63.96316406 36.55060547 64.64507812 36.94140625 65.34765625 C37.29090332 65.98461426 37.64040039 66.62157227 38.00048828 67.27783203 C39.07601715 69.19826633 39.07601715 69.19826633 40.90234375 71.62109375 C42 74 42 74 41.578125 76.6328125 C39.2672815 81.56337462 36.53587778 86.19977962 33.75 90.875 C32.4738097 93.03897485 31.19777225 95.20303985 29.921875 97.3671875 C28.94250977 99.02186035 28.94250977 99.02186035 27.94335938 100.70996094 C24.94037036 105.7939157 21.97117102 110.89741004 19 116 C17.84903684 117.9714 16.69799465 119.94275387 15.546875 121.9140625 C13.04872916 126.19559912 10.56096227 130.48300647 8.078125 134.7734375 C7.43746094 135.87816406 6.79679687 136.98289062 6.13671875 138.12109375 C4.90240852 140.24983168 3.67053725 142.37998614 2.44140625 144.51171875 C1.88839844 145.46433594 1.33539063 146.41695312 0.765625 147.3984375 C0.27868164 148.24067871 -0.20826172 149.08291992 -0.70996094 149.95068359 C-2 152 -2 152 -4 154 C-7.64891866 147.38812118 -7.43095222 141.18550553 -7.40405273 133.75610352 C-7.40976214 132.41830884 -7.41672861 131.08051902 -7.42485046 129.74273682 C-7.44273414 126.12489021 -7.44162262 122.50728677 -7.43590808 118.8894093 C-7.43280926 115.86266471 -7.43891636 112.83596636 -7.44494683 109.80922836 C-7.45897469 102.66566685 -7.45744529 95.52222497 -7.44604492 88.37866211 C-7.4345651 81.02302354 -7.44864081 73.66774964 -7.4754414 66.31215912 C-7.49763291 59.98325688 -7.50422804 53.65446883 -7.49836498 47.32553047 C-7.49500245 43.55150645 -7.49736329 39.77771614 -7.51461601 36.00372505 C-7.53013847 32.45356552 -7.5260718 28.90394421 -7.50731087 25.35380554 C-7.50189709 23.43979544 -7.51609872 21.52576086 -7.53100586 19.61180115 C-7.47141621 12.62147412 -6.86745188 7.89974919 -3 2 C-2.01 1.34 -1.02 0.68 0 0 Z " fill="#569D4A" transform="translate(321,235)"/>
<path d="M0 0 C3.3951178 1.61718615 6.59652424 3.49209422 9.8125 5.4375 C11.09930664 6.19256836 11.09930664 6.19256836 12.41210938 6.96289062 C18.67087958 10.67087958 18.67087958 10.67087958 21 13 C21.46232157 17.62855811 21.32397889 22.28854797 21.3125 26.9375 C21.32861328 28.23880859 21.34472656 29.54011719 21.36132812 30.88085938 C21.36197266 32.12544922 21.36261719 33.37003906 21.36328125 34.65234375 C21.36626221 35.79695068 21.36924316 36.94155762 21.37231445 38.12084961 C21 41 21 41 19.77172852 42.7121582 C15.90180102 45.52514808 11.76258782 47.85690867 7.625 50.25 C6.67882813 50.8171875 5.73265625 51.384375 4.7578125 51.96875 C3.84 52.49984375 2.9221875 53.0309375 1.9765625 53.578125 C1.14205566 54.06700195 0.30754883 54.55587891 -0.55224609 55.05957031 C-3.57711102 56.22172667 -4.94363547 56.00359581 -8 55 C-10.37182617 53.81665039 -10.37182617 53.81665039 -12.79296875 52.34765625 C-13.67017578 51.81849609 -14.54738281 51.28933594 -15.45117188 50.74414062 C-16.35416016 50.18919922 -17.25714844 49.63425781 -18.1875 49.0625 C-19.10208984 48.51142578 -20.01667969 47.96035156 -20.95898438 47.39257812 C-27.70453477 43.29546523 -27.70453477 43.29546523 -30 41 C-30.62412349 36.44039686 -30.60262507 31.84700981 -30.6875 27.25 C-30.75388672 25.97382813 -30.82027344 24.69765625 -30.88867188 23.3828125 C-31.03735495 14.19323932 -31.03735495 14.19323932 -28.19824219 10.92749023 C-25.8681489 9.36377068 -23.54714065 8.17142324 -21 7 C-19.75698597 6.22743823 -18.52398537 5.43838032 -17.3046875 4.62890625 C-16.16327317 3.93710095 -15.02007515 3.24822891 -13.875 2.5625 C-13.30652344 2.19962891 -12.73804688 1.83675781 -12.15234375 1.46289062 C-7.66836089 -1.19597903 -4.97130601 -1.4339292 0 0 Z " fill="#679F62" transform="translate(1076,286)"/>
<path d="M0 0 C4.57035944 3.76631473 7.26588921 8.11088523 8.0234375 14.00390625 C8.12979333 21.35309379 7.17353723 26.68154747 2.0390625 32.14453125 C-3.59217386 37.24707075 -8.23472926 38.81351365 -15.81640625 38.64453125 C-21.56360361 38.05991806 -26.18661039 35.40500408 -30.3125 31.390625 C-34.49603705 25.46394752 -35.9947382 20.08011494 -34.94140625 12.83984375 C-33.39068404 6.4924777 -30.68912097 2.1594797 -25.3125 -1.609375 C-16.80454141 -6.17115614 -7.85085725 -5.50826275 0 0 Z M-26.8515625 6.12109375 C-29.91218071 10.40424941 -31.00725917 14.03273457 -30.6640625 19.2890625 C-29.61847347 25.53936136 -26.32207709 28.78372949 -21.3125 32.390625 C-17.39319414 34.72102308 -13.98935574 34.62856311 -9.58984375 33.984375 C-4.19726239 32.57841897 -0.62955313 29.4526958 2.1875 24.703125 C4.27966648 19.85185687 4.3356903 15.39858783 2.6875 10.390625 C-0.12521912 5.99575138 -3.37466541 2.30985882 -8.3125 0.390625 C-15.80484542 -0.68867434 -21.73940491 0.37316022 -26.8515625 6.12109375 Z " fill="#679F62" transform="translate(775.3125,500.609375)"/>
<path d="M0 0 C13.45772091 -0.49386132 13.45772091 -0.49386132 15.96875 1.79296875 C17.49423523 5.05773828 16.69233696 7.5383152 16 11 C16 13.77996107 16.21297929 16.42492567 16.5 19.1875 C16.5928125 20.08855469 16.685625 20.98960937 16.78125 21.91796875 C16.8534375 22.60503906 16.925625 23.29210937 17 24 C15.02 24 13.04 24 11 24 C10.67 21.36 10.34 18.72 10 16 C8.35 15.67 6.7 15.34 5 15 C5 17.97 5 20.94 5 24 C3.35 24 1.7 24 0 24 C0 16.08 0 8.16 0 0 Z M5 4 C5 5.98 5 7.96 5 10 C6.98 9.67 8.96 9.34 11 9 C11 7.68 11 6.36 11 5 C8.03 4.505 8.03 4.505 5 4 Z " fill="#669F61" transform="translate(754,506)"/>
</svg>
