<?xml version="1.0" encoding="UTF-8"?>
<svg version="1.1" xmlns="http://www.w3.org/2000/svg" width="1200" height="1588">
<path d="M0 0 C-1.36849725 3.63894928 -3.00460642 6.9324108 -4.94921875 10.296875 C-5.5421875 11.32490234 -6.13515625 12.35292969 -6.74609375 13.41210938 C-7.38675781 14.51361328 -8.02742188 15.61511719 -8.6875 16.75 C-9.36203855 17.91467915 -10.03651669 19.07939329 -10.7109375 20.24414062 C-15.83614283 29.0771053 -21.08058541 37.83615946 -26.35864258 46.57861328 C-31.62041482 55.31407675 -36.72291842 64.13622321 -41.80126953 72.97924805 C-45.607706 79.60268797 -49.47562311 86.17690627 -53.43359375 92.7109375 C-55.64553265 96.38481671 -57.81095346 100.08548987 -59.97265625 103.7890625 C-60.33298447 104.40637238 -60.69331268 105.02368225 -61.06455994 105.65969849 C-61.43134354 106.28810638 -61.79812714 106.91651428 -62.17602539 107.56396484 C-73.56771218 127.08051183 -73.56771218 127.08051183 -78.9375 135.6875 C-79.33187256 136.32163818 -79.72624512 136.95577637 -80.13256836 137.60913086 C-84.00193523 143.74093828 -84.00193523 143.74093828 -87.78881836 144.72387695 C-91.23315525 145.02004855 -93.15933084 144.60155487 -96.37890625 143.41796875 C-97.375271 143.06347656 -98.37163574 142.70898438 -99.39819336 142.34375 C-100.44241455 141.9621875 -101.48663574 141.580625 -102.5625 141.1875 C-132.74463018 130.75096096 -164.09394886 133.10127472 -192.8671875 146.8125 C-219.56783275 160.06941622 -239.47148278 183.22158646 -250 211 C-259.81431296 240.7183692 -258.87100381 273.79017971 -244.97900391 302.07910156 C-240.51961127 310.78104109 -235.46881569 318.63763195 -229 326 C-228.33742187 326.80566406 -227.67484375 327.61132812 -226.9921875 328.44140625 C-208.24828003 350.53985067 -180.1403051 363.37815784 -151.6875 366.75 C-150.12635096 366.85566153 -148.56350701 366.93838396 -147 367 C-145.62134766 367.07734375 -145.62134766 367.07734375 -144.21484375 367.15625 C-112.59000046 368.11579013 -83.37221662 355.64877453 -60.4296875 334.35546875 C-40.16914378 314.71381624 -27.11366531 288.72992978 -24.58203125 260.46484375 C-24.50557373 259.65772949 -24.42911621 258.85061523 -24.3503418 258.01904297 C-24.20287949 256.4114961 -24.07215426 254.80230425 -23.96020508 253.19189453 C-23.89341553 252.4492334 -23.82662598 251.70657227 -23.7578125 250.94140625 C-23.68264404 249.94669312 -23.68264404 249.94669312 -23.60595703 248.93188477 C-22.70662347 246.06467025 -21.33865147 244.87324235 -19 243 C-15.93094254 242.50780869 -15.93094254 242.50780869 -12.25494385 242.51898193 C-11.57774001 242.51556423 -10.90053617 242.51214653 -10.202811 242.50862527 C-7.93458079 242.50203876 -5.66753515 242.52403319 -3.39941406 242.54589844 C-1.77322925 242.54702676 -0.14704239 242.54639336 1.47914124 242.54412842 C5.89423106 242.54297973 10.30888708 242.56651389 14.723876 242.59442425 C19.33764388 242.61941223 23.95142147 242.62177784 28.56524658 242.62652588 C37.30232852 242.63896332 46.0392105 242.67179531 54.77620435 242.71192384 C64.72287527 242.75661765 74.66955569 242.77862257 84.61630201 242.79870558 C105.07764632 242.84052727 125.53881057 242.91089427 146 243 C146.02985857 246.89428286 146.05113912 250.78851933 146.06523132 254.68289185 C146.07398017 256.64188995 146.08908606 258.60085643 146.10437012 260.55981445 C146.214032 296.86366816 136.55363823 332.94365855 122 366 C121.67950684 366.74266113 121.35901367 367.48532227 121.02880859 368.25048828 C113.18829791 386.32388122 102.87754122 403.30536968 91 419 C90.17029139 420.11697843 89.34086774 421.23416859 88.51171875 422.3515625 C83.75343795 428.70457038 78.70336522 434.70167764 73.296875 440.51953125 C71.33192966 442.64153855 69.43751536 444.79908911 67.5625 447 C60.59427956 454.97999952 53.06313598 462.19886699 44.765625 468.78125 C42.97211476 470.22011132 41.20882565 471.69780595 39.484375 473.21875 C22.95266725 487.72024802 3.58412693 499.14511952 -16 509 C-16.79728516 509.4026709 -17.59457031 509.8053418 -18.41601562 510.22021484 C-41.83699695 521.84796306 -67.35407823 529.28085924 -93 534 C-93.90588867 534.17644043 -94.81177734 534.35288086 -95.74511719 534.53466797 C-125.27389537 540.08299892 -159.51772014 539.52411248 -189 534 C-190.02158203 533.81727539 -191.04316406 533.63455078 -192.09570312 533.44628906 C-236.89807871 525.20319337 -280.36006603 506.52633884 -316 478 C-317.01449219 477.19691406 -318.02898437 476.39382813 -319.07421875 475.56640625 C-336.49014779 461.55107702 -353.59224883 445.82191926 -366.77001953 427.68310547 C-368.06094591 425.91660161 -369.38461622 424.17847151 -370.71484375 422.44140625 C-415.57063591 363.36631221 -434.63141684 286.91278004 -425.47216797 213.5222168 C-417.89227254 159.70001044 -396.46135678 110.05535172 -362 68 C-361.31067383 67.15405273 -361.31067383 67.15405273 -360.60742188 66.29101562 C-349.36272418 52.57529952 -336.99897142 39.91181961 -323 29 C-321.86081812 28.06288207 -320.72425903 27.12256996 -319.58984375 26.1796875 C-305.77353731 14.76565586 -290.77962383 5.44855801 -275 -3 C-274.08395996 -3.4959668 -274.08395996 -3.4959668 -273.14941406 -4.00195312 C-192.23447176 -47.46187408 -79.16347121 -49.89029895 0 0 Z " fill="#8BDA66" transform="translate(427,577)"/>
<path d="M0 0 C5.05902091 1.4155976 8.85326959 3.62436399 13.125 6.5625 C13.78097168 7.00795166 14.43694336 7.45340332 15.11279297 7.91235352 C25.94116431 15.32089343 36.10870813 23.3974758 46 32 C46.85335938 32.73992188 47.70671875 33.47984375 48.5859375 34.2421875 C58.40915515 42.92095261 67.77662807 52.06376971 75.91015625 62.359375 C77.25909237 64.06382513 78.64023315 65.74349656 80.05859375 67.390625 C121.92913704 116.25239662 143.19470028 182.78816096 143.25 246.5 C143.25101212 247.56515335 143.25101212 247.56515335 143.25204468 248.65182495 C143.18425884 294.18933694 132.63873561 339.81803619 111.03613281 380.06787109 C110.31905853 381.40503552 109.61062405 382.74685584 108.90917969 384.09228516 C100.11822734 400.94476001 89.39297622 416.58806405 77 431 C76.09121284 432.09142069 75.18374083 433.18393734 74.27734375 434.27734375 C64.68529396 445.76760295 54.45219523 456.60105289 42.671875 465.87890625 C40.87754784 467.30335018 39.11669259 468.77091051 37.390625 470.27734375 C-11.52326246 512.90427675 -78.3762647 534.20437419 -142.5625 534.25 C-143.84932175 534.25101212 -143.84932175 534.25101212 -145.16213989 534.25204468 C-212.02473465 534.16900098 -279.03095433 510.90130264 -329.43579102 466.37548828 C-330.54327476 465.40162167 -331.6592415 464.43736291 -332.78100586 463.47998047 C-338.59081155 458.4921997 -344.02276506 453.16083102 -349.4375 447.75 C-350.32759766 446.87214844 -351.21769531 445.99429687 -352.13476562 445.08984375 C-369.28589641 427.97629762 -383.05316502 407.9930727 -395 387 C-395.37318359 386.35675781 -395.74636719 385.71351563 -396.13085938 385.05078125 C-411.10549138 359.14719643 -420.0324015 330.15420515 -426 301 C-426.17015625 300.1735498 -426.3403125 299.34709961 -426.515625 298.49560547 C-437.67605362 242.32064633 -429.03641442 182.04086279 -406 130 C-405.64180176 129.18192871 -405.28360352 128.36385742 -404.91455078 127.52099609 C-396.96015916 109.511671 -386.89450643 92.68121607 -375 77 C-374.34499512 76.13084961 -374.34499512 76.13084961 -373.67675781 75.24414062 C-368.00521929 67.75558652 -362.0414721 60.64964721 -355.61328125 53.80078125 C-353.20791268 51.22283018 -350.88254683 48.59196799 -348.5625 45.9375 C-336.80208672 32.88427533 -322.78688153 22.40571474 -308.625 12.125 C-307.88813965 11.58955566 -307.1512793 11.05411133 -306.39208984 10.50244141 C-304.2753486 8.98039229 -302.14370191 7.48379553 -300 6 C-298.92250488 5.24348145 -298.92250488 5.24348145 -297.82324219 4.47167969 C-297.12618164 4.00407227 -296.42912109 3.53646484 -295.7109375 3.0546875 C-295.0926709 2.63429199 -294.4744043 2.21389648 -293.83740234 1.78076172 C-292 1 -292 1 -289.92797852 1.14038086 C-287.44450397 2.24767652 -286.79270679 3.35374515 -285.44140625 5.69921875 C-284.98024414 6.48433838 -284.51908203 7.26945801 -284.04394531 8.07836914 C-283.55506836 8.93938232 -283.06619141 9.80039551 -282.5625 10.6875 C-282.03881836 11.58525146 -281.51513672 12.48300293 -280.97558594 13.40795898 C-279.86507173 15.31242816 -278.75956181 17.21982287 -277.65869141 19.12988281 C-275.57456607 22.73614973 -273.45269204 26.31921628 -271.32788086 29.90161133 C-269.70925548 32.63121028 -268.09626677 35.36407618 -266.484375 38.09765625 C-262.6653444 44.57049658 -258.83287678 51.03535273 -255 57.5 C-250.16062704 65.66310708 -245.32580108 73.82886184 -240.5 82 C-236.33756095 89.04632651 -232.17412338 96.09206227 -228.00390625 103.13378906 C-226.63566607 105.44426827 -225.27029166 107.75636721 -223.90625 110.06933594 C-220.7644005 115.3869009 -217.59522908 120.67965289 -214.31640625 125.9140625 C-213.75381104 126.82075684 -213.19121582 127.72745117 -212.61157227 128.66162109 C-211.57178739 130.33164067 -210.51971979 131.99410465 -209.45288086 133.64697266 C-206.59453772 138.25947018 -205.26961158 141.40269647 -206 147 C-208.42341511 151.14000082 -211.93194377 153.51469601 -215.734375 156.2890625 C-239.58006649 174.2966709 -254.72581584 201.93035164 -259.05249023 231.29516602 C-262.97789157 261.75112026 -255.52402409 293.25100664 -236.65625 317.7265625 C-220.87977143 337.42361373 -201.31173005 351.6309152 -177 359 C-175.95996826 359.31541748 -175.95996826 359.31541748 -174.89892578 359.63720703 C-145.07483774 368.2117172 -113.0853515 363.16306647 -86.1027832 348.59033203 C-58.99298317 333.32474163 -40.13226504 307.90839737 -31.60205078 278.17724609 C-23.40012264 248.51593418 -27.79688756 216.96388476 -42.40966797 190.05175781 C-51.36287392 174.27196308 -63.95105354 161.13662584 -78.734375 150.70703125 C-81 149 -81 149 -82 147 C-82.42654857 141.61861476 -81.66755782 138.58005311 -78.87890625 133.9921875 C-78.54805527 133.43769928 -78.21720428 132.88321106 -77.87632751 132.31192017 C-76.78558483 130.49084782 -75.67411697 128.68339137 -74.5625 126.875 C-73.78613671 125.58626322 -73.0114256 124.29652984 -72.23828125 123.00585938 C-70.63153224 120.32649918 -69.01777417 117.65155801 -67.39892578 114.97949219 C-64.05634461 109.45022118 -60.80115665 103.87029034 -57.54510498 98.28979492 C-55.78564426 95.27662982 -54.01934234 92.26747902 -52.25390625 89.2578125 C-49.76333413 85.0098714 -47.27430866 80.76102853 -44.78688049 76.51124573 C-37.49374074 64.05102904 -30.18262984 51.60237205 -22.8125 39.1875 C-17.5302837 30.28937963 -12.27752035 21.37513072 -7.0625 12.4375 C-6.16591675 10.90162231 -6.16591675 10.90162231 -5.2512207 9.3347168 C-2.52550143 4.72195078 -2.52550143 4.72195078 0 0 Z " fill="#118DFF" transform="translate(1057,579)"/>
<path d="M0 0 C1.5792627 0.28206299 1.5792627 0.28206299 3.19042969 0.56982422 C67.10185249 12.12240668 128.07558911 45.961187 170 96 C170.41878418 96.49967285 170.83756836 96.9993457 171.26904297 97.51416016 C209.17152252 143.04262395 232.97063232 198.86724372 238 258 C238.08677002 259.01006104 238.08677002 259.01006104 238.17529297 260.04052734 C244.59264194 338.13414202 218.36264105 412.88033752 168.1015625 472.2421875 C156.85419031 485.08997629 144.65840972 497.71782639 131 508 C129.78066401 508.94716277 128.56196213 509.89514219 127.34375 510.84375 C120.49123313 516.13077045 113.50591364 521.12568627 106.1875 525.75 C105.17393433 526.39569946 105.17393433 526.39569946 104.13989258 527.05444336 C99.37324692 530 99.37324692 530 96 530 C94.64404297 528.25708008 94.64404297 528.25708008 93.2421875 525.76953125 C92.70795166 524.83633057 92.17371582 523.90312988 91.62329102 522.94165039 C90.75788696 521.39272095 90.75788696 521.39272095 89.875 519.8125 C88.61135097 517.59857356 87.34699759 515.38504903 86.08203125 513.171875 C85.40957988 511.98768023 84.73721796 510.80343466 84.06494141 509.61914062 C80.97050842 504.18116347 77.80308878 498.78588087 74.63546753 493.39031982 C73.55481759 491.54941287 72.4757114 489.70760709 71.39672852 487.86572266 C66.14237311 478.9041922 60.80818322 469.99226678 55.44897461 461.09301758 C49.50859815 451.21441776 43.70860789 441.25644627 37.91552734 431.29101562 C34.64094082 425.66503725 31.35538078 420.04549887 28.06610107 414.42810059 C27.32396322 413.16023325 26.58229113 411.89209314 25.84112549 410.62365723 C21.07015996 402.441835 21.07015996 402.441835 16.05859375 394.40625 C14.0318971 391.0527785 12.989538 388.87816236 13.26953125 384.99609375 C14.92715728 380.46643116 19.29140472 377.82840769 23 375 C47.6872568 355.53980186 62.57910055 329.4522157 67.3125 298.375 C70.60712617 268.53328987 63.50520397 237.59723695 45.0703125 213.5234375 C41.5273649 209.20505231 37.82810407 205.06648418 34 201 C33.19175781 200.09507812 33.19175781 200.09507812 32.3671875 199.171875 C12.45391242 177.75759929 -17.30231438 168.97581485 -45.515625 166.71875 C-74.05334262 165.84066638 -104.06477131 176.57634016 -125 196 C-125.71414063 196.74507812 -126.42828125 197.49015625 -127.1640625 198.2578125 C-129 200 -129 200 -131 200 C-131.24621094 200.57105469 -131.49242187 201.14210937 -131.74609375 201.73046875 C-133.20437996 204.36992137 -134.95288115 206.15823313 -137.0625 208.3125 C-157.55035399 230.77350205 -164.92944977 261.54823543 -164.13623047 291.18310547 C-162.72977017 320.26507493 -148.84566146 347.95160089 -128 368 C-123.2624042 372.28625664 -118.26391094 376.24974953 -113.2109375 380.15625 C-110.60177823 382.332086 -110.11474347 383.21950538 -109.625 386.55078125 C-110.16505291 391.51814287 -112.44879269 394.95493401 -115 399.1875 C-115.53471924 400.09822266 -116.06943848 401.00894531 -116.62036133 401.94726562 C-118.40092158 404.97251648 -120.20005988 407.98624563 -122 411 C-123.25493932 413.1204827 -124.50882665 415.2415883 -125.76171875 417.36328125 C-128.08758304 421.29812182 -130.41780306 425.23030147 -132.75405884 429.15898132 C-137.36882764 436.92023269 -141.94019785 444.70635755 -146.5 452.5 C-152.6164463 462.95198526 -158.76966164 473.38133253 -164.95629883 483.79199219 C-168.52986283 489.81127912 -172.08157922 495.84216201 -175.60546875 501.890625 C-175.98945831 502.54893311 -176.37344788 503.20724121 -176.76907349 503.88549805 C-178.62679935 507.07042344 -180.48141465 510.25707145 -182.33007812 513.44726562 C-185.6522952 519.15821683 -189.02274299 524.71758487 -193 530 C-218.76422409 522.36895415 -246.97296556 492.95211269 -264 473 C-264.84691406 472.0409375 -265.69382812 471.081875 -266.56640625 470.09375 C-315.88173965 413.77641923 -339.04067448 338.39993919 -334.78173828 264.19726562 C-331.76502011 223.88245896 -321.19744901 184.6702717 -302 149 C-301.43611572 147.93241455 -301.43611572 147.93241455 -300.86083984 146.84326172 C-294.95933377 135.69489884 -288.43356682 125.19056637 -281 115 C-280.58782227 114.43474609 -280.17564453 113.86949219 -279.75097656 113.28710938 C-265.28429019 93.63293273 -248.44461025 74.81494114 -229 60 C-227.7397896 59.00138131 -226.48076919 58.00125989 -225.22265625 57 C-187.49794764 27.22787536 -143.17409315 8.42818473 -96 0 C-94.70425049 -0.2477417 -94.70425049 -0.2477417 -93.38232422 -0.50048828 C-63.80136314 -5.99401418 -29.5207872 -5.6850619 0 0 Z " fill="#FF2943" transform="translate(643,3)"/>
<path d="M0 0 C23.79006179 21.65396271 28.59694801 54.21134116 30.16595459 84.99401855 C30.45716437 92.02966316 30.45115384 99.07254206 30.44116211 106.11303711 C30.44022552 106.97020325 30.43928894 107.82736938 30.43832397 108.71051025 C30.37533265 135.3884205 29.01118309 163.28278427 18.25366211 188.11303711 C17.86436523 189.01795898 17.47506836 189.92288086 17.07397461 190.85522461 C9.70442782 206.70215855 -3.32058119 217.75169647 -19.55883789 223.80053711 C-52.25403403 234.73397891 -93.71833338 235.30906787 -125.52368164 220.81225586 C-143.13658339 211.52545312 -153.88741436 196.9737327 -159.74633789 178.11303711 C-166.26498466 154.64054359 -167.96891667 130.87261129 -167.93383789 106.61303711 C-167.93323364 105.83200623 -167.93262939 105.05097534 -167.93200684 104.24627686 C-167.86395232 71.62077528 -166.90399171 29.30459016 -142.89868164 4.10131836 C-110.48597913 -25.84072443 -34.10367249 -29.56841421 0 0 Z M-106.93383789 33.77709961 C-121.98233913 53.17150422 -121.14379315 82.46602227 -121.05883789 105.73803711 C-121.05734741 106.74817871 -121.05585693 107.75832031 -121.05432129 108.79907227 C-121.54688831 147.1654739 -121.54688831 147.1654739 -105.68383789 180.86303711 C-97.00229042 188.89869264 -85.28846676 192.31043874 -73.74633789 193.11303711 C-72.64032227 193.19424805 -72.64032227 193.19424805 -71.51196289 193.27709961 C-58.3064757 193.76455048 -43.62454354 190.86014813 -33.40649414 182.10913086 C-15.8800159 163.86462185 -16.38700997 133.26702865 -16.4855957 109.66333008 C-16.49632599 106.61641553 -16.48562639 103.57009032 -16.47290039 100.52319336 C-16.41975967 63.83868323 -16.41975967 63.83868323 -32.64868164 32.10913086 C-37.87670505 27.1199978 -42.83169473 24.1658218 -49.74633789 22.11303711 C-50.82915039 21.7765918 -50.82915039 21.7765918 -51.93383789 21.43334961 C-70.25165282 16.79029235 -93.65432826 19.37311538 -106.93383789 33.77709961 Z " fill="#000000" transform="translate(183.746337890625,1287.886962890625)"/>
<path d="M0 0 C18.11159912 14.91034514 23.651516 37.43705642 25.9921875 59.90625 C26.6242022 67.12423505 26.65207148 74.34096795 26.640625 81.58203125 C26.64002075 82.2888504 26.6394165 82.99566956 26.63879395 83.72390747 C26.61360457 94.59081852 26.34630232 105.29592099 24.453125 116.01953125 C24.33485352 116.71997559 24.21658203 117.42041992 24.09472656 118.14208984 C21.26652516 134.13618045 15.13279902 149.66602574 1.828125 159.64453125 C-17.24036479 172.36638726 -42.37378224 172.76706977 -64.296875 168.39453125 C-76.14727049 165.79857149 -86.21822284 161.47493885 -96.546875 155.01953125 C-96.546875 181.08953125 -96.546875 207.15953125 -96.546875 234.01953125 C-110.736875 234.01953125 -124.926875 234.01953125 -139.546875 234.01953125 C-139.546875 155.47953125 -139.546875 76.93953125 -139.546875 -3.98046875 C-127.666875 -3.98046875 -115.786875 -3.98046875 -103.546875 -3.98046875 C-101.296875 11.76953125 -101.296875 11.76953125 -101.546875 19.01953125 C-100.67546875 18.30667969 -99.8040625 17.59382813 -98.90625 16.859375 C-73.32422193 -3.83213094 -30.5381303 -21.71498786 0 0 Z M-83.14828491 38.59431458 C-85.546875 40.01953125 -85.546875 40.01953125 -88.33879089 41.38165283 C-91.72038735 43.30751328 -94.03237048 45.03061025 -96.546875 48.01953125 C-98.09483681 54.12347945 -97.8331868 60.04454858 -97.62109375 66.30078125 C-97.60055396 68.08291811 -97.58490691 69.86511746 -97.57392883 71.64733887 C-97.53210681 76.31793454 -97.42423007 80.98471241 -97.30218506 85.65380859 C-97.18925775 90.4262324 -97.13933517 95.19927892 -97.08398438 99.97265625 C-96.96633075 109.3232839 -96.77882646 118.67108906 -96.546875 128.01953125 C-92.69295326 128.82669488 -88.83869459 129.63223846 -84.984375 130.4375 C-83.35532227 130.77871887 -83.35532227 130.77871887 -81.69335938 131.12683105 C-56.06749844 136.90086416 -56.06749844 136.90086416 -31.3046875 130.765625 C-22.81941163 125.06215203 -21.18072833 117.5037597 -19.16015625 107.875 C-15.70624716 86.16157152 -13.51805596 54.84872183 -26.171875 35.58203125 C-30.85269099 30.0322519 -36.10197237 27.42544783 -43.29296875 26.578125 C-57.93178617 25.86373218 -70.80561372 31.05014529 -83.14828491 38.59431458 Z " fill="#000000" transform="translate(379.546875,1347.98046875)"/>
<path d="M0 0 C15.18 0 30.36 0 46 0 C51.04849907 17.11133906 55.85684145 34.27285667 60.51382327 51.49436045 C61.44933824 54.95199004 62.3874515 58.40891478 63.32521057 61.86593628 C64.89907337 67.66932751 66.47126378 73.4731695 68.04223633 79.27734375 C70.03119397 86.62579785 72.02281141 93.97352818 74.01533413 101.32101631 C75.76180757 107.76122957 77.50716456 114.20174533 79.25229001 120.64232397 C79.79686658 122.65203446 80.34155907 124.6617135 80.88625908 126.67139053 C84.544326 140.16979821 88.19086858 153.67130527 91.80375302 167.18188262 C92.30470516 169.05455897 92.80677111 170.92693726 93.30888271 172.79930305 C101 201.6149347 101 201.6149347 101 206 C103.64 206 106.28 206 109 206 C109.09393539 205.3276683 109.18787079 204.65533661 109.28465271 203.96263123 C110.66474072 194.8849437 112.94760133 186.13038507 115.34765625 177.28515625 C115.79278083 175.62789944 116.23739687 173.97050596 116.68154907 172.31298828 C117.8844569 167.82948493 119.09432233 163.34788594 120.30544662 158.86659622 C121.58189949 154.13866453 122.85177551 149.40896703 124.12231445 144.67944336 C126.28091942 136.64735033 128.44337935 128.61630387 130.60839844 120.5859375 C134.06126973 107.77798366 137.50403607 94.96732327 140.9453125 82.15625 C142.08320154 77.92047799 143.22114578 73.68472082 144.35913086 69.44897461 C144.77513817 67.90051676 144.77513817 67.90051676 145.19954967 66.32077694 C147.10649389 59.22336723 149.01483286 52.12633363 150.92407227 45.02954102 C151.3110346 43.59111249 151.3110346 43.59111249 151.70581436 42.1236248 C152.9112002 37.64306419 154.11677978 33.16255585 155.32266235 28.68212891 C155.75376885 27.07983533 156.1848706 25.47754048 156.6159668 23.87524414 C156.79927079 23.19447343 156.98257479 22.51370272 157.17143345 21.81230259 C159.12644338 14.54473572 161.06083166 7.27188126 163 0 C178.18 0 193.36 0 209 0 C207.70683644 6.46581781 206.36412331 12.60028689 204.45996094 18.86523438 C204.08756192 20.1105863 204.08756192 20.1105863 203.70763969 21.38109684 C202.88749866 24.11995262 202.06093811 26.85682619 201.234375 29.59375 C200.64674529 31.55187068 200.05954646 33.51012071 199.4727478 35.4684906 C198.22173562 39.64065191 196.96797548 43.81197316 195.7119751 47.9826355 C193.73299937 54.55421176 191.76012922 61.12761016 189.78857422 67.70141602 C189.12277904 69.92122092 188.45697703 72.14102377 187.79116821 74.36082458 C187.46113422 75.46117979 187.13110023 76.561535 186.79106522 77.6952343 C185.78665484 81.04318156 184.7816385 84.39094638 183.77645874 87.73866272 C178.31130513 105.94264117 172.8851571 124.15800866 167.47805786 142.37930298 C166.1365812 146.89940768 164.79305725 151.41890203 163.44897461 155.93823242 C163.23256537 156.66593118 163.01615614 157.39362993 162.79318905 158.14338017 C162.36209186 159.59298297 161.93099137 161.04258479 161.49988747 162.49218559 C161.18476739 163.55179591 161.18476739 163.55179591 160.86328125 164.6328125 C160.65599585 165.32981829 160.44871044 166.02682407 160.23514366 166.74495125 C157.84762349 174.77391892 155.46485071 182.80425903 153.09062576 190.83716869 C151.49487868 196.23520933 149.89258917 201.63128896 148.28778076 207.02664185 C147.64745204 209.18399944 147.00955522 211.34208064 146.37432861 213.50094604 C145.52275489 216.39446443 144.66284791 219.28537487 143.80078125 222.17578125 C143.55813034 223.00830414 143.31547943 223.84082703 143.06547546 224.69857788 C141.35034151 230.40267571 139.91885624 234.51701641 135.05078125 238.27929688 C130.02246974 240.89068154 124.73057257 240.57283235 119.1875 240.53125 C118.05981201 240.5350769 116.93212402 240.53890381 115.77026367 240.54284668 C113.39338281 240.54556058 111.01647182 240.53823618 108.63964844 240.52148438 C105.01168927 240.500069 101.38571043 240.52130565 97.7578125 240.546875 C95.44270398 240.54423163 93.12759669 240.53910648 90.8125 240.53125 C89.73315186 240.53934692 88.65380371 240.54744385 87.54174805 240.55578613 C81.16855015 240.47684625 77.05083264 240.0321498 72 236 C69.07881175 231.41232985 67.21492051 227.15916834 65.66699219 221.91699219 C65.46353683 221.23700826 65.26008148 220.55702433 65.05046082 219.85643482 C64.37427387 217.588962 63.71066198 215.31800592 63.046875 213.046875 C62.55810776 211.39917272 62.06852077 209.75171342 61.57818604 208.10447693 C60.51824532 204.5377127 59.46379505 200.96938795 58.41357422 197.39974976 C56.72829873 191.67190709 55.03121006 185.94760827 53.33203125 180.22387695 C51.50929826 174.0821438 49.68733135 167.94018912 47.8692627 161.79707336 C43.11342024 145.72978981 38.32254093 129.67316643 33.515625 113.62109375 C33.16063683 112.4354974 32.80564865 111.24990105 32.43990326 110.02837753 C30.6593721 104.08192687 28.87846261 98.13558962 27.09729004 92.18933105 C10.71841364 37.50963699 10.71841364 37.50963699 4.0625 14.92578125 C3.84836456 14.20064016 3.63422913 13.47549908 3.41360474 12.72838402 C2.82763893 10.74293924 2.24352658 8.75696065 1.66015625 6.77075195 C1.33668213 5.6710054 1.01320801 4.57125885 0.67993164 3.43818665 C0 1 0 1 0 0 Z " fill="#000000" transform="translate(975,1274)"/>
<path d="M0 0 C-0.4205997 8.32344664 -0.975323 16.6015412 -2 24.875 C-2.1244751 25.89980469 -2.1244751 25.89980469 -2.25146484 26.9453125 C-2.87203618 31.74407235 -2.87203618 31.74407235 -4 34 C-5.27302979 33.93941406 -6.54605957 33.87882812 -7.85766602 33.81640625 C-12.70149781 33.58734016 -17.54564002 33.36548005 -22.38989258 33.14550781 C-24.4638731 33.0503872 -26.53777168 32.95345809 -28.61157227 32.85449219 C-39.93220109 32.31554556 -51.23554064 31.90797662 -62.5703125 31.890625 C-63.51141373 31.88812744 -64.45251495 31.88562988 -65.4221344 31.88305664 C-79.42934946 31.92752424 -93.49528808 33.85751953 -104 44 C-117.53934163 60.04662711 -118.01342065 84.23545178 -118.625 104.1875 C-118.64679321 104.89453064 -118.66858643 105.60156128 -118.69104004 106.33001709 C-120.71688265 150.11702349 -120.71688265 150.11702349 -104 189 C-94.68515376 198.10967341 -82.46150122 200.15207403 -69.9609375 200.16796875 C-68.97456802 200.17202225 -67.98819855 200.17607574 -66.97193909 200.18025208 C-63.77292646 200.18970793 -60.57402471 200.18964878 -57.375 200.1875 C-56.29219757 200.1882251 -55.20939514 200.1889502 -54.09378052 200.18969727 C-38.41023215 200.18853234 -22.94967461 199.7082311 -7.33544922 198.1875 C-4.20880739 197.93647962 -1.13470584 197.93043649 2 198 C2.50904763 201.97806279 3.00557427 205.95759558 3.5 209.9375 C3.64308594 211.05447266 3.78617188 212.17144531 3.93359375 213.32226562 C4.707386 219.60472177 5.16108701 225.67062284 5 232 C-18.47444252 238.00508995 -41.39809787 240.26068514 -65.5625 240.375 C-66.4443396 240.38294586 -67.3261792 240.39089172 -68.23474121 240.39907837 C-93.81760853 240.57639776 -120.53108856 236.58599175 -139.89208984 218.31860352 C-153.81938739 204.46839434 -159.53750087 184.80153283 -163 166 C-163.16516113 165.10812988 -163.33032227 164.21625977 -163.50048828 163.29736328 C-168.78102996 132.75540916 -168.89308474 97.45140402 -163 67 C-162.82307617 66.07848145 -162.64615234 65.15696289 -162.46386719 64.20751953 C-158.16869011 42.72050673 -150.95462596 21.18045387 -132.36132812 7.82275391 C-99.21106546 -14.06983285 -36.00476398 -15.33817325 0 0 Z " fill="#000000" transform="translate(961,1278)"/>
<path d="M0 0 C0.69855103 0.00149048 1.39710205 0.00298096 2.11682129 0.0045166 C23.56422891 0.08655921 48.32866964 2.26616964 64.375 18.3125 C75.5427402 31.88946056 79.55005033 47.907067 78.375 65.3125 C77.00774595 79.24140062 73.6093856 91.71735445 62.39453125 100.94140625 C53.67892047 106.76920987 43.85688042 108.47846315 33.53369141 108.42602539 C32.39120941 108.42624443 32.39120941 108.42624443 31.22564697 108.4264679 C28.72592246 108.42577518 26.22627388 108.41801299 23.7265625 108.41015625 C21.98635906 108.40828979 20.24615509 108.40686696 18.50595093 108.40586853 C13.93901097 108.40206131 9.37210311 108.39224642 4.80517578 108.38116455 C0.13965285 108.37091177 -4.52587529 108.36636264 -9.19140625 108.36132812 C-18.33595156 108.35062247 -27.4804731 108.3335677 -36.625 108.3125 C-35.86124785 111.20297337 -35.0877997 114.09025322 -34.30859375 116.9765625 C-34.09473022 117.7900415 -33.8808667 118.60352051 -33.66052246 119.44165039 C-31.61202615 126.97507673 -28.84548257 132.53117414 -22.875 137.6875 C-1.08616554 148.58191723 28.12488552 143.55717232 51.56713867 141.37988281 C52.30981491 141.31097839 53.05249115 141.24207397 53.81767273 141.17108154 C55.83397829 140.9814267 57.84963453 140.78490414 59.86523438 140.58789062 C63.06197339 140.33706135 66.17106557 140.18492034 69.375 140.3125 C70.94101258 141.87851258 70.81709581 143.62781544 71.12890625 145.79296875 C71.26103516 146.71013672 71.39316406 147.62730469 71.52929688 148.57226562 C71.66400391 149.53841797 71.79871094 150.50457031 71.9375 151.5 C72.07607422 152.44681641 72.21464844 153.39363281 72.35742188 154.36914062 C73.02098596 159.05331472 73.55842005 163.56750302 73.375 168.3125 C66.62261416 171.54305322 59.97220364 173.86137918 52.6875 175.5 C52.01928223 175.65436523 51.35106445 175.80873047 50.66259766 175.96777344 C36.89648847 178.90242145 23.02494539 179.66445691 8.99145508 179.62817383 C6.442438 179.62500614 3.89457891 179.64862565 1.34570312 179.67382812 C-14.05060608 179.73270786 -29.23704321 178.1562889 -43.625 172.3125 C-44.48351562 171.96574219 -45.34203125 171.61898438 -46.2265625 171.26171875 C-60.14990078 164.98975058 -69.64218033 153.09334153 -75.2734375 139.2109375 C-79.71075232 127.00361454 -81.75897641 114.18083554 -81.828125 101.23046875 C-81.83382507 100.37681229 -81.83952515 99.52315582 -81.84539795 98.64363098 C-81.85479683 96.84096493 -81.86136145 95.0382821 -81.86523438 93.2355957 C-81.8748379 90.54540853 -81.90586742 87.85602079 -81.9375 85.16601562 C-82.0870853 60.79172686 -78.63961013 36.15462296 -61.28515625 17.69921875 C-44.72176809 2.8383815 -21.35606678 -0.11304883 0 0 Z M-28.625 43.3125 C-34.69267603 52.3552946 -36.73180182 61.40577201 -36.6640625 72.12890625 C-36.65842285 73.2897876 -36.6527832 74.45066895 -36.64697266 75.64672852 C-36.63972168 76.52643311 -36.6324707 77.4061377 -36.625 78.3125 C-29.05332194 78.3822076 -21.48167744 78.43541623 -13.90975094 78.46793652 C-10.39325002 78.48354978 -6.8769697 78.50470765 -3.3605957 78.53881836 C0.68800905 78.57784335 4.73638439 78.59224501 8.78515625 78.60546875 C10.66679222 78.62869453 10.66679222 78.62869453 12.58644104 78.65238953 C20.17130473 78.65384517 26.00886917 78.58765432 31.6875 73.0625 C35.46487574 66.90677657 36.204463 60.37829592 35.375 53.3125 C34.12020983 48.19838224 32.67814158 43.76043509 29.125 39.8125 C13.42090853 31.24663193 -15.20465312 29.78585335 -28.625 43.3125 Z " fill="#000000" transform="translate(509.625,1338.6875)"/>
<path d="M0 0 C9.62039131 7.44040116 14.53038856 16.91172302 16.5625 28.8125 C16.64897269 30.77041805 16.68452491 32.73092424 16.68275452 34.69075012 C16.68481651 36.45541122 16.68481651 36.45541122 16.68692017 38.25572205 C16.68332489 39.53749832 16.67972961 40.8192746 16.67602539 42.13989258 C16.67574317 43.51007078 16.67590194 44.88024913 16.6764679 46.25042725 C16.67675449 49.96283598 16.67087996 53.67521232 16.66389394 57.38761353 C16.65763753 61.27001929 16.65705479 65.1524258 16.65586853 69.03483582 C16.65276196 76.38348967 16.64455766 83.73212862 16.63451904 91.08077592 C16.62333697 99.44832432 16.61784217 107.81587344 16.61282361 116.18342745 C16.60237449 133.3931284 16.58403738 150.60280882 16.5625 167.8125 C2.3725 167.8125 -11.8175 167.8125 -26.4375 167.8125 C-26.45208252 164.06777344 -26.46666504 160.32304688 -26.48168945 156.46484375 C-26.53204311 144.08750038 -26.59849017 131.7102872 -26.67321491 119.33306885 C-26.71812479 111.82931933 -26.75755044 104.32561676 -26.78393555 96.82177734 C-26.80695469 90.27920482 -26.8403962 83.73678147 -26.88620156 77.19432735 C-26.91008126 73.73213955 -26.9288443 70.27009901 -26.93511391 66.80783081 C-26.94231938 62.93682722 -26.97280002 59.06619168 -27.00512695 55.1953125 C-27.00369186 54.05523239 -27.00225677 52.91515228 -27.0007782 51.74052429 C-27.07971838 45.04934535 -27.27168173 38.52923096 -31.83034229 33.17727661 C-36.16746709 29.49424883 -42.04597308 29.64087662 -47.4375 29.875 C-65.02234499 31.65985163 -80.29204472 40.20118401 -95.3984375 48.78125 C-97.4375 49.8125 -97.4375 49.8125 -99.4375 49.8125 C-99.4375 88.7525 -99.4375 127.6925 -99.4375 167.8125 C-113.6275 167.8125 -127.8175 167.8125 -142.4375 167.8125 C-142.4375 111.7125 -142.4375 55.6125 -142.4375 -2.1875 C-130.2275 -2.1875 -118.0175 -2.1875 -105.4375 -2.1875 C-104.4475 5.4025 -103.4575 12.9925 -102.4375 20.8125 C-100.6225 19.513125 -98.8075 18.21375 -96.9375 16.875 C-70.72393576 -1.42668703 -30.35980534 -19.51377623 0 0 Z " fill="#000000" transform="translate(752.4375,1346.1875)"/>
</svg>
