<?xml version="1.0" encoding="UTF-8"?>
<svg version="1.1" xmlns="http://www.w3.org/2000/svg" width="3840" height="2160">
<path d="M0 0 C24.31438644 -0.04686223 48.62876605 -0.08205823 72.94318867 -0.10362434 C84.23452076 -0.11390705 95.52582467 -0.12790946 106.81713867 -0.15087891 C116.66645601 -0.17090529 126.51575293 -0.18373824 136.36509007 -0.18817699 C141.57311895 -0.1907688 146.78108946 -0.19679699 151.9890995 -0.21146011 C156.90644816 -0.22519069 161.82371523 -0.2291919 166.74108124 -0.22621536 C168.5311064 -0.22675869 170.32113473 -0.23064286 172.11114311 -0.23841095 C187.41030897 -0.30146135 202.73453659 0.55277992 217.75 3.6875 C218.96441772 3.93850464 218.96441772 3.93850464 220.20336914 4.19458008 C258.42234367 12.46669187 293.73849902 30.39247254 324 55 C324.79422363 55.63977783 324.79422363 55.63977783 325.60449219 56.29248047 C340.42249297 68.31388182 354.34359987 81.88173668 366 97 C366.89741094 98.08893982 367.79872765 99.17466811 368.703125 100.2578125 C381.95883371 116.24043503 393.02891018 133.8153401 403 152 C403.48178711 152.87849609 403.96357422 153.75699219 404.45996094 154.66210938 C417.10724424 177.91599527 427.26596063 202.02807909 436 227 C436.37334473 228.05864258 436.74668945 229.11728516 437.13134766 230.20800781 C465.96614246 312.90930284 474.75609856 402.51879894 417.5546875 839.25390625 C405.13369209 864.89486955 390.43828444 889.3172231 372.33300781 911.37451172 C371.46436985 912.43374094 370.60142659 913.49767396 369.74511719 914.56689453 C355.70583424 932.0694924 339.16210705 948.812228 321 962 C319.44330941 963.24456726 317.88665402 964.48918951 316.33398438 965.73876953 C308.76621284 971.76452597 300.63489355 976.77493941 292.29541016 981.65625 C290.8120253 982.52463441 289.33224662 983.39922189 287.85693359 984.28125 C263.03047435 999.09265426 235.538797 1008.86571991 207.4375 1015.3125 C205.95262085 1015.65825073 205.95262085 1015.65825073 204.43774414 1016.01098633 C183.40782456 1020.56989653 162.37901705 1021.44441381 140.93108443 1021.36679858 C137.08695972 1021.35632086 133.24285723 1021.36364101 129.39872694 1021.36853105 C122.68654148 1021.37470072 115.97443646 1021.36991022 109.26226044 1021.35761642 C99.28177369 1021.33938777 89.30133683 1021.33862038 79.32083646 1021.34124239 C62.52585177 1021.3451694 45.73090268 1021.33521598 28.93592834 1021.31719017 C12.32088545 1021.29940342 -4.2941426 1021.28788515 -20.90919495 1021.28463173 C-22.46220141 1021.2843224 -22.46220141 1021.2843224 -24.04658173 1021.28400682 C-29.30512031 1021.28299174 -34.5636589 1021.28208762 -39.8221975 1021.2812262 C-77.01168341 1021.27493478 -114.20114998 1021.25475017 -151.390625 1021.22631836 C-187.50650937 1021.19873931 -223.62238845 1021.1775011 -259.73828125 1021.16479492 C-260.85267844 1021.16440034 -261.96707564 1021.16400576 -263.11524244 1021.16359923 C-274.30707467 1021.15964347 -285.49890694 1021.15581606 -296.69073925 1021.15208265 C-319.48722651 1021.14447521 -342.28371343 1021.13601145 -365.0802002 1021.12702942 C-366.65221633 1021.12641161 -366.65221633 1021.12641161 -368.25599036 1021.12578133 C-422.43651493 1021.10441227 -476.61703054 1021.07033194 -530.79754639 1021.0333252 C-531.55930234 1021.03280498 -532.32105829 1021.03228477 -533.10589775 1021.03174879 C-548.07059875 1021.02150627 -563.03529931 1021.01069924 -578 1021 C-578 1044.76 -578 1068.52 -578 1093 C-409.7 1093 -241.4 1093 -68 1093 C-65.89218716 1396.5250492 -65.89218716 1396.5250492 -117.30957031 1449.28955078 C-140.5954426 1472.85119452 -169.29922811 1489.80009694 -199 1504 C-200.06831055 1504.51530273 -200.06831055 1504.51530273 -201.15820312 1505.04101562 C-276.30178264 1541.00211623 -363.01669441 1553.99964274 -887.59448242 1520.4387207 C-928.10309169 1505.9702478 -967.62817059 1486.42216009 -1001 1459 C-1001.53141602 1458.56864746 -1002.06283203 1458.13729492 -1002.61035156 1457.69287109 C-1016.61702057 1446.27323956 -1030.20558221 1433.53544345 -1041 1419 C-1041.67724121 1418.08879395 -1041.67724121 1418.08879395 -1042.36816406 1417.15917969 C-1063.06149758 1389.10942741 -1077.54969233 1358.66154947 -1083 1324 C-1083.16081816 1322.98718208 -1083.32163632 1321.97436417 -1083.48732775 1320.9308548 C-1084.05631976 1316.5681748 -1084.34725185 1312.24867223 -1084.55651569 1307.85656738 C-1084.59869668 1306.9833989 -1084.64087766 1306.11023042 -1084.68433686 1305.21060228 C-1085.11391247 1295.57122865 -1085.12511555 1285.94190276 -1085.0957489 1276.29492188 C-1085.09347992 1274.28883883 -1085.0916586 1272.28275524 -1085.09023982 1270.27667141 C-1085.08507888 1264.82333482 -1085.07354275 1259.37002842 -1085.06084073 1253.91670489 C-1085.04821249 1248.01190377 -1085.04156813 1242.10709525 -1085.03408813 1236.20228577 C-1085.01845537 1224.65585102 -1084.99712109 1213.10943372 -1084.97351011 1201.56301278 C-1084.95431454 1192.16870975 -1084.93684811 1182.77440497 -1084.92057228 1173.38009644 C-1084.91585171 1170.66604772 -1084.91112451 1167.95199902 -1084.90639621 1165.23795033 C-1084.90522105 1164.56303664 -1084.90404588 1163.88812296 -1084.90283511 1163.19275734 C-1084.86976329 1144.23428801 -1084.83445576 1125.2758239 -1084.7946043 1106.31736755 C-1084.79235664 1105.24737779 -1084.79235664 1105.24737779 -1084.79006358 1104.15577207 C-1084.7824656 1100.54117202 -1084.77484988 1096.92657202 -1084.76722922 1093.31197202 C-1084.76571634 1092.59423073 -1084.76420345 1091.87648943 -1084.76264472 1091.1369984 C-1084.75958513 1089.6855533 -1084.75652424 1088.23410821 -1084.75346206 1086.78266312 C-1084.70590994 1064.21595765 -1084.66639248 1041.64925033 -1084.63305664 1019.08251953 C-1084.59550668 993.66836937 -1084.55133105 968.25424231 -1084.49788028 942.84012032 C-1084.49219008 940.12355682 -1084.48652433 937.40699327 -1084.48087502 934.69042969 C-1084.47948021 934.02165326 -1084.47808541 933.35287682 -1084.47664833 932.66383444 C-1084.45584555 922.62241055 -1084.44020133 912.58098761 -1084.4272213 902.53955078 C-1084.41237354 891.10070673 -1084.39066206 879.66190022 -1084.36034616 868.2230863 C-1084.34509904 862.39885602 -1084.33284511 856.57466401 -1084.32924461 850.75041389 C-1084.27006107 767.7029247 -1071.57367241 690.02770871 -1011.125 628.8125 C-1004.35297179 622.0623626 -997.38797353 615.84895265 -989.66357422 610.21484375 C-987.99218631 608.99429397 -986.34162497 607.74897191 -984.69140625 606.5 C-945.87780064 577.53377992 -897.85269833 561.20632537 -850.5625 553.1875 C-849.4163623 552.99260986 -848.27022461 552.79771973 -847.08935547 552.59692383 C-828.79549463 549.66840892 -810.61737531 548.70332274 -792.11116028 548.73498535 C-789.88004761 548.73140527 -787.64893621 548.72695073 -785.41782683 548.72170877 C-779.34720257 548.7098956 -773.27663271 548.71021317 -767.20599973 548.71264386 C-761.31206001 548.71302266 -755.41813938 548.70399314 -749.52420733 548.69517504 C-737.47726278 548.67743131 -725.4303276 548.66851837 -713.38337135 548.66447449 C-696.91605378 548.65882588 -680.44876882 548.64011755 -663.98146602 548.61803395 C-656.28950002 548.60773592 -648.59753323 548.59806995 -640.90556622 548.58856964 C-640.13575306 548.58761813 -639.36593991 548.58666662 -638.57279908 548.58568628 C-620.28315584 548.56322678 -601.99350793 548.54695928 -583.70385742 548.53173828 C-582.90448787 548.53107073 -582.10511832 548.53040318 -581.28152545 548.5297154 C-569.12518383 548.51957157 -556.96884195 548.50975116 -544.8125 548.5 C-531.85766586 548.48960707 -518.90283183 548.47909058 -505.94799805 548.46826172 C-505.14983549 548.46759684 -504.35167294 548.46693196 -503.52932365 548.46624694 C-485.27901177 548.45101062 -467.02870391 548.43398435 -448.77839947 548.41143036 C-448.00968978 548.4104811 -447.2409801 548.40953184 -446.44897618 548.40855382 C-438.77085938 548.39903201 -431.09274305 548.38920111 -423.41462724 548.37890986 C-406.97392447 548.35694205 -390.53324167 548.34030932 -374.09252464 548.33478431 C-362.10280524 548.33067197 -350.11310852 548.31970672 -338.12340162 548.30180657 C-331.64119935 548.29234368 -325.15902731 548.2862677 -318.67681694 548.28886986 C-312.72468471 548.29120787 -306.77263395 548.2842136 -300.82051822 548.27029103 C-298.68543776 548.26687389 -296.55034867 548.26668966 -294.41526864 548.27036363 C-273.47429241 548.30283566 -252.56101344 547.13411108 -231.875 543.75 C-230.88197876 543.5904332 -230.88197876 543.5904332 -229.86889648 543.42764282 C-201.42913771 538.83118614 -173.89960976 530.68888622 -148 518 C-147.2673291 517.64325195 -146.5346582 517.28650391 -145.77978516 516.91894531 C-123.99319005 506.18522954 -104.49694846 491.77165722 -87 475 C-86.20529297 474.24614014 -86.20529297 474.24614014 -85.39453125 473.47705078 C-77.09301582 465.56744181 -69.79373941 457.23196872 -63 448 C-62.26716797 447.0097583 -62.26716797 447.0097583 -61.51953125 445.99951172 C-50.40917073 430.89413403 -40.92177311 414.99664273 -33 398 C-32.65114746 397.25395508 -32.30229492 396.50791016 -31.94287109 395.73925781 C-9.57758634 347.27277187 -0.72443368 294.88988409 -0.68115234 241.80908203 C-0.67183062 239.15561753 -0.66174267 236.50216602 -0.65071106 233.84870911 C-0.62865893 228.18455656 -0.6135147 222.52042139 -0.60334396 216.8562355 C-0.58862918 208.66722999 -0.5630586 200.47828522 -0.53501268 192.2893158 C-0.48977423 178.99660438 -0.45306577 165.70388409 -0.421875 152.41113281 C-0.39159464 139.51430715 -0.35720158 126.61750302 -0.31738281 113.72070312 C-0.31492126 112.92298123 -0.31245972 112.12525934 -0.30992357 111.30336405 C-0.29754714 107.30060264 -0.28509096 103.29784147 -0.27259517 99.29508042 C-0.1693718 66.19674961 -0.0800563 33.0983951 0 0 Z M-356.1875 1250.25 C-371.91693731 1268.17308308 -380.42538024 1291.77599309 -379.37890625 1315.65234375 C-377.50223062 1341.24925807 -366.86601121 1363.51633965 -348 1381 C-327.57406468 1398.55756153 -302.53118567 1404.63959338 -276 1403 C-251.68714254 1400.25826719 -230.70152675 1387.45283692 -215 1369 C-209.11948427 1361.40119146 -204.45149882 1352.9611136 -201 1344 C-200.63132812 1343.06542969 -200.26265625 1342.13085938 -199.8828125 1341.16796875 C-192.0303196 1318.84281559 -193.70406575 1293.26709031 -203.859375 1271.984375 C-207.4971299 1264.73924685 -211.70981083 1258.15763359 -217 1252 C-217.50660156 1251.3503125 -218.01320313 1250.700625 -218.53515625 1250.03125 C-231.52897123 1233.94062899 -252.2517483 1224.13779895 -272.2734375 1220.38671875 C-304.60903018 1217.03113838 -333.55352363 1226.51360773 -356.1875 1250.25 Z " fill="#FFD242" transform="translate(2494,559)"/>
<path d="M0 0 C4.44079712 0.00008073 8.8814899 -0.00678904 13.32226562 -0.02050781 C42.36539892 -0.10872038 71.27802766 0.39297309 100.26928711 2.18530273 C101.50240631 2.26100494 102.73552551 2.33670715 104.00601196 2.41470337 C110.82965596 2.84720485 117.64381678 3.35970801 124.45678711 3.93530273 C125.44959686 4.01767181 126.44240662 4.10004089 127.46530151 4.18490601 C174.52850373 8.13002848 221.38268226 14.89880155 267.26928711 26.18530273 C268.47601074 26.47985352 269.68273438 26.7744043 270.92602539 27.07788086 C309.84824429 36.69548585 347.4219096 50.21110693 383.26928711 68.18530273 C384.07333984 68.58604004 384.87739258 68.98677734 385.70581055 69.3996582 C444.75469837 99.02692996 494.27600245 147.04919754 516.26928711 210.18530273 C523.65834362 233.22906221 525.43587781 256.38513793 525.36503601 280.44169617 C525.36277054 282.48441123 525.36094784 284.52712682 525.35952693 286.56984264 C525.35433517 292.15687106 525.34278312 297.74387065 525.33012784 303.33088648 C525.3175562 309.36733482 525.31086877 315.4037902 525.30337524 321.44024658 C525.28770305 333.25901989 525.26637778 345.07777772 525.24279722 356.89653727 C525.22363573 366.51127677 525.206161 376.12601795 525.18985939 385.74076271 C525.18513907 388.51397621 525.18041188 391.28718969 525.17568332 394.06040317 C525.17392057 395.09473552 525.17392057 395.09473552 525.17212222 396.14996348 C525.13902226 415.5360329 525.10369724 434.92209724 525.06389141 454.30815411 C525.06239297 455.03842177 525.06089453 455.76868943 525.05935069 456.52108641 C525.05175223 460.22188366 525.04413656 463.92268087 525.03651633 467.62347808 C525.034247 468.72584228 525.034247 468.72584228 525.03193183 469.85047646 C525.02887225 471.33664398 525.02581136 472.8228115 525.02274917 474.30897902 C524.97521876 497.40487041 524.93569752 520.50076363 524.90234375 543.59667969 C524.864807 569.58391571 524.82063235 595.57112908 524.76716739 621.55833751 C524.76147694 624.33563756 524.75581119 627.11293767 524.75016212 629.89023781 C524.74876732 630.57400609 524.74737251 631.25777438 524.74593544 631.96226292 C524.72374428 642.91449244 524.70774679 653.86672239 524.69395504 664.81896534 C524.67988535 675.85077131 524.65822182 686.88254642 524.62963327 697.91432472 C524.61436852 703.87800183 524.60212654 709.84164137 524.59853172 715.80533791 C524.56620617 762.56841258 524.56620617 762.56841258 522.26928711 783.18530273 C522.1897792 783.9024965 522.11027129 784.61969027 522.02835405 785.35861719 C521.610898 789.02587169 521.11166711 792.66724472 520.51928711 796.31030273 C520.35082275 797.36757568 520.1823584 798.42484863 520.00878906 799.51416016 C515.66857967 825.52255081 507.80299371 850.49020483 496.26928711 874.18530273 C495.72401367 875.30678711 495.72401367 875.30678711 495.16772461 876.45092773 C489.79073456 887.35964135 483.47601084 897.39627485 476.26928711 907.18530273 C475.82858887 907.78439453 475.38789063 908.38348633 474.93383789 909.00073242 C456.01111997 934.44150928 432.44780666 954.52841378 405.40454102 970.89086914 C403.56178603 972.00798404 401.73254186 973.14733025 399.90600586 974.29077148 C352.37913424 1002.99629171 292.9218327 1015.53369541 237.9559021 1015.45704651 C235.76292576 1015.46134318 233.56995099 1015.46650976 231.37697852 1015.47246116 C225.40252175 1015.48621438 219.42811619 1015.48782002 213.45364594 1015.48731792 C206.98989904 1015.48896496 200.52617399 1015.50211046 194.06243896 1015.51385498 C182.87506659 1015.53299887 171.6877028 1015.54446924 160.50031662 1015.55139351 C148.75995314 1015.55871858 137.0196075 1015.57060239 125.27925491 1015.5883007 C124.5466526 1015.58940445 123.81405028 1015.59050819 123.0592479 1015.59164538 C119.3375836 1015.59728247 115.61591945 1015.60301016 111.89425536 1015.60877942 C85.567613 1015.64949429 59.24096671 1015.6818268 32.91430664 1015.70849609 C31.32470586 1015.71010934 29.73510509 1015.71172277 28.14550431 1015.7133364 C27.35792706 1015.71413555 26.5703498 1015.7149347 25.75890657 1015.71575806 C21.77489929 1015.71980132 17.79089203 1015.72384969 13.80688477 1015.72790527 C12.62203943 1015.72911007 12.62203943 1015.72911007 11.41325782 1015.7303392 C-6.92233249 1015.749028 -25.25791948 1015.77030044 -43.59350586 1015.79248047 C-44.37876802 1015.79342841 -45.16403019 1015.79437635 -45.97308818 1015.79535301 C-63.92748213 1015.81704871 -81.88187412 1015.83991443 -99.83626366 1015.86501217 C-100.59246753 1015.86606802 -101.3486714 1015.86712387 -102.12779055 1015.86821172 C-108.93324884 1015.8777235 -115.73870706 1015.88727969 -122.54416494 1015.89707875 C-139.46760153 1015.92144215 -156.39103352 1015.94297924 -173.31448179 1015.95735045 C-185.1117455 1015.96737731 -196.9090015 1015.98061265 -208.70625813 1015.99699754 C-215.08502766 1016.00571494 -221.46378853 1016.01284385 -227.84256363 1016.01563835 C-233.69909612 1016.01821898 -239.55560581 1016.02536847 -245.41212921 1016.0359106 C-247.5136055 1016.03891188 -249.61508492 1016.04031679 -251.7165633 1016.03982229 C-271.36196746 1016.03682859 -291.12764936 1016.23034837 -310.66821289 1018.43530273 C-311.82240723 1018.56388672 -312.97660156 1018.6924707 -314.16577148 1018.82495117 C-381.41962192 1026.75872511 -447.94994622 1055.04870652 -490.73071289 1109.18530273 C-491.60328492 1110.25653331 -492.47702461 1111.32681361 -493.35180664 1112.39624023 C-514.33994682 1138.2693569 -528.67857341 1167.93516415 -539.73071289 1199.18530273 C-540.01688477 1199.99161133 -540.30305664 1200.79791992 -540.59790039 1201.62866211 C-547.36240652 1221.00127 -551.85661428 1241.31374325 -555.04321289 1261.56030273 C-555.19032715 1262.48270752 -555.33744141 1263.4051123 -555.48901367 1264.35546875 C-558.45014748 1284.59334641 -559.03266457 1304.90792228 -559.04956055 1325.32788086 C-559.0588857 1327.95208028 -559.06905808 1330.5762768 -559.08000183 1333.20046997 C-559.1020251 1338.7952878 -559.11718622 1344.39008812 -559.12736893 1349.98493958 C-559.1421009 1358.07364609 -559.16767566 1366.1622914 -559.19570021 1374.25096148 C-559.24090833 1387.38172812 -559.27762898 1400.51250371 -559.30883789 1413.64331055 C-559.33913092 1426.38095667 -559.37352956 1439.11858106 -559.41333008 1451.85620117 C-559.41579163 1452.64443663 -559.41825318 1453.43267209 -559.42078932 1454.24479347 C-559.433166 1458.20006141 -559.44562213 1462.15532909 -559.45811772 1466.11059666 C-559.56129543 1498.80213576 -559.6506256 1531.49369877 -559.73071289 1564.18530273 C-584.70647867 1564.2791752 -609.68221762 1564.34949061 -634.65812492 1564.39255142 C-646.25757659 1564.41308594 -657.85691799 1564.44103007 -669.45629883 1564.48706055 C-679.57852865 1564.52720965 -689.70067852 1564.55280153 -699.82298577 1564.56165671 C-705.17160017 1564.56682444 -710.51998607 1564.57877506 -715.86852646 1564.60822296 C-759.36061978 1564.83840274 -759.36061978 1564.83840274 -780.73071289 1560.18530273 C-781.44750717 1560.03088935 -782.16430145 1559.87647596 -782.90281677 1559.71738338 C-786.51718029 1558.92199181 -790.0617129 1558.00060467 -793.60571289 1556.93530273 C-794.62342773 1556.63938232 -795.64114258 1556.34346191 -796.68969727 1556.03857422 C-806.64084093 1553.06208832 -816.22439732 1549.35348784 -825.73071289 1545.18530273 C-826.45129883 1544.87512207 -827.17188477 1544.56494141 -827.91430664 1544.24536133 C-845.84138955 1536.47010588 -862.3062891 1526.13359745 -877.73071289 1514.18530273 C-878.62918945 1513.49952148 -879.52766602 1512.81374023 -880.45336914 1512.10717773 C-899.13922594 1497.53753979 -916.67243279 1480.24777194 -930.73071289 1461.18530273 C-932.35568015 1459.14361001 -933.98068056 1457.10194367 -935.60571289 1455.06030273 C-988.8810893 1386.25159816 -1012.40532067 1296.26176701 -1036.29321289 1076.81030273 C-1036.31405945 1075.91611633 -1036.33490601 1075.02192993 -1036.35638428 1074.10064697 C-1036.67093246 1060.4592047 -1036.94269489 1046.83035737 -1036.73071289 1033.18530273 C-1036.70388428 1031.2154541 -1036.70388428 1031.2154541 -1036.67651367 1029.20581055 C-1035.69600706 961.80025675 -1029.24228012 894.85809662 -1013.73071289 829.18530273 C-1013.49768463 828.19747803 -1013.49768463 828.19747803 -1013.25994873 827.18969727 C-1005.77228415 795.66058528 -995.18149623 764.6673211 -981.73071289 735.18530273 C-981.26342773 734.15195801 -980.79614258 733.11861328 -980.31469727 732.05395508 C-960.00242213 687.45078259 -930.35073181 642.24630303 -891.50805664 611.41186523 C-889.67763615 609.94443952 -887.8766413 608.43942203 -886.10961914 606.89624023 C-839.36240429 566.18306305 -773.40730068 542.85269824 -711.65043259 543.07787228 C-710.38212481 543.07840681 -709.11381703 543.07894134 -707.80707568 543.07949206 C-704.30592935 543.08110911 -700.80482183 543.08900447 -697.30368767 543.09797575 C-693.4875478 543.10662073 -689.67140281 543.10932494 -685.85525537 543.11279732 C-679.17360102 543.11968818 -672.49196095 543.13033696 -665.81031609 543.14347267 C-655.87502003 543.16298772 -645.93972188 543.17665354 -636.0044148 543.18913445 C-619.29006317 543.2102963 -602.57572198 543.2361816 -585.86138153 543.2647686 C-569.31457559 543.29305359 -552.76776853 543.31923324 -536.2209549 543.3426075 C-535.19172411 543.34406258 -534.16249333 543.34551767 -533.10207374 543.34701685 C-527.87502791 543.35439571 -522.64798204 543.36173701 -517.42093614 543.36906386 C-480.40781473 543.42101338 -443.39470188 543.47767367 -406.3815918 543.53710938 C-370.42619149 543.59483582 -334.47078891 543.65042531 -298.51538086 543.703125 C-297.40687563 543.70475058 -296.2983704 543.70637616 -295.15627411 543.70805101 C-284.02410346 543.72437357 -272.89193275 543.74065272 -261.75976199 543.75690007 C-239.08269984 543.78999811 -216.40563812 543.82338588 -193.72857666 543.85694885 C-192.68594587 543.85849163 -191.64331508 543.86003441 -190.56908942 543.86162394 C-136.62910822 543.94146456 -82.68913384 544.02560635 -28.74916077 544.11073303 C-27.99044374 544.11193039 -27.23172671 544.11312775 -26.45001825 544.11436139 C-11.54358295 544.13789352 3.36285205 544.16161634 18.26928711 544.18530273 C18.26928711 520.42530273 18.26928711 496.66530273 18.26928711 472.18530273 C-150.03071289 472.18530273 -318.33071289 472.18530273 -491.73071289 472.18530273 C-493.1698953 203.05819142 -493.1698953 203.05819142 -486.54321289 184.56030273 C-486.24060547 183.69115234 -485.93799805 182.82200195 -485.6262207 181.92651367 C-478.82497832 162.8872118 -468.98999025 145.50713435 -455.73071289 130.18530273 C-455.08231445 129.42733398 -454.43391602 128.66936523 -453.76586914 127.88842773 C-442.81447462 115.40750884 -431.1200808 104.00677081 -417.73071289 94.18530273 C-416.77672607 93.47277344 -416.77672607 93.47277344 -415.8034668 92.74584961 C-405.07131478 84.75398954 -393.8380526 77.9436171 -382.1184082 71.50024414 C-380.0507862 70.36157214 -377.99468796 69.20542194 -375.94165039 68.04077148 C-305.32815858 28.90846395 -220.06906343 14.97063235 -70.55917358 1.33346558 C-68.73623405 1.2379748 -66.91347677 1.13890397 -65.0909729 1.03543091 C-43.41642344 -0.17741172 -21.70050787 -0.00203252 0 0 Z M-340.83618164 190.94702148 C-359.56149508 213.06991757 -365.35665444 237.73997418 -363.73071289 266.18530273 C-362.56469877 276.12161446 -359.37136949 285.34075721 -354.73071289 294.18530273 C-354.10422852 295.50014648 -354.10422852 295.50014648 -353.46508789 296.84155273 C-342.93895532 317.89381787 -323.0861048 333.51784037 -300.98852539 340.96655273 C-290.53396724 344.15758132 -278.65846274 346.14447827 -267.73071289 345.18530273 C-266.61954102 345.09249023 -265.50836914 344.99967773 -264.36352539 344.90405273 C-244.66593174 342.77458315 -226.51600157 335.61768918 -211.73071289 322.18530273 C-210.39266602 320.98647461 -210.39266602 320.98647461 -209.02758789 319.76342773 C-192.02671522 303.71232448 -181.40210557 281.69704265 -180.52758789 258.12670898 C-180.05459022 231.84839535 -188.03736739 208.12555269 -206.28979492 188.63500977 C-223.5485953 171.27093713 -247.36577433 161.15765873 -271.85571289 160.99780273 C-298.2395486 161.33100847 -322.59919535 171.78858747 -340.83618164 190.94702148 Z " fill="#3672A4" transform="translate(1901.730712890625,29.814697265625)"/>
</svg>
