<?xml version="1.0" encoding="UTF-8"?>
<svg version="1.1" xmlns="http://www.w3.org/2000/svg" width="1150" height="1024">
<path d="M0 0 C1.12890656 0.00514618 2.25781311 0.01029236 3.42092896 0.01559448 C20.0495334 0.11839587 35.15104064 1.1056159 50.9375 6.6875 C52.67305935 7.23886433 54.4100531 7.78573346 56.1484375 8.328125 C89.56660551 19.07103835 120.52195571 37.35888607 148.9375 57.6875 C149.68209473 58.21956055 150.42668945 58.75162109 151.19384766 59.29980469 C162.13961739 67.15935263 172.70600761 75.38644642 183.01220703 84.06640625 C184.82450461 85.59235805 186.64357809 87.10977303 188.46484375 88.625 C194.87751185 93.98062458 201.09465268 99.51304225 207.22265625 105.19140625 C209.51179332 107.29609486 211.8297784 109.3481867 214.1875 111.375 C217.71037624 114.40614144 220.90640869 117.69141467 224.078125 121.0859375 C226.13075821 122.8539619 227.22783332 123.56577669 229.9375 123.6875 C231.90015401 122.5571615 231.90015401 122.5571615 233.6875 120.75 C234.38359375 120.10160156 235.0796875 119.45320313 235.796875 118.78515625 C238.53831957 116.09874068 241.24968189 113.38468528 243.9453125 110.65234375 C246.47332616 108.15902831 249.12470281 105.84126425 251.81640625 103.52734375 C254.16241058 101.49241181 256.4548645 99.40459033 258.75 97.3125 C263.01360017 93.46943702 267.38302273 89.79427266 271.84765625 86.1875 C274.09710665 84.36746428 276.33223792 82.53531118 278.55859375 80.6875 C301.36112042 61.83101178 326.00603783 44.94203386 351.9375 30.6875 C352.74687012 30.23568359 353.55624023 29.78386719 354.39013672 29.31835938 C374.44977457 18.16761802 395.68000457 9.38187757 417.9375 3.6875 C419.32654541 3.28797119 419.32654541 3.28797119 420.74365234 2.88037109 C431.66270147 0.07433053 442.58184639 0.16382261 453.79443359 0.18652344 C457.1672146 0.18749416 460.53770275 0.14578818 463.91015625 0.1015625 C480.22183567 0.01082884 494.91952654 2.02145663 509.6875 9.375 C510.72668579 9.88353516 510.72668579 9.88353516 511.78686523 10.40234375 C528.94624622 19.08327243 545.10616123 33.07151338 554.9375 49.6875 C555.576875 50.74066406 556.21625 51.79382812 556.875 52.87890625 C569.61031407 74.23579452 577.04915422 97.16931969 580.9375 121.6875 C581.16179687 123.03521484 581.16179687 123.03521484 581.390625 124.41015625 C586.93203711 159.13952355 585.24077252 195.88133758 580.9375 230.6875 C580.81728485 231.68514374 580.81728485 231.68514374 580.69464111 232.70294189 C577.15883207 261.97887686 571.41183877 291.16298265 563.9375 319.6875 C564.824375 319.77257812 565.71125 319.85765625 566.625 319.9453125 C572.56358477 320.803438 578.22892948 322.7683342 583.9375 324.5625 C584.56598846 324.75935394 585.19447693 324.95620789 585.8420105 325.1590271 C633.71428355 340.18941847 681.33346662 359.26724729 722.9375 387.6875 C723.8646582 388.31736816 723.8646582 388.31736816 724.81054688 388.95996094 C733.65653032 395.00676179 741.89256687 401.61666468 749.9375 408.6875 C750.82308594 409.4609375 751.70867187 410.234375 752.62109375 411.03125 C778.51133866 433.97299588 801.76626312 465.23158274 804.15869141 500.99389648 C804.65232922 515.95952455 804.52400869 530.35112137 799.9375 544.6875 C799.63199219 545.68015869 799.63199219 545.68015869 799.3203125 546.69287109 C792.3061094 568.9315752 778.88549529 587.03471149 762.9375 603.6875 C762.46586426 604.18636719 761.99422852 604.68523438 761.50830078 605.19921875 C754.44174154 612.64626662 746.94910785 619.18224731 738.73632812 625.33740234 C736.96522157 626.66669377 735.208949 628.01389799 733.453125 629.36328125 C694.21513492 659.17311904 647.92710895 678.29767971 601.625 694.125 C600.33887314 694.56511917 600.33887314 694.56511917 599.02676392 695.01412964 C587.74279224 698.86172968 576.40237539 702.41829499 564.9375 705.6875 C566.19811464 713.82008985 567.82122961 721.79988135 569.6875 729.8125 C575.94899605 757.52592029 580.25797653 785.40707492 582.9375 813.6875 C583.0420752 814.77909424 583.14665039 815.87068848 583.25439453 816.99536133 C584.19871539 828.26893061 584.18105707 839.56951354 584.1875 850.875 C584.18851212 852.47396118 584.18851212 852.47396118 584.18954468 854.10522461 C584.17309941 870.48409205 583.698494 886.50470545 580.9375 902.6875 C580.68806641 904.19062744 580.68806641 904.19062744 580.43359375 905.72412109 C575.34279446 935.34974476 565.24334775 963.31946737 545.9375 986.6875 C545.33292969 987.42742188 544.72835937 988.16734375 544.10546875 988.9296875 C529.70249273 1005.88471833 509.35277496 1017.2155366 487.9375 1022.6875 C487.29417725 1022.86482666 486.65085449 1023.04215332 485.98803711 1023.22485352 C477.09778588 1025.37349944 467.96586205 1025.12920018 458.875 1025.125 C457.98522461 1025.12540283 457.09544922 1025.12580566 456.17871094 1025.1262207 C441.27559688 1025.08739656 427.31501268 1023.8634391 412.9375 1019.6875 C411.93380371 1019.39810547 410.93010742 1019.10871094 409.89599609 1018.81054688 C395.72578785 1014.6096543 382.19393831 1009.19990514 368.9375 1002.6875 C367.97763184 1002.21715332 367.01776367 1001.74680664 366.02880859 1001.26220703 C343.37403462 990.05275696 322.11741044 976.89621678 301.9375 961.6875 C301.19886719 961.13288086 300.46023438 960.57826172 299.69921875 960.00683594 C290.95373555 953.42506684 282.32915534 946.71735162 273.9375 939.6875 C273.42767578 939.26259277 272.91785156 938.83768555 272.39257812 938.39990234 C265.59746364 932.73254845 258.94581744 926.94822211 252.4296875 920.9609375 C250.23254932 918.95665157 248.00469919 917.00136584 245.75 915.0625 C242.25579592 912.03466813 239.01179867 908.80557714 235.796875 905.484375 C233.94780441 903.69745804 232.02545607 902.18417647 229.9375 900.6875 C223.58626656 903.58208869 218.78925492 908.77844089 213.9375 913.6875 C210.10182336 917.56760533 206.08373682 921.14435217 201.9375 924.6875 C200.94105469 925.54988281 199.94460938 926.41226563 198.91796875 927.30078125 C183.72632859 940.4314452 168.24803684 952.96674823 151.9375 964.6875 C151.13441406 965.27031738 150.33132813 965.85313477 149.50390625 966.45361328 C117.91221081 989.3449558 82.61118764 1008.94379684 44.9375 1019.6875 C43.59534424 1020.07494385 43.59534424 1020.07494385 42.22607422 1020.47021484 C28.04533286 1024.37462056 14.05875786 1025.17851356 -0.5625 1025.25 C-1.4042276 1025.25885223 -2.2459552 1025.26770447 -3.1131897 1025.27682495 C-29.42099575 1025.46459341 -55.11994016 1017.21904225 -75.0625 999.6875 C-75.81917969 999.06230469 -76.57585937 998.43710937 -77.35546875 997.79296875 C-105.02128398 974.41273591 -117.32168127 937.23254291 -123.0625 902.6875 C-123.22621094 901.73327148 -123.38992187 900.77904297 -123.55859375 899.79589844 C-129.17763436 865.35025073 -127.63172707 828.18841738 -123.0625 793.6875 C-122.96539734 792.94812195 -122.86829468 792.2087439 -122.76824951 791.44696045 C-119.6950762 768.25891413 -115.35635981 745.41375079 -110.32865906 722.57633972 C-109.10215386 716.96957226 -108.02340106 711.34545735 -107.0625 705.6875 C-108.44864502 705.25836304 -108.44864502 705.25836304 -109.86279297 704.82055664 C-149.89518419 692.40913196 -188.5452617 678.46626804 -226.0625 659.6875 C-226.97209473 659.23665039 -227.88168945 658.78580078 -228.81884766 658.32128906 C-246.52764509 649.50645731 -263.60832789 639.06482336 -279.0625 626.6875 C-279.98933594 625.95144531 -280.91617188 625.21539063 -281.87109375 624.45703125 C-313.05132121 599.33121689 -340.5951579 567.88516896 -346.0625 526.6875 C-347.13241501 510.78877386 -346.95376971 494.93851643 -342.0625 479.6875 C-341.85351074 479.01509277 -341.64452148 478.34268555 -341.42919922 477.64990234 C-331.68476605 447.08814829 -309.04553311 421.11874798 -284.0625 401.6875 C-283.11503906 400.92308594 -282.16757812 400.15867187 -281.19140625 399.37109375 C-236.01431161 363.51717023 -180.4323372 341.74493468 -125.9375 324.5 C-125.16780884 324.25521912 -124.39811768 324.01043823 -123.60510254 323.75823975 C-121.42379703 323.06733089 -119.23992991 322.3853723 -117.0546875 321.70703125 C-115.80026855 321.31620361 -114.54584961 320.92537598 -113.25341797 320.52270508 C-110.0625 319.6875 -110.0625 319.6875 -106.0625 319.6875 C-106.30371582 318.68936279 -106.54493164 317.69122559 -106.79345703 316.6628418 C-118.11048014 269.63249131 -126.28547419 222.51041601 -126.3125 174 C-126.31317474 172.91034943 -126.31384949 171.82069885 -126.31454468 170.69802856 C-126.29830853 154.17645731 -125.86277184 138.00955692 -123.0625 121.6875 C-122.81306641 120.18654785 -122.81306641 120.18654785 -122.55859375 118.65527344 C-115.7367651 78.94970408 -99.3216496 41.40394594 -65.82104492 17.46069336 C-61.331564 14.375388 -56.71449705 11.74752748 -51.8125 9.375 C-51.20736572 9.07408447 -50.60223145 8.77316895 -49.97875977 8.46313477 C-33.66064701 0.95469946 -17.71968529 -0.18275407 0 0 Z M-49.0625 70.6875 C-79.46776815 106.58769613 -77.74141911 164.37973249 -74.29321289 208.39282227 C-71.25888666 240.76243975 -66.8180023 275.89648779 -56.0625 306.6875 C-54.89420654 306.451521 -53.72591309 306.21554199 -52.5222168 305.97241211 C-12.10937171 297.83434328 28.20824142 290.97092415 69.17434692 286.29049683 C72.05273233 285.95976657 74.92994209 285.62002992 77.80712891 285.27905273 C80.97369926 284.90497444 84.13822937 284.57048739 87.31396484 284.28540039 C94.35552849 283.81209038 94.35552849 283.81209038 100 280.09765625 C100.639375 278.99292969 101.27875 277.88820313 101.9375 276.75 C102.73081338 275.47304086 103.52790691 274.19842487 104.328125 272.92578125 C104.74126953 272.24080566 105.15441406 271.55583008 105.58007812 270.85009766 C108.06510945 266.89103157 110.8942664 263.18223264 113.6875 259.4375 C114.27974365 258.63538086 114.8719873 257.83326172 115.48217773 257.00683594 C124.9958308 244.14409993 134.91942652 231.6134841 145.046875 219.23046875 C147.41067203 216.33993946 149.74367817 213.4268056 152.0625 210.5 C156.41917528 205.04048433 160.93780095 199.72079389 165.47119141 194.40820312 C166.94692415 192.67644083 168.4171012 190.94007806 169.88671875 189.203125 C175.46746684 182.62862014 181.14378584 176.18330442 187.10522461 169.94921875 C189.55280433 167.35535936 191.58532809 165.01225212 192.9375 161.6875 C188.16019 156.81066271 183.340165 152.06835572 178.15625 147.625 C175.95371635 145.70166076 173.80474931 143.72689041 171.66162109 141.73779297 C166.50495796 136.95472984 161.23898489 132.38881787 155.75390625 127.98046875 C153.29872966 125.98159405 150.89854002 123.93230221 148.50830078 121.85668945 C111.17985793 89.61637908 64.18239744 59.21327864 14.9375 50.6875 C14.23367188 50.55730469 13.52984375 50.42710938 12.8046875 50.29296875 C-10.39235704 46.65326511 -33.18775815 53.26269919 -49.0625 70.6875 Z M305.90625 125.15234375 C303.1659968 127.49237576 300.3780448 129.75170467 297.5625 132 C291.62846054 136.82519705 286.10183781 142.05440013 280.546875 147.3046875 C276.71895789 150.91634953 272.78135471 154.38642576 268.79296875 157.8203125 C266.94093362 159.68404469 265.94864987 161.28000031 264.9375 163.6875 C265.50597656 164.244375 266.07445312 164.80125 266.66015625 165.375 C271.65151976 170.30803371 276.38908102 175.34689063 280.9375 180.6875 C281.84200448 181.7399646 282.74699265 182.7920136 283.65234375 183.84375 C286.24104238 186.85330288 288.82203278 189.86935215 291.39990234 192.88818359 C292.39129386 194.0483226 293.38372904 195.20757095 294.37744141 196.36572266 C299.96508561 202.87843457 305.40495421 209.47721347 310.67431641 216.25048828 C313.64223558 220.06010306 316.66428383 223.81877879 319.72680664 227.55273438 C326.72144514 236.08182105 333.38771091 244.81391448 339.9375 253.6875 C341.14310013 255.31389775 342.34883433 256.94019611 343.5546875 258.56640625 C344.1643335 259.39229248 344.77397949 260.21817871 345.40209961 261.0690918 C346.62649316 262.72119 347.85900747 264.36730293 349.09985352 266.00708008 C352.19000196 270.12458042 354.59256203 274.03038241 356.8125 278.6875 C359.16811486 281.92507493 361.22668668 282.95089593 365.0390625 283.734375 C370.22703951 284.51026325 375.44850273 284.88781722 380.67529297 285.30517578 C389.47752977 286.05456352 398.23858254 287.25816564 407 288.375 C408.50379211 288.56480942 408.50379211 288.56480942 410.03796387 288.75845337 C444.93277182 293.18221272 479.51521888 299.49305589 513.9375 306.6875 C517.1670726 296.06320166 519.66021453 285.37658754 521.875 274.5 C522.04702942 273.66000458 522.21905884 272.82000916 522.39630127 271.95455933 C525.99205928 254.29311536 528.76218512 236.57626594 530.9375 218.6875 C531.06882324 217.64835449 531.20014648 216.60920898 531.33544922 215.53857422 C536.73651702 171.24678821 538.05084048 111.50453927 509.68261719 74.02978516 C499.17175058 60.96338119 484.79813396 52.22539628 468.046875 49.96875 C408.63820527 44.59510148 348.41388531 88.5457684 305.90625 125.15234375 Z M225.65234375 201.92578125 C224.72014204 202.94468365 223.79480852 203.96989592 222.875 205 C222.38330322 205.54325928 221.89160645 206.08651855 221.38500977 206.64624023 C217.50252755 210.9706412 213.82731835 215.44560447 210.18359375 219.97265625 C207.8491941 222.79423495 205.41759402 225.49340712 202.9375 228.1875 C198.04370521 233.51730108 193.47729483 239.05585578 188.9375 244.6875 C187.92815906 245.91755016 186.91767402 247.1466621 185.90625 248.375 C180.19019166 255.33281978 174.59221242 262.35921712 169.1875 269.5625 C168.67405029 270.24658936 168.16060059 270.93067871 167.6315918 271.63549805 C165.07183534 275.02628558 165.07183534 275.02628558 162.9375 278.6875 C163.59153809 278.65720703 164.24557617 278.62691406 164.91943359 278.59570312 C208.09836239 276.71615826 251.7631852 276.68780274 294.9375 278.6875 C291.61020477 273.55960085 288.24231734 268.64301762 284.25 264 C280.57748348 259.68391868 277.0344468 255.29130514 273.5625 250.8125 C269.28473338 245.31262299 264.83741553 239.98892145 260.2734375 234.72485352 C257.29581602 231.28776421 254.40133551 227.80380149 251.5625 224.25 C247.20155855 218.86295468 242.49344098 213.83366702 237.72119141 208.81274414 C235.38952559 206.35349907 233.15401939 203.98296859 231.1484375 201.24609375 C230.54902344 200.47458984 230.54902344 200.47458984 229.9375 199.6875 C227.64251114 199.45425277 227.64251114 199.45425277 225.65234375 201.92578125 Z M167.5 328.5625 C166.05065063 328.62117249 166.05065063 328.62117249 164.57202148 328.68103027 C159.23679204 328.90542632 153.90804352 329.18335603 148.57907104 329.52557373 C146.74523964 329.63798618 144.91058125 329.73736605 143.07546997 329.82647705 C140.20647806 329.96861824 137.34260768 330.15185142 134.4765625 330.34375 C133.17622826 330.39690872 133.17622826 330.39690872 131.84962463 330.45114136 C127.27236932 330.80558716 124.64119325 331.45819965 121.40332031 334.82592773 C119.45512931 337.23828711 117.70003002 339.69053584 116.2578125 342.44140625 C114.41017452 345.837504 112.43776498 349.09427473 110.34423828 352.34350586 C109.0945714 354.29758048 107.8802817 356.27017413 106.671875 358.25 C103.47836004 363.46273294 100.17066524 368.6015107 96.875 373.75 C91.8405722 381.64160639 86.9035984 389.57443112 82.14941406 397.63769531 C80.77122006 399.96874222 79.38178226 402.29291955 77.9921875 404.6171875 C59.86539155 435.01161302 43.02013536 466.16741158 26.9375 497.6875 C26.5549707 498.42967773 26.17244141 499.17185547 25.77832031 499.93652344 C24.85485621 501.74015045 23.95712311 503.55689498 23.0625 505.375 C22.61132812 506.28636719 22.16015625 507.19773437 21.6953125 508.13671875 C20.16635882 513.28314531 22.19153262 517.69294375 24.52734375 522.29296875 C25.05908203 523.34887207 25.59082031 524.40477539 26.13867188 525.49267578 C26.71166016 526.60884277 27.28464844 527.72500977 27.875 528.875 C28.75961914 530.61885986 28.75961914 530.61885986 29.66210938 532.39794922 C31.40989624 535.83340135 33.17041538 539.2619398 34.9375 542.6875 C35.39398926 543.5729248 35.85047852 544.45834961 36.32080078 545.37060547 C39.14824784 550.83375191 42.03408049 556.26443404 44.9375 561.6875 C45.42154297 562.5964502 45.90558594 563.50540039 46.40429688 564.44189453 C53.98534513 578.66472498 61.87819347 592.67233773 70.08105469 606.54541016 C72.01090135 609.811734 73.93157377 613.08334193 75.8515625 616.35546875 C84.27570439 630.68205893 92.86309758 644.89399241 101.80303955 658.90551758 C103.05869796 660.87787475 104.30848898 662.85388785 105.55810547 664.83007812 C107.90632926 668.53933216 110.27293899 672.23634039 112.65078735 675.92666626 C113.58692976 677.38443704 114.51796637 678.84550011 115.44369507 680.30990601 C116.74225405 682.36088183 118.05985672 684.39829676 119.3828125 686.43359375 C119.76872055 687.05216248 120.1546286 687.6707312 120.55223083 688.30804443 C122.23332849 690.85558248 123.37226659 692.48061987 126.28613281 693.54711914 C127.16108398 693.59344482 128.03603516 693.63977051 128.9375 693.6875 C130.01338379 693.7803125 131.08926758 693.873125 132.19775391 693.96875 C133.42413574 694.0409375 134.65051758 694.113125 135.9140625 694.1875 C136.5976181 694.22810547 137.28117371 694.26871094 137.98544312 694.31054688 C139.44283263 694.39624053 140.900326 694.48018331 142.35791016 694.5625 C144.47979875 694.68281085 146.60121203 694.80962392 148.72265625 694.9375 C153.45955597 695.21674375 158.19790925 695.45880411 162.9375 695.6875 C163.87577637 695.73307037 164.81405273 695.77864075 165.78076172 695.82559204 C185.56838866 696.75197982 205.34190834 696.88636389 225.14663696 696.87617874 C227.71909717 696.87498534 230.29155334 696.87553687 232.86401367 696.87619019 C260.25959187 696.87469772 287.58767671 696.3988401 314.9375 694.6875 C315.62924316 694.6451825 316.32098633 694.60286499 317.03369141 694.55926514 C322.99108 694.19301455 322.99108 694.19301455 328.9375 693.6875 C329.81156494 693.61563477 330.68562988 693.54376953 331.58618164 693.46972656 C334.92432779 692.35920634 335.78864557 690.62313603 337.65234375 687.67578125 C338.33103516 686.61955566 339.00972656 685.56333008 339.70898438 684.47509766 C340.43134505 683.3169534 341.15334096 682.15858158 341.875 681 C342.63340612 679.80691467 343.39318933 678.61470367 344.15429688 677.42333984 C345.69825635 675.0014042 347.23340778 672.57423597 348.76123047 670.14208984 C350.67500056 667.09773682 352.61489495 664.07112028 354.56640625 661.05078125 C367.79590767 640.5348892 380.47796626 619.64742818 392.43212891 598.36279297 C394.0437799 595.49862307 395.66806202 592.64182471 397.29296875 589.78515625 C405.31929202 575.62336397 412.90550476 561.26735589 420.33740234 546.78613281 C422.26985984 543.04387609 424.23914814 539.32216356 426.21655273 535.60351562 C429.25812664 529.87792777 432.29365118 524.145388 435.125 518.3125 C435.51042969 517.52101563 435.89585937 516.72953125 436.29296875 515.9140625 C437.50127963 511.73989765 435.81208596 508.05792225 434.00390625 504.2734375 C433.40993042 503.02421509 433.40993042 503.02421509 432.80395508 501.74975586 C432.15849731 500.41956421 432.15849731 500.41956421 431.5 499.0625 C431.04971436 498.12736572 430.59942871 497.19223145 430.13549805 496.22875977 C426.08049055 487.86791228 421.80804596 479.63533214 417.41552734 471.44775391 C415.7336208 468.30675037 414.06408854 465.15930307 412.39453125 462.01171875 C404.82337669 447.75870269 397.08693816 433.62025271 388.9375 419.6875 C388.03112793 418.13579102 388.03112793 418.13579102 387.10644531 416.55273438 C374.25349584 394.59480461 360.89251083 372.96345375 346.9375 351.6875 C346.56012695 351.1104834 346.18275391 350.5334668 345.79394531 349.93896484 C343.54060591 346.4988667 341.28224794 343.06600455 338.9375 339.6875 C338.35938568 338.71036293 338.35938568 338.71036293 337.76959229 337.71348572 C335.0434242 333.44571928 335.0434242 333.44571928 330.82868958 330.86894226 C328.33688715 330.48039186 325.93113302 330.32724237 323.41015625 330.2578125 C322.486548 330.20223175 321.56293976 330.146651 320.61134338 330.08938599 C318.67597248 329.97764078 316.73955519 329.88282826 314.80255127 329.80432129 C312.10807402 329.69445509 309.42101197 329.53973499 306.72998047 329.36621094 C301.28089675 329.02737698 295.8300194 328.78332981 290.375 328.5625 C288.85338257 328.49996033 288.85338257 328.49996033 287.30102539 328.43615723 C247.4329646 326.85394601 207.36410979 326.92405374 167.5 328.5625 Z M398.9375 338.6875 C402.93318016 345.73621746 407.13749296 352.6123681 411.5 359.4375 C418.6460436 370.66053286 425.32005533 382.14691429 431.9375 393.6875 C432.49083008 394.65236328 433.04416016 395.61722656 433.61425781 396.61132812 C441.42489586 410.26486178 448.97954552 424.04921238 456.43310547 437.90039062 C458.91846206 442.5048747 461.42737882 447.09648111 463.9375 451.6875 C466.88816944 448.22100245 468.45222964 444.37082866 470.08984375 440.1796875 C470.38613678 439.43395477 470.68242981 438.68822205 470.98770142 437.91989136 C471.95751543 435.47026486 472.91696481 433.01675508 473.875 430.5625 C474.20531219 429.72158813 474.53562439 428.88067627 474.87594604 428.01428223 C481.66310809 410.72120624 487.92724517 393.2637074 493.9375 375.6875 C494.29763184 374.63884766 494.65776367 373.59019531 495.02880859 372.50976562 C495.92134823 369.90441892 496.8075999 367.29713909 497.6875 364.6875 C497.92799072 363.97561523 498.16848145 363.26373047 498.41625977 362.53027344 C499.56253145 359.18035814 499.56253145 359.18035814 499.9375 355.6875 C487.74336038 352.44039327 475.48092224 349.97190933 463.0625 347.75 C461.63848373 347.49295288 461.63848373 347.49295288 460.18569946 347.23071289 C447.02726774 344.85952167 433.85151947 342.64455845 420.625 340.6875 C419.91821106 340.58172638 419.21142212 340.47595276 418.48321533 340.36697388 C411.90627112 339.39007833 405.59873117 338.57799742 398.9375 338.6875 Z M42.6328125 339.9375 C41.73203476 340.07122513 40.83125702 340.20495026 39.90318298 340.34272766 C36.9551728 340.78392807 34.00874884 341.23469506 31.0625 341.6875 C30.05460419 341.84100922 29.04670837 341.99451843 28.00827026 342.15267944 C12.94343529 344.45711529 -2.04583199 347.06267787 -17 350 C-17.86985535 350.17039795 -18.73971069 350.3407959 -19.63592529 350.51635742 C-22.10080192 351.00181277 -24.56438228 351.49320824 -27.02734375 351.98828125 C-28.09940819 352.20198112 -28.09940819 352.20198112 -29.19313049 352.41999817 C-33.55819657 353.31217396 -37.79713059 354.4157745 -42.0625 355.6875 C-39.76084864 364.70674792 -36.8914077 373.51225886 -33.875 382.3125 C-33.62282715 383.05062927 -33.3706543 383.78875854 -33.11083984 384.54925537 C-28.58038403 397.76132719 -23.65273851 410.8068916 -18.5625 423.8125 C-18.21788727 424.69367493 -17.87327454 425.57484985 -17.51821899 426.48272705 C-16.52627931 429.01340588 -15.53006428 431.54233978 -14.53125 434.0703125 C-14.23997726 434.80963013 -13.94870453 435.54894775 -13.64860535 436.31066895 C-11.5860502 441.49760049 -9.3617789 446.6013378 -7.0625 451.6875 C-4.6317877 448.62811608 -2.79260885 445.474278 -0.98046875 442.015625 C-0.38508301 440.88801758 0.21030273 439.76041016 0.82373047 438.59863281 C1.13743591 438.00199829 1.45114136 437.40536377 1.77435303 436.79064941 C8.1527531 424.67548 14.85510563 412.79159085 21.81640625 401 C24.36506102 396.68256513 26.82874577 392.32716277 29.25 387.9375 C33.47692662 380.32512302 37.98914362 372.88355192 42.5 365.4375 C42.8577652 364.84521606 43.2155304 364.25293213 43.58413696 363.6427002 C48.03860104 356.27598212 52.63678759 349.04158641 57.48413086 341.92675781 C59.02823708 339.99262502 59.02823708 339.99262502 58.9375 338.6875 C53.3728723 338.53853891 48.12986609 339.10165734 42.6328125 339.9375 Z M-102.0546875 370.609375 C-103.08912994 370.93261749 -103.08912994 370.93261749 -104.14447021 371.26239014 C-106.41269721 371.97577442 -108.67521633 372.7055028 -110.9375 373.4375 C-111.71615417 373.68636963 -112.49480835 373.93523926 -113.29705811 374.19165039 C-142.71940591 383.59777758 -171.63007473 394.3626127 -199.06982422 408.65429688 C-201.25927306 409.78952691 -203.45948922 410.90230887 -205.66015625 412.015625 C-226.41194567 422.60739898 -246.20873798 435.50376521 -263.0625 451.6875 C-263.59584961 452.18443359 -264.12919922 452.68136719 -264.67871094 453.19335938 C-279.54264477 467.07078561 -294.41448426 485.53320187 -295.49609375 506.80078125 C-295.51978269 508.53369275 -295.5206112 510.26704916 -295.5 512 C-295.49097656 512.91861816 -295.48195313 513.83723633 -295.47265625 514.78369141 C-295.01253408 532.94254054 -285.95095295 548.43867682 -274.0625 561.6875 C-273.23363281 562.63625 -272.40476562 563.585 -271.55078125 564.5625 C-229.97249153 611.42562593 -164.18464088 634.13148691 -106.0625 652.6875 C-104.58257568 653.16872314 -104.58257568 653.16872314 -103.07275391 653.65966797 C-102.19925293 653.93568848 -101.32575195 654.21170898 -100.42578125 654.49609375 C-99.69270752 654.72997803 -98.95963379 654.9638623 -98.2043457 655.20483398 C-95.77113209 655.75315991 -93.54881537 655.77062246 -91.0625 655.6875 C-90.74200684 654.66954346 -90.42151367 653.65158691 -90.09130859 652.6027832 C-79.88213312 620.2757139 -68.31280355 588.70681344 -55.375 557.375 C-55.01639893 556.50561798 -54.65779785 555.63623596 -54.28833008 554.74050903 C-50.85117484 546.43193727 -47.37888411 538.16401845 -43.43359375 530.08203125 C-42.90016357 528.97964111 -42.3667334 527.87725098 -41.81713867 526.74145508 C-40.85481771 524.78823865 -39.86636094 522.84754729 -38.8449707 520.92456055 C-36.82370259 516.85670491 -35.51716096 513.9756406 -36.875 509.51171875 C-37.56774836 507.88762447 -38.30272639 506.2813402 -39.0625 504.6875 C-39.80126445 502.99207852 -40.53997126 501.29663176 -41.27786255 499.60083008 C-42.13814781 497.64150016 -43.01498574 495.69037484 -43.89697266 493.74072266 C-59.38655005 459.5002353 -73.26295389 424.27049726 -84.73046875 388.46875 C-84.93746399 387.82705368 -85.14445923 387.18535736 -85.35772705 386.5242157 C-86.31989086 383.53678233 -87.26269506 380.54583717 -88.17333984 377.54223633 C-88.66181396 375.99959106 -88.66181396 375.99959106 -89.16015625 374.42578125 C-89.43351807 373.52899658 -89.70687988 372.63221191 -89.98852539 371.70825195 C-90.87738216 369.58808677 -90.87738216 369.58808677 -92.74438477 368.77124023 C-96.12572022 368.64909194 -98.83088586 369.59150674 -102.0546875 370.609375 Z M548.9375 368.6875 C548.61700684 369.70545654 548.29651367 370.72341309 547.96630859 371.7722168 C534.35564235 414.87080605 518.44753335 457.07813288 499.66748047 498.20361328 C498.39029047 501.01823575 497.15814533 503.84804121 495.9375 506.6875 C495.40125 507.86570312 494.865 509.04390625 494.3125 510.2578125 C493.71346791 515.73646015 496.22408678 519.57569681 498.6875 524.375 C499.82140476 526.7110884 500.94762635 529.04942841 502.0625 531.39453125 C502.36806824 532.03471191 502.67363647 532.67489258 502.98846436 533.33447266 C507.21388154 542.26992143 510.95012538 551.41479265 514.6875 560.5625 C515.06780365 561.49323334 515.4481073 562.42396667 515.8399353 563.38290405 C528.16871403 593.6647586 539.37821408 624.41591107 548.9375 655.6875 C556.31058595 655.08968222 563.0269035 653.03240329 570.0625 650.8125 C570.69143158 650.61498138 571.32036316 650.41746277 571.96835327 650.21395874 C622.92227168 634.16680646 675.07911148 612.9142119 715.9375 577.6875 C716.4516748 577.24712402 716.96584961 576.80674805 717.49560547 576.35302734 C733.39329145 562.6234247 751.16019098 542.44262723 753.13037109 520.54370117 C753.94360814 497.19394061 746.84790121 478.87725197 730.93066406 461.49609375 C720.76271329 450.71069206 710.21117234 441.00444872 697.9375 432.6875 C697.26009766 432.2244043 696.58269531 431.76130859 695.88476562 431.28417969 C680.94137316 421.14252278 665.1386288 412.51601644 648.89990234 404.64208984 C646.97574574 403.70610424 645.06022383 402.75394309 643.14453125 401.80078125 C619.03081049 389.96170661 593.43362842 381.51239965 567.90509033 373.31915283 C566.60318451 372.90120379 565.30186255 372.48143125 564.00115967 372.05975342 C562.20980476 371.48022997 560.41551352 370.90980649 558.62109375 370.33984375 C557.6148999 370.01878662 556.60870605 369.69772949 555.57202148 369.36694336 C552.74541035 368.52101417 552.74541035 368.52101417 548.9375 368.6875 Z M-7.0625 572.6875 C-30.30258864 619.49187818 -30.30258864 619.49187818 -42.0625 668.6875 C-29.17442249 672.48778076 -16.09405784 674.85472509 -2.875 677.1875 C-1.77143158 677.38415253 -0.66786316 677.58080505 0.46914673 677.78341675 C13.49603169 680.10352227 26.52690707 682.36681528 39.625 684.25 C41.2486145 684.48396484 41.2486145 684.48396484 42.9050293 684.72265625 C47.96551381 685.41213846 52.83068272 685.85177524 57.9375 685.6875 C56.5793501 682.01971401 54.91818918 678.84106139 52.83984375 675.53125 C52.21190918 674.52376709 51.58397461 673.51628418 50.93701172 672.47827148 C49.91631592 670.8493396 49.91631592 670.8493396 48.875 669.1875 C29.31483146 637.72750888 11.31484521 605.39585188 -6.0625 572.6875 C-6.3925 572.6875 -6.7225 572.6875 -7.0625 572.6875 Z M463.9375 572.6875 C463.64206299 573.2637915 463.34662598 573.84008301 463.04223633 574.43383789 C455.89913296 588.33226441 448.4757777 602.03061676 440.70751953 615.58886719 C438.83429459 618.86817353 436.97674163 622.15603074 435.12109375 625.4453125 C425.48634329 642.49265792 415.56799402 659.36502277 404.91845703 675.80419922 C404.27634277 676.79564941 403.63422852 677.78709961 402.97265625 678.80859375 C402.39008057 679.69861084 401.80750488 680.58862793 401.20727539 681.50561523 C399.76983772 683.55485296 399.76983772 683.55485296 399.9375 685.6875 C412.88228931 685.20735012 425.48896734 683.19074919 438.25 681.0625 C439.31856232 680.8865329 440.38712463 680.7105658 441.48806763 680.52926636 C455.66942236 678.19052272 469.80145186 675.6707888 483.875 672.75 C484.5941861 672.60093201 485.31337219 672.45186401 486.05435181 672.29827881 C493.1842355 671.07245603 493.1842355 671.07245603 499.9375 668.6875 C497.63584864 659.66825208 494.7664077 650.86274114 491.75 642.0625 C491.49782715 641.32437073 491.2456543 640.58624146 490.98583984 639.82574463 C486.45538403 626.61367281 481.52773851 613.5681084 476.4375 600.5625 C476.09288727 599.68132507 475.74827454 598.80015015 475.39321899 597.89227295 C474.40127931 595.36159412 473.40506428 592.83266022 472.40625 590.3046875 C472.11497726 589.56536987 471.82370453 588.82605225 471.52360535 588.06433105 C469.4610502 582.87739951 467.2367789 577.7736622 464.9375 572.6875 C464.6075 572.6875 464.2775 572.6875 463.9375 572.6875 Z M-56.0625 717.6875 C-59.29208164 728.31182807 -61.78497359 738.99844167 -64 749.875 C-64.17202942 750.71466309 -64.34405884 751.55432617 -64.52130127 752.41943359 C-68.11907376 770.08266251 -70.85452154 787.80169373 -73.0625 805.6875 C-73.19382324 806.68362305 -73.32514648 807.67974609 -73.46044922 808.70605469 C-79.15363109 852.73439245 -80.3080718 913.15207309 -51.79150391 950.34521484 C-41.13577991 963.40266807 -27.93197356 971.86860513 -11.046875 974.40625 C38.95403445 979.11837759 89.25527135 948.59240997 127.15429688 919.07373047 C128.90136215 917.71559292 130.65928743 916.37306601 132.421875 915.03515625 C139.38701525 909.73882117 146.21436985 904.28855001 152.9375 898.6875 C153.44780762 898.26355957 153.95811523 897.83961914 154.48388672 897.40283203 C161.96470007 891.1775398 169.23484268 884.77202291 176.36230469 878.14501953 C178.06935907 876.56549153 179.787617 874.99879584 181.5078125 873.43359375 C182.69271274 872.35156732 183.87760867 871.26953618 185.0625 870.1875 C185.619375 869.6829126 186.17625 869.1783252 186.75 868.65844727 C189.17364429 866.43639652 191.10297386 864.4392892 192.9375 861.6875 C192.11958984 860.77871094 192.11958984 860.77871094 191.28515625 859.8515625 C189.6907587 858.08000967 188.0970637 856.30782439 186.50390625 854.53515625 C184.89196306 852.74656176 183.27544499 850.96206879 181.65234375 849.18359375 C177.07819453 844.15767671 172.71735646 839.01079806 168.4453125 833.7265625 C165.54918229 830.21692183 162.56072424 826.79728634 159.5625 823.375 C154.90552092 818.04387803 150.4294169 812.61331201 146.09545898 807.01708984 C143.20576553 803.287883 140.254712 799.61956943 137.25415039 795.97900391 C130.08875888 787.27487329 123.37734239 778.28415084 116.74755859 769.16796875 C114.86921578 766.59392464 112.97771497 764.03004631 111.08203125 761.46875 C110.45095459 760.61579346 109.81987793 759.76283691 109.16967773 758.8840332 C107.96541587 757.25708444 106.7605381 755.63059132 105.55493164 754.00463867 C105.00828857 753.2644751 104.46164551 752.52431152 103.8984375 751.76171875 C103.18373291 750.79625122 103.18373291 750.79625122 102.45458984 749.8112793 C100.9375 747.6875 100.9375 747.6875 99.47045898 744.55200195 C95.53286591 740.09901115 91.16998102 740.31622403 85.44921875 739.78125 C83.71860703 739.58553406 83.71860703 739.58553406 81.95303345 739.38586426 C79.47181254 739.10785376 76.98921054 738.84195644 74.50552368 738.58691406 C69.28411881 738.04948595 64.07028085 737.45134239 58.85533142 736.85498047 C56.23655972 736.55563527 53.61746657 736.25908903 50.99806213 735.96533203 C40.37702719 734.7680124 29.80785618 733.34901221 19.25 731.6875 C18.485737 731.56779846 17.721474 731.44809692 16.93405151 731.32476807 C-7.50141642 727.47033596 -31.91557865 723.07206279 -56.0625 717.6875 Z M501.2109375 720.19140625 C499.62834591 720.52021224 498.04565895 720.84855946 496.46289062 721.17651367 C495.62604736 721.35137299 494.7892041 721.5262323 493.92700195 721.70639038 C465.26354314 727.66612275 436.42247767 732.49581661 407.37017822 736.11853027 C405.67505509 736.32993019 403.98018457 736.54336636 402.2855835 736.75891113 C394.27291607 737.77702266 386.30114893 738.72040525 378.234375 739.16796875 C367.13438975 739.36052259 367.13438975 739.36052259 357.69921875 744.31640625 C355.41242035 747.16091838 353.77942405 750.27313786 352.13525391 753.51904297 C349.81999322 757.71067473 346.82074791 761.43798434 343.9375 765.25 C342.73195872 766.87938456 341.52751128 768.50957905 340.32421875 770.140625 C335.9354374 776.04789283 331.46518599 781.88594737 326.9375 787.6875 C326.4930957 788.25807129 326.04869141 788.82864258 325.59082031 789.41650391 C317.2836049 800.07520191 308.78137688 810.55339678 300.02563477 820.84741211 C297.09466339 824.29889859 294.22035249 827.78968263 291.375 831.3125 C287.50637998 836.06695787 283.4393783 840.60435105 279.29296875 845.1171875 C274.35159103 850.50927131 269.59139384 856.04641656 264.9375 861.6875 C269.07811119 866.6790957 273.40942638 871.18341889 278.1875 875.5625 C278.84717773 876.17182373 279.50685547 876.78114746 280.18652344 877.40893555 C282.09956016 879.17282262 284.01787298 880.93079144 285.9375 882.6875 C287.3296875 883.96947266 287.3296875 883.96947266 288.75 885.27734375 C293.65245579 889.74769206 298.68696351 894.01841302 303.84765625 898.1875 C306.09710665 900.00753572 308.33223792 901.83968882 310.55859375 903.6875 C331.04185413 920.62235722 352.95027687 935.38008552 375.9375 948.6875 C376.64600098 949.09887207 377.35450195 949.51024414 378.08447266 949.93408203 C407.11585674 966.58433192 443.49921744 980.48486574 477.27734375 972.77734375 C495.80457863 967.26069644 507.92021863 954.92858119 516.9609375 938.3034668 C538.53848603 896.95832858 535.91940598 842.59289396 529.9375 797.6875 C529.84275391 796.97047913 529.74800781 796.25345825 529.65039062 795.51470947 C526.57532682 772.47622593 522.06054405 749.83129117 516.79296875 727.19921875 C516.62029984 726.45012741 516.44763092 725.70103607 516.26972961 724.929245 C515.68246589 721.52416103 515.68246589 721.52416103 513.9375 718.6875 C509.56200007 718.3582331 505.4628227 719.27980293 501.2109375 720.19140625 Z M163.9375 746.6875 C167.84576143 752.54989215 171.65443738 758.00321896 176.125 763.375 C177.27445684 764.7712969 178.42287683 766.16844793 179.5703125 767.56640625 C180.13782227 768.25750488 180.70533203 768.94860352 181.29003906 769.66064453 C183.74025115 772.67511708 186.11899207 775.74331688 188.5 778.8125 C193.58941064 785.34008196 198.93029665 791.6275202 204.36083984 797.87255859 C206.00167007 799.76136811 207.63615004 801.65552771 209.26953125 803.55078125 C215.41212171 810.67066275 221.60605035 817.73435762 227.9375 824.6875 C231.75378832 823.14177224 233.90775743 820.79978755 236.625 817.75 C237.05997803 817.26345947 237.49495605 816.77691895 237.94311523 816.27563477 C241.6649459 812.07853314 245.19982454 807.73593797 248.72265625 803.37109375 C250.89382827 800.74041443 253.13991357 798.20807576 255.4375 795.6875 C260.14218015 790.51235184 264.54186343 785.1254716 268.9375 779.6875 C269.94832767 778.45629913 270.96010049 777.22587382 271.97265625 775.99609375 C277.70517642 769.01711082 283.32193464 761.96922099 288.75 754.75 C289.27182861 754.05753174 289.79365723 753.36506348 290.33129883 752.65161133 C292.80223554 749.92606147 292.80223554 749.92606147 293.9375 746.6875 C251.0375 746.6875 208.1375 746.6875 163.9375 746.6875 Z " fill="#60DAFB" transform="translate(346.0625,-0.6875)"/>
<path d="M0 0 C1.05832031 0.53496094 2.11664062 1.06992187 3.20703125 1.62109375 C25.83383687 13.98725095 43.03954858 35.57300861 50.66845703 60.15380859 C58.78667082 88.72503605 55.68643158 116.60805991 42.0625 142.875 C39.15268964 147.97847568 35.79178578 152.52163572 32 157 C31.33226562 157.80179688 30.66453125 158.60359375 29.9765625 159.4296875 C15.45399222 176.25909205 -1.8229399 186.0565152 -23 192 C-23.89976562 192.25523437 -24.79953125 192.51046875 -25.7265625 192.7734375 C-51.59299897 198.90671625 -79.37748877 193.31688574 -102 180 C-125.70790349 164.85328388 -142.37381432 142.28376589 -148.83691406 114.88916016 C-154.86099547 86.74215911 -149.86772825 58.02084003 -134.21728516 33.76025391 C-117.88232176 10.13909745 -93.24143847 -5.26627723 -65.17114258 -10.53051758 C-42.30744062 -13.9154509 -20.43521375 -10.33178564 0 0 Z " fill="#60DAFB" transform="translate(623,420)"/>
</svg>
