<?xml version="1.0" encoding="UTF-8"?>
<svg version="1.1" xmlns="http://www.w3.org/2000/svg" width="512" height="512">
<path d="M0 0 C2.96823729 1.48411864 3.02819617 3.44241638 4.07202148 6.55322266 C4.47718994 7.75003662 4.8823584 8.94685059 5.29980469 10.17993164 C5.74054396 11.50787255 6.18096435 12.83591933 6.62109375 14.1640625 C7.08133555 15.53636572 7.54203753 16.90851468 8.00317383 18.28051758 C9.23748904 21.96222242 10.46055836 25.6475628 11.67975998 29.33429718 C12.4363577 31.62154674 13.19506361 33.9080884 13.95413208 36.19451904 C42.00884669 120.78174599 69.21681493 219.13752397 26.5625 313.5 C1.01955796 363.70327597 -43.60280325 402.29743666 -96.9375 420.375 C-152.34953555 438.3858276 -212.37988779 433.55433877 -264.29125977 407.14233398 C-314.22879676 381.0383137 -351.97266867 335.52584276 -369.3503418 282.06176758 C-386.58143333 226.32847309 -380.71676494 166.63316176 -353.73046875 115.0078125 C-327.07278282 65.39256108 -280.66655926 28.29516787 -227.05078125 11.71875 C-170.7438556 -4.75688062 -111.51154761 2.18376429 -60 30 C-48.22393942 36.64545567 -37.40099262 44.38058034 -27 53 C-24.964381 50.40427867 -23.32325631 47.87652953 -21.88696289 44.90917969 C-21.49968521 44.11445251 -21.11240753 43.31972534 -20.71339417 42.50091553 C-20.30395065 41.64983215 -19.89450714 40.79874878 -19.47265625 39.921875 C-18.82737221 38.59376801 -18.82737221 38.59376801 -18.16905212 37.23883057 C-16.79619374 34.41114328 -15.42920307 31.58066668 -14.0625 28.75 C-12.69806185 25.93426291 -11.33243893 23.11910283 -9.96665955 20.30401611 C-9.11855658 18.55481799 -8.27146129 16.80513081 -7.42555237 15.05487061 C-4.98901626 10.01657009 -2.51348017 5.00038546 0 0 Z " fill="#8BC34A" transform="translate(421,39)"/>
<path d="M0 0 C0.66 0 1.32 0 2 0 C9.39428936 22.72457426 15.72272186 45.69169015 21 69 C21.28786377 70.25611084 21.28786377 70.25611084 21.58154297 71.53759766 C26.29295058 92.39143894 29.63867193 114.59857978 30 136 C30.02046387 137.1564502 30.04092773 138.31290039 30.06201172 139.50439453 C30.51133291 169.92083987 30.51133291 169.92083987 28 184 C27.78903097 185.38632021 27.5808247 186.77306294 27.375 188.16015625 C22.53491393 219.53922084 8.079586 251.64390179 -17.65600586 271.23046875 C-51.70447053 296.13151536 -94.58375029 298.55797109 -135.39227653 298.30418181 C-139.01962152 298.28499108 -142.64698036 298.28363218 -146.27436829 298.28010559 C-153.09465616 298.27090616 -159.91479389 298.24646288 -166.73501664 298.21605712 C-174.52023744 298.18212791 -182.3054667 298.16593194 -190.09074342 298.15097082 C-206.06058154 298.11989718 -222.03027116 298.06738185 -238 298 C-235.58689057 295.58689057 -233.73097233 295.08125965 -230.49609375 294.01171875 C-229.37114502 293.63756836 -228.24619629 293.26341797 -227.0871582 292.87792969 C-225.882771 292.48508789 -224.67838379 292.09224609 -223.4375 291.6875 C-222.2105542 291.28305664 -220.9836084 290.87861328 -219.71948242 290.46191406 C-211.78657434 287.86335574 -203.82776639 285.40013747 -195.8046875 283.09765625 C-189.94949828 281.40842815 -184.13462317 279.60110576 -178.33203125 277.74072266 C-176.66772067 277.21208799 -175.00073516 276.69184457 -173.33203125 276.17724609 C-145.7504041 267.65911397 -121.3551563 255.27758669 -99 237 C-98.44248047 236.54544434 -97.88496094 236.09088867 -97.31054688 235.62255859 C-84.29916553 224.93254264 -72.32063528 213.33370665 -62 200 C-60.99553925 198.74679627 -59.99027386 197.49423721 -58.984375 196.2421875 C-42.75583678 175.81409506 -19 142.17780412 -19 115 C-19.38929688 115.95777344 -19.77859375 116.91554688 -20.1796875 117.90234375 C-27.2282493 134.84471886 -36.60270979 149.65837783 -48 164 C-48.42297363 164.54011719 -48.84594727 165.08023438 -49.28173828 165.63671875 C-61.34001235 180.93718956 -75.55360272 195.31816916 -91.32568359 206.77441406 C-93.06803348 208.04979995 -94.77873522 209.360719 -96.48828125 210.6796875 C-115.47778982 225.180486 -136.60499059 236.71759987 -159 245 C-159.81259277 245.30405762 -160.62518555 245.60811523 -161.46240234 245.92138672 C-177.05163574 251.70723004 -192.86389766 256.03047582 -209 260 C-210.47428575 260.36979086 -211.94829311 260.7406955 -213.421875 261.11328125 C-216.54252315 261.89991766 -219.66549815 262.67625727 -222.78955078 263.44921875 C-225.46427892 264.11568514 -228.13639308 264.79222177 -230.80859375 265.46875 C-248.7053341 269.99311286 -248.7053341 269.99311286 -257.1875 271.9375 C-258.72470703 272.29134766 -258.72470703 272.29134766 -260.29296875 272.65234375 C-266.76821284 273.48394075 -270.47669072 270.63470621 -275.515625 266.9375 C-290.19779319 255.48725563 -297.115195 238.4289275 -300.375 220.5 C-303.77321711 192.21692217 -296.53023016 164.00488737 -279.1875 141.25 C-266.45557908 125.14405901 -251.49776953 114.44339522 -233 106 C-232.12988281 105.59007812 -231.25976562 105.18015625 -230.36328125 104.7578125 C-208.5361872 95.19687827 -182.90340724 94.74811948 -159.48339844 93.73388672 C-145.69129928 93.11956647 -131.93426034 92.11879422 -118.5 88.75 C-117.61747559 88.53166504 -116.73495117 88.31333008 -115.82568359 88.08837891 C-93.83022245 82.48542477 -72.533339 73.17401677 -54 60 C-52.43572266 58.89011719 -52.43572266 58.89011719 -50.83984375 57.7578125 C-45.00317217 53.4928363 -39.53955364 48.95110376 -34.234375 44.04296875 C-32.35049302 42.32046827 -30.42865369 40.71883633 -28.4375 39.125 C-23.62332966 35.02111709 -19.87541449 29.96781321 -16 25 C-15.23171875 24.03578125 -14.4634375 23.0715625 -13.671875 22.078125 C-8.22004837 15.06863362 -3.96966882 7.91380923 0 0 Z " fill="#FEFEFE" transform="translate(418,97)"/>
<path d="M0 0 C4.77960914 2.15708952 7.5439127 4.45731368 9.8359375 9.31640625 C11.17577822 14.03649872 11.33461044 18.00564333 9.3984375 22.56640625 C6.84957761 26.93089236 3.54073706 29.51580395 -1.1640625 31.31640625 C-5.91979684 32.22570909 -9.15406662 31.83093245 -13.4765625 29.62890625 C-17.61079947 26.07153955 -20.75196177 22.86317482 -21.40234375 17.265625 C-21.58408043 11.72743867 -20.90919256 8.6688547 -17.1640625 4.31640625 C-11.78360772 -0.4235182 -7.05883211 -2.22977549 0 0 Z " fill="#FCFDFB" transform="translate(160.1640625,384.68359375)"/>
<path d="M0 0 C1.31534494 3.65857532 0.65468309 6.08026481 -0.4375 9.75 C-0.72496094 10.73484375 -1.01242187 11.7196875 -1.30859375 12.734375 C-1.53675781 13.48203125 -1.76492188 14.2296875 -2 15 C-2.99 14.67 -3.98 14.34 -5 14 C-3.45730076 9.27934033 -1.92205381 4.58335908 0 0 Z " fill="#9FCD69" transform="translate(400,207)"/>
</svg>
