<?xml version="1.0" encoding="UTF-8"?>
<svg version="1.1" xmlns="http://www.w3.org/2000/svg" width="2560" height="1565">
<path d="M0 0 C1.8278862 -0.00701953 3.65577214 -0.01410637 5.48365784 -0.02125549 C11.29379628 -0.04066407 17.10389491 -0.04568922 22.9140625 -0.046875 C24.39689665 -0.04753778 24.39689665 -0.04753778 25.90968704 -0.04821396 C54.8886432 -0.05501212 83.69673795 0.09379544 112.5390625 3.203125 C114.25811609 3.38204674 115.9771923 3.56075133 117.69628906 3.73925781 C195.46119367 11.93210769 270.18078445 31.17793769 341.5390625 63.203125 C342.46428711 63.61804199 343.38951172 64.03295898 344.34277344 64.46044922 C357.43509895 70.38052314 370.00553045 77.18888529 382.5390625 84.203125 C383.41852539 84.69184082 384.29798828 85.18055664 385.20410156 85.68408203 C415.88006482 102.75736192 444.89516932 122.58374154 472.5390625 144.203125 C473.67808898 145.0837169 474.81742006 145.96391493 475.95703125 146.84375 C482.62511388 152.01260481 489.12147044 157.33755309 495.49755859 162.86279297 C498.98004951 165.87925474 502.50830933 168.81810723 506.1015625 171.703125 C511.46992042 176.05798762 516.50840532 180.72338932 521.55859375 185.4375 C523.80504939 187.53223424 526.08379678 189.57642169 528.4140625 191.578125 C537.66199208 199.5916911 546.57233826 208.04769433 555.09765625 216.82421875 C556.97484364 218.65335014 558.85600441 220.33037787 560.8515625 222.02001953 C567.18442094 227.54727835 573.04530599 233.56557803 578.98046875 239.51171875 C580.2749144 240.80548934 581.56950834 242.09911157 582.86424255 243.39259338 C585.56631401 246.09319739 588.26658631 248.79558393 590.96557617 251.49926758 C594.4071824 254.94657049 597.85325955 258.3893635 601.30070591 261.83082485 C603.97153961 264.49802712 606.63996494 267.16762868 609.30769157 269.83793831 C610.57668833 271.1075972 611.8464146 272.37652743 613.11691475 273.64468193 C618.94862263 279.4679815 624.74708239 285.25926006 630.09754944 291.53477478 C632.34862842 294.14008458 634.75799512 296.55187988 637.19140625 298.98828125 C637.94714684 299.74545692 637.94714684 299.74545692 638.71815491 300.51792908 C639.77140774 301.57185462 640.82589295 302.62454999 641.8815918 303.67602539 C643.47365216 305.26272446 645.0602924 306.85470242 646.64648438 308.44726562 C651.54023739 313.34388445 656.4795711 318.12538517 661.74438477 322.62670898 C664.826726 325.33418787 667.67031856 328.27311953 670.5390625 331.203125 C674.71390207 335.42150415 678.89618769 339.5389617 683.4296875 343.375 C685.72555736 345.36475388 687.94231748 347.42573054 690.16186523 349.49975586 C695.54221847 354.52561681 701.01484517 359.34017667 706.76171875 363.94921875 C709.18653956 365.91704098 711.55619711 367.93526777 713.9152832 369.98095703 C748.19145766 399.55655213 787.90084643 423.88610588 830.5390625 439.203125 C831.32249023 439.48494629 832.10591797 439.76676758 832.91308594 440.05712891 C853.15175117 447.1895623 874.39426332 451.54725618 895.5390625 455.015625 C896.71629883 455.210354 897.89353516 455.40508301 899.10644531 455.60571289 C918.07117433 458.56130578 936.9869541 459.58733089 956.1640625 459.515625 C957.21077118 459.51346985 958.25747986 459.5113147 959.33590698 459.50909424 C975.91113256 459.45455025 992.14825745 458.87522316 1008.5390625 456.203125 C1009.74626953 456.00976562 1010.95347656 455.81640625 1012.19726562 455.6171875 C1069.15249451 446.19733341 1123.92137744 423.3631662 1170.5390625 389.203125 C1171.55299072 388.4608667 1171.55299072 388.4608667 1172.58740234 387.70361328 C1180.71992143 381.72178111 1188.71290023 375.58144725 1196.5390625 369.203125 C1197.395 368.52121094 1198.2509375 367.83929687 1199.1328125 367.13671875 C1204.89111386 362.51187613 1210.38854183 357.67797385 1215.77270508 352.62792969 C1218.50409837 350.06716665 1221.26806687 347.5739937 1224.1171875 345.14453125 C1229.61594296 340.35649929 1234.72286147 335.16863686 1239.86645508 330.00610352 C1241.5980095 328.269189 1243.33484609 326.53768611 1245.07226562 324.80664062 C1250.77594411 319.10638394 1256.31781729 313.35432057 1261.5390625 307.203125 C1262.99351767 305.59544127 1264.45127145 303.99072785 1265.9140625 302.390625 C1270.16421043 297.6761752 1274.18658851 292.80844998 1278.17724609 287.87402344 C1279.74069662 285.95572738 1281.32050317 284.05159635 1282.90234375 282.1484375 C1289.10135787 274.68192016 1295.18104066 267.19467401 1300.8671875 259.328125 C1302.5390625 257.203125 1302.5390625 257.203125 1304.5390625 256.203125 C1303.95387423 261.65197923 1303.00769655 266.82578084 1301.5625 272.1171875 C1301.36086243 272.8682074 1301.15922485 273.61922729 1300.95147705 274.39300537 C1300.28071954 276.87375351 1299.59898644 279.35125234 1298.9140625 281.828125 C1298.55692169 283.12450897 1298.55692169 283.12450897 1298.19256592 284.44708252 C1283.39450374 337.91124547 1264.05062596 389.43851476 1239.5390625 439.203125 C1238.82492841 440.6702847 1238.11130696 442.13769416 1237.3984375 443.60546875 C1212.58771184 494.35933329 1180.52581835 541.97672784 1142.09375 583.4296875 C1139.84988311 585.86568978 1137.66030223 588.33849177 1135.4765625 590.828125 C1130.97407831 595.84447967 1126.23430343 600.61695575 1121.4765625 605.390625 C1120.34238892 606.53168701 1120.34238892 606.53168701 1119.18530273 607.69580078 C1115.01834531 611.85142387 1110.7648784 615.84178021 1106.30541992 619.68188477 C1104.07289442 621.604603 1101.90106584 623.59022527 1099.7265625 625.578125 C1094.47485293 630.30545813 1089.06638843 634.8030721 1083.5390625 639.203125 C1082.90500488 639.70972656 1082.27094727 640.21632813 1081.61767578 640.73828125 C1056.94467981 660.38841501 1030.74660037 677.59593132 1003.11083984 692.78808594 C1000.86816251 694.02204814 998.63457469 695.2707393 996.40234375 696.5234375 C922.51074144 737.39210935 836.26184487 757.15079129 736.4453125 766.44140625 C735.70919739 766.50465591 734.97308228 766.56790558 734.21466064 766.6330719 C719.15693058 767.86293634 704.14579893 768.37327191 689.04296875 768.40625 C688.14228102 768.40907738 687.24159328 768.41190475 686.31361198 768.41481781 C681.52425743 768.42968989 676.73493193 768.43898844 671.94555664 768.44335938 C668.09422055 768.4476924 664.24311504 768.46139814 660.3918457 768.484375 C580.37983054 768.95155255 499.70028993 759.19571052 341.5390625 702.203125 C340.36778809 701.63867676 339.19651367 701.07422852 337.98974609 700.49267578 C320.71195887 692.14035499 303.94996177 683.17346608 287.5390625 673.203125 C286.62833984 672.65414551 285.71761719 672.10516602 284.77929688 671.53955078 C261.05007494 657.2127141 238.36992496 641.27632752 216.5390625 624.203125 C215.40003602 623.3225331 214.26070494 622.44233507 213.12109375 621.5625 C206.45301112 616.39364519 199.95665456 611.06869691 193.58056641 605.54345703 C190.09807549 602.52699526 186.56981567 599.58814277 182.9765625 596.703125 C178.23942695 592.86031592 173.75122019 588.79795541 169.30444336 584.62695312 C166.461348 581.96157963 163.58245751 579.35327546 160.640625 576.796875 C156.54243037 573.22910399 152.55939071 569.55041416 148.6015625 565.828125 C147.90353516 565.17328125 147.20550781 564.5184375 146.48632812 563.84375 C142.14447958 559.75635398 137.8717564 555.61625662 133.7265625 551.328125 C131.93893561 549.59157316 130.12698795 547.99805475 128.22875977 546.38842773 C121.97352981 540.92646503 116.17988633 534.98780347 110.31640625 529.11328125 C109.04438083 527.84193093 107.77220711 526.57072896 106.49989319 525.29966736 C103.84490022 522.64614165 101.19170607 519.99083406 98.53979492 517.33422852 C95.15872272 513.94745965 91.77317992 510.56520107 88.38626766 507.18427372 C85.76175682 504.56339482 83.13965506 501.94011608 80.51825142 499.31612968 C79.27158329 498.06879956 78.02418602 496.82219769 76.77601433 495.57637215 C71.01245152 489.82126999 65.29128788 484.09312146 60.00169373 477.89259338 C57.67737512 475.2077999 55.18318725 472.70395294 52.66796875 470.19921875 C52.14194565 469.67223892 51.61592255 469.14525909 51.07395935 468.60231018 C49.97362829 467.50130599 48.87206318 466.40153375 47.76928711 465.30297852 C46.10479973 463.6438518 44.44572803 461.97944449 42.78710938 460.31445312 C37.76935488 455.29388541 32.71727904 450.37411312 27.31616211 445.76196289 C24.23830718 443.06212723 21.40189605 440.12708523 18.5390625 437.203125 C14.38569383 433.00649208 10.2256005 428.91296442 5.71484375 425.09765625 C3.27318308 422.9716142 0.91859451 420.7659434 -1.44067383 418.54931641 C-6.95855319 413.36734631 -12.53474053 408.35658257 -18.44921875 403.625 C-20.73991649 401.78293437 -23.00270012 399.92054561 -25.25390625 398.03125 C-60.01122753 368.92158239 -98.67219742 344.57421719 -141.4609375 329.203125 C-142.24436523 328.92130371 -143.02779297 328.63948242 -143.83496094 328.34912109 C-164.09429467 321.20940378 -185.3555765 316.85070558 -206.5234375 313.390625 C-207.70905273 313.195896 -208.89466797 313.00116699 -210.11621094 312.80053711 C-228.89660815 309.88168397 -247.52925868 308.82153645 -266.5234375 308.890625 C-267.59632019 308.89278015 -268.66920288 308.8949353 -269.77459717 308.89715576 C-286.5121675 308.95094832 -302.91102482 309.49187651 -319.4609375 312.203125 C-321.26957275 312.49316406 -321.26957275 312.49316406 -323.11474609 312.7890625 C-380.07182474 322.20802051 -434.84183228 345.04204314 -481.4609375 379.203125 C-482.13688965 379.69796387 -482.8128418 380.19280273 -483.50927734 380.70263672 C-491.64179643 386.68446889 -499.63477523 392.82480275 -507.4609375 399.203125 C-508.316875 399.88503906 -509.1728125 400.56695313 -510.0546875 401.26953125 C-515.81298886 405.89437387 -521.31041683 410.72827615 -526.69458008 415.77832031 C-529.42597337 418.33908335 -532.18994187 420.8322563 -535.0390625 423.26171875 C-540.53781796 428.04975071 -545.64473647 433.23761314 -550.78833008 438.40014648 C-552.5198845 440.137061 -554.25672109 441.86856389 -555.99414062 443.59960938 C-561.69781911 449.29986606 -567.23969229 455.05192943 -572.4609375 461.203125 C-573.91539267 462.81080873 -575.37314645 464.41552215 -576.8359375 466.015625 C-581.08608543 470.7300748 -585.10846351 475.59780002 -589.09912109 480.53222656 C-590.66257162 482.45052262 -592.24237817 484.35465365 -593.82421875 486.2578125 C-600.02323287 493.72432984 -606.10291566 501.21157599 -611.7890625 509.078125 C-613.4609375 511.203125 -613.4609375 511.203125 -615.4609375 512.203125 C-614.80384537 504.36779911 -612.67385473 496.94056866 -610.5859375 489.390625 C-610.29165359 488.31874939 -610.29165359 488.31874939 -609.99142456 487.22521973 C-605.27168928 470.07415922 -599.98639591 453.10990942 -594.4609375 436.203125 C-594.05262695 434.95080078 -593.64431641 433.69847656 -593.22363281 432.40820312 C-583.44080016 402.65108563 -571.58013596 373.63782637 -558.4609375 345.203125 C-558.00122559 344.20394043 -557.54151367 343.20475586 -557.06787109 342.17529297 C-550.44406283 327.85386289 -543.18585387 313.95870073 -535.4609375 300.203125 C-534.9644873 299.31351074 -534.46803711 298.42389648 -533.95654297 297.50732422 C-520.11166779 272.73441991 -504.83995001 248.66315235 -487.4609375 226.203125 C-486.67589844 225.16414062 -485.89085937 224.12515625 -485.08203125 223.0546875 C-479.96892909 216.30067845 -474.63878301 209.77715168 -469.12890625 203.34375 C-466.59884994 200.38395819 -464.15199815 197.36183704 -461.7109375 194.328125 C-458.72433157 190.65598142 -455.64152485 187.24985611 -452.22973633 183.97290039 C-450.5225057 182.26472719 -448.96404153 180.49744026 -447.40234375 178.65625 C-442.8462483 173.41517664 -437.94246229 168.53867314 -433.0234375 163.640625 C-431.66895508 162.2803418 -431.66895508 162.2803418 -430.28710938 160.89257812 C-425.70549871 156.31760267 -421.0717696 151.87422594 -416.15698242 147.65844727 C-414.00121349 145.80865043 -411.92249165 143.88034229 -409.8359375 141.953125 C-404.24147591 136.9113078 -398.35195983 132.31192803 -392.39453125 127.71289062 C-390.45031854 126.19483363 -388.53216935 124.64846867 -386.6171875 123.09375 C-377.1793744 115.4968259 -367.34846104 108.60464747 -357.2734375 101.890625 C-356.65057861 101.47450958 -356.02771973 101.05839417 -355.38598633 100.62966919 C-343.38151463 92.62859943 -331.11045231 85.08412508 -318.4609375 78.140625 C-317.70441895 77.72417725 -316.94790039 77.30772949 -316.16845703 76.87866211 C-314.64345263 76.04088664 -313.11760088 75.20465134 -311.59082031 74.37011719 C-309.66512097 73.31499994 -307.74609036 72.24876969 -305.828125 71.1796875 C-232.58044661 31.03274968 -147.07515982 11.00270885 -47.62109375 1.96484375 C-46.85992249 1.90159409 -46.09875122 1.83834442 -45.31451416 1.7731781 C-30.20520465 0.57634331 -15.15242493 0.03611243 0 0 Z " fill="#37BDF8" transform="translate(615.4609375,767.796875)"/>
<path d="M0 0 C1.8278862 -0.00701953 3.65577214 -0.01410637 5.48365784 -0.02125549 C11.29379628 -0.04066407 17.10389491 -0.04568922 22.9140625 -0.046875 C24.39689665 -0.04753778 24.39689665 -0.04753778 25.90968704 -0.04821396 C54.8886432 -0.05501212 83.69673795 0.09379544 112.5390625 3.203125 C114.25811609 3.38204674 115.9771923 3.56075133 117.69628906 3.73925781 C195.46119367 11.93210769 270.18078445 31.17793769 341.5390625 63.203125 C342.46428711 63.61804199 343.38951172 64.03295898 344.34277344 64.46044922 C357.43509895 70.38052314 370.00553045 77.18888529 382.5390625 84.203125 C383.41852539 84.69184082 384.29798828 85.18055664 385.20410156 85.68408203 C415.88006482 102.75736192 444.89516932 122.58374154 472.5390625 144.203125 C473.67808898 145.0837169 474.81742006 145.96391493 475.95703125 146.84375 C482.62511388 152.01260481 489.12147044 157.33755309 495.49755859 162.86279297 C498.98004951 165.87925474 502.50830933 168.81810723 506.1015625 171.703125 C511.46992042 176.05798762 516.50840532 180.72338932 521.55859375 185.4375 C523.80504939 187.53223424 526.08379678 189.57642169 528.4140625 191.578125 C537.66199208 199.5916911 546.57233826 208.04769433 555.09765625 216.82421875 C556.97484364 218.65335014 558.85600441 220.33037787 560.8515625 222.02001953 C567.18442094 227.54727835 573.04530599 233.56557803 578.98046875 239.51171875 C580.2749144 240.80548934 581.56950834 242.09911157 582.86424255 243.39259338 C585.56631401 246.09319739 588.26658631 248.79558393 590.96557617 251.49926758 C594.4071824 254.94657049 597.85325955 258.3893635 601.30070591 261.83082485 C603.97153961 264.49802712 606.63996494 267.16762868 609.30769157 269.83793831 C610.57668833 271.1075972 611.8464146 272.37652743 613.11691475 273.64468193 C618.94862263 279.4679815 624.74708239 285.25926006 630.09754944 291.53477478 C632.34862842 294.14008458 634.75799512 296.55187988 637.19140625 298.98828125 C637.94714684 299.74545692 637.94714684 299.74545692 638.71815491 300.51792908 C639.77140774 301.57185462 640.82589295 302.62454999 641.8815918 303.67602539 C643.47365216 305.26272446 645.0602924 306.85470242 646.64648438 308.44726562 C651.54023739 313.34388445 656.4795711 318.12538517 661.74438477 322.62670898 C664.826726 325.33418787 667.67031856 328.27311953 670.5390625 331.203125 C674.71390207 335.42150415 678.89618769 339.5389617 683.4296875 343.375 C685.72555736 345.36475388 687.94231748 347.42573054 690.16186523 349.49975586 C695.54221847 354.52561681 701.01484517 359.34017667 706.76171875 363.94921875 C709.18653956 365.91704098 711.55619711 367.93526777 713.9152832 369.98095703 C748.19145766 399.55655213 787.90084643 423.88610588 830.5390625 439.203125 C831.32249023 439.48494629 832.10591797 439.76676758 832.91308594 440.05712891 C853.15175117 447.1895623 874.39426332 451.54725618 895.5390625 455.015625 C896.71629883 455.210354 897.89353516 455.40508301 899.10644531 455.60571289 C918.07117433 458.56130578 936.9869541 459.58733089 956.1640625 459.515625 C957.21077118 459.51346985 958.25747986 459.5113147 959.33590698 459.50909424 C975.91113256 459.45455025 992.14825745 458.87522316 1008.5390625 456.203125 C1009.74626953 456.00976562 1010.95347656 455.81640625 1012.19726562 455.6171875 C1069.15249451 446.19733341 1123.92137744 423.3631662 1170.5390625 389.203125 C1171.55299072 388.4608667 1171.55299072 388.4608667 1172.58740234 387.70361328 C1180.71992143 381.72178111 1188.71290023 375.58144725 1196.5390625 369.203125 C1197.395 368.52121094 1198.2509375 367.83929688 1199.1328125 367.13671875 C1204.89111386 362.51187613 1210.38854183 357.67797385 1215.77270508 352.62792969 C1218.50409837 350.06716665 1221.26806687 347.5739937 1224.1171875 345.14453125 C1229.61594296 340.35649929 1234.72286147 335.16863686 1239.86645508 330.00610352 C1241.5980095 328.269189 1243.33484609 326.53768611 1245.07226562 324.80664062 C1250.77594411 319.10638394 1256.31781729 313.35432057 1261.5390625 307.203125 C1262.99351767 305.59544127 1264.45127145 303.99072785 1265.9140625 302.390625 C1270.16421043 297.6761752 1274.18658851 292.80844998 1278.17724609 287.87402344 C1279.74069662 285.95572738 1281.32050317 284.05159635 1282.90234375 282.1484375 C1289.10135787 274.68192016 1295.18104066 267.19467401 1300.8671875 259.328125 C1302.5390625 257.203125 1302.5390625 257.203125 1304.5390625 256.203125 C1303.95387423 261.65197923 1303.00769655 266.82578084 1301.5625 272.1171875 C1301.36086243 272.8682074 1301.15922485 273.61922729 1300.95147705 274.39300537 C1300.28071954 276.87375351 1299.59898644 279.35125234 1298.9140625 281.828125 C1298.55692169 283.12450897 1298.55692169 283.12450897 1298.19256592 284.44708252 C1283.39450374 337.91124547 1264.05062596 389.43851476 1239.5390625 439.203125 C1238.82492841 440.6702847 1238.11130696 442.13769416 1237.3984375 443.60546875 C1212.58771184 494.35933329 1180.52581835 541.97672784 1142.09375 583.4296875 C1139.84988311 585.86568978 1137.66030223 588.33849177 1135.4765625 590.828125 C1130.97407831 595.84447967 1126.23430343 600.61695575 1121.4765625 605.390625 C1120.34238892 606.53168701 1120.34238892 606.53168701 1119.18530273 607.69580078 C1115.01834531 611.85142387 1110.7648784 615.84178021 1106.30541992 619.68188477 C1104.07289442 621.604603 1101.90106584 623.59022527 1099.7265625 625.578125 C1094.47485293 630.30545813 1089.06638843 634.8030721 1083.5390625 639.203125 C1082.90500488 639.70972656 1082.27094727 640.21632813 1081.61767578 640.73828125 C1056.94467981 660.38841501 1030.74660037 677.59593132 1003.11083984 692.78808594 C1000.86816251 694.02204814 998.63457469 695.2707393 996.40234375 696.5234375 C922.51074144 737.39210935 836.26184487 757.15079129 736.4453125 766.44140625 C735.70919739 766.50465591 734.97308228 766.56790558 734.21466064 766.6330719 C719.15693058 767.86293634 704.14579893 768.37327191 689.04296875 768.40625 C688.14228102 768.40907738 687.24159328 768.41190475 686.31361198 768.41481781 C681.52425743 768.42968989 676.73493193 768.43898844 671.94555664 768.44335938 C668.09422055 768.4476924 664.24311504 768.46139814 660.3918457 768.484375 C580.37983054 768.95155255 499.70028993 759.19571052 341.5390625 702.203125 C340.36778809 701.63867676 339.19651367 701.07422852 337.98974609 700.49267578 C320.71195887 692.14035499 303.94996177 683.17346608 287.5390625 673.203125 C286.62833984 672.65414551 285.71761719 672.10516602 284.77929688 671.53955078 C261.05007494 657.2127141 238.36992496 641.27632752 216.5390625 624.203125 C215.40003602 623.3225331 214.26070494 622.44233507 213.12109375 621.5625 C206.45301112 616.39364519 199.95665456 611.06869691 193.58056641 605.54345703 C190.09807549 602.52699526 186.56981567 599.58814277 182.9765625 596.703125 C178.23942695 592.86031592 173.75122019 588.79795541 169.30444336 584.62695312 C166.461348 581.96157963 163.58245751 579.35327546 160.640625 576.796875 C156.54243037 573.22910399 152.55939071 569.55041416 148.6015625 565.828125 C147.90353516 565.17328125 147.20550781 564.5184375 146.48632812 563.84375 C142.14447958 559.75635398 137.8717564 555.61625662 133.7265625 551.328125 C131.93893561 549.59157316 130.12698795 547.99805475 128.22875977 546.38842773 C121.97352981 540.92646503 116.17988633 534.98780347 110.31640625 529.11328125 C109.04438083 527.84193093 107.77220711 526.57072896 106.49989319 525.29966736 C103.84490022 522.64614165 101.19170607 519.99083406 98.53979492 517.33422852 C95.15872272 513.94745965 91.77317992 510.56520107 88.38626766 507.18427372 C85.76175682 504.56339482 83.13965506 501.94011608 80.51825142 499.31612968 C79.27158329 498.06879956 78.02418602 496.82219769 76.77601433 495.57637215 C71.01245152 489.82126999 65.29128788 484.09312146 60.00169373 477.89259338 C57.67737512 475.2077999 55.18318725 472.70395294 52.66796875 470.19921875 C52.14194565 469.67223892 51.61592255 469.14525909 51.07395935 468.60231018 C49.97362829 467.50130599 48.87206318 466.40153375 47.76928711 465.30297852 C46.10479973 463.6438518 44.44572803 461.97944449 42.78710938 460.31445312 C37.77956276 455.3040988 32.7374939 450.39593994 27.34741211 445.79321289 C24.08555902 442.9250545 21.07878965 439.80275802 18.0390625 436.703125 C13.68619157 432.30810198 9.34396421 427.98792818 4.61328125 423.99609375 C2.32794868 422.02063679 0.12501455 419.97073446 -2.08178711 417.90844727 C-7.48466375 412.86113589 -12.97960026 408.02017207 -18.75 403.390625 C-21.50761587 401.16545946 -24.20069827 398.87535953 -26.8984375 396.578125 C-86.40937465 347.07480372 -153.80686217 318.78799122 -230.4609375 310.203125 C-231.33717773 310.1 -232.21341797 309.996875 -233.11621094 309.890625 C-261.22942086 307.03959321 -291.59200388 307.63756591 -319.4609375 312.203125 C-321.26957275 312.49316406 -321.26957275 312.49316406 -323.11474609 312.7890625 C-380.07182474 322.20802051 -434.84183228 345.04204314 -481.4609375 379.203125 C-482.13688965 379.69796387 -482.8128418 380.19280273 -483.50927734 380.70263672 C-491.64179643 386.68446889 -499.63477523 392.82480275 -507.4609375 399.203125 C-508.316875 399.88503906 -509.1728125 400.56695312 -510.0546875 401.26953125 C-515.81298886 405.89437387 -521.31041683 410.72827615 -526.69458008 415.77832031 C-529.42597337 418.33908335 -532.18994187 420.8322563 -535.0390625 423.26171875 C-540.53781796 428.04975071 -545.64473647 433.23761314 -550.78833008 438.40014648 C-552.5198845 440.137061 -554.25672109 441.86856389 -555.99414062 443.59960938 C-561.69781911 449.29986606 -567.23969229 455.05192943 -572.4609375 461.203125 C-573.91539267 462.81080873 -575.37314645 464.41552215 -576.8359375 466.015625 C-581.08608543 470.7300748 -585.10846351 475.59780002 -589.09912109 480.53222656 C-590.66257162 482.45052262 -592.24237817 484.35465365 -593.82421875 486.2578125 C-600.02323287 493.72432984 -606.10291566 501.21157599 -611.7890625 509.078125 C-613.4609375 511.203125 -613.4609375 511.203125 -615.4609375 512.203125 C-614.80384537 504.36779911 -612.67385473 496.94056866 -610.5859375 489.390625 C-610.29165359 488.31874939 -610.29165359 488.31874939 -609.99142456 487.22521973 C-605.27168928 470.07415922 -599.98639591 453.10990942 -594.4609375 436.203125 C-594.05262695 434.95080078 -593.64431641 433.69847656 -593.22363281 432.40820312 C-583.44080016 402.65108563 -571.58013596 373.63782637 -558.4609375 345.203125 C-558.00122559 344.20394043 -557.54151367 343.20475586 -557.06787109 342.17529297 C-550.44406283 327.85386289 -543.18585387 313.95870073 -535.4609375 300.203125 C-534.9644873 299.31351074 -534.46803711 298.42389648 -533.95654297 297.50732422 C-520.11166779 272.73441991 -504.83995001 248.66315235 -487.4609375 226.203125 C-486.67589844 225.16414062 -485.89085937 224.12515625 -485.08203125 223.0546875 C-479.96892909 216.30067845 -474.63878301 209.77715168 -469.12890625 203.34375 C-466.59884994 200.38395819 -464.15199815 197.36183704 -461.7109375 194.328125 C-458.72433157 190.65598142 -455.64152485 187.24985611 -452.22973633 183.97290039 C-450.5225057 182.26472719 -448.96404153 180.49744026 -447.40234375 178.65625 C-442.8462483 173.41517664 -437.94246229 168.53867314 -433.0234375 163.640625 C-431.66895508 162.2803418 -431.66895508 162.2803418 -430.28710938 160.89257812 C-425.70549871 156.31760267 -421.0717696 151.87422594 -416.15698242 147.65844727 C-414.00121349 145.80865043 -411.92249165 143.88034229 -409.8359375 141.953125 C-404.24147591 136.9113078 -398.35195983 132.31192803 -392.39453125 127.71289062 C-390.45031854 126.19483363 -388.53216935 124.64846867 -386.6171875 123.09375 C-377.1793744 115.4968259 -367.34846104 108.60464747 -357.2734375 101.890625 C-356.65057861 101.47450958 -356.02771973 101.05839417 -355.38598633 100.62966919 C-343.38151463 92.62859943 -331.11045231 85.08412508 -318.4609375 78.140625 C-317.70441895 77.72417725 -316.94790039 77.30772949 -316.16845703 76.87866211 C-314.64345263 76.04088664 -313.11760088 75.20465134 -311.59082031 74.37011719 C-309.66512097 73.31499994 -307.74609036 72.24876969 -305.828125 71.1796875 C-232.58044661 31.03274968 -147.07515982 11.00270885 -47.62109375 1.96484375 C-46.85992249 1.90159409 -46.09875122 1.83834442 -45.31451416 1.7731781 C-30.20520465 0.57634331 -15.15242493 0.03611243 0 0 Z " fill="#37BDF8" transform="translate(1255.4609375,-0.203125)"/>
</svg>
